<svg width="92" height="92" viewBox="0 0 92 92" fill="none" xmlns="http://www.w3.org/2000/svg">
<circle opacity="0.15" cx="46" cy="46" r="46" fill="#F55157"/>
<path d="M52 47.9004H38C37.603 47.8978 37.223 47.7389 36.9422 47.4582C36.6615 47.1774 36.5026 46.7974 36.5 46.4004C36.5026 46.0034 36.6615 45.6234 36.9422 45.3426C37.223 45.0619 37.603 44.903 38 44.9004H52C52.397 44.903 52.777 45.0619 53.0578 45.3426C53.3385 45.6234 53.4974 46.0034 53.5 46.4004C53.4974 46.7974 53.3385 47.1774 53.0578 47.4582C52.777 47.7389 52.397 47.8978 52 47.9004Z" fill="#F55157"/>
<path d="M46.76 55.9004H38C37.603 55.8978 37.223 55.7389 36.9422 55.4582C36.6615 55.1774 36.5026 54.7974 36.5 54.4004C36.5026 54.0034 36.6615 53.6234 36.9422 53.3426C37.223 53.0619 37.603 52.903 38 52.9004H46.76C47.157 52.903 47.537 53.0619 47.8178 53.3426C48.0985 53.6234 48.2574 54.0034 48.26 54.4004C48.2574 54.7974 48.0985 55.1774 47.8178 55.4582C47.537 55.7389 47.157 55.8978 46.76 55.9004Z" fill="#F55157"/>
<path d="M50 35.5H42C40.08 35.5 36.5 35.5 36.5 30C36.5 24.5 40.08 24.5 42 24.5H50C51.92 24.5 55.5 24.5 55.5 30C55.5 31.92 55.5 35.5 50 35.5ZM42 27.5C40.02 27.5 39.5 27.5 39.5 30C39.5 32.5 40.02 32.5 42 32.5H50C52.5 32.5 52.5 31.98 52.5 30C52.5 27.5 51.98 27.5 50 27.5H42Z" fill="#F55157"/>
<path d="M52 67.4997H40C28.76 67.4997 26.5 62.3377 26.5 53.9997V41.9997C26.5 32.8797 29.8 28.9797 37.92 28.5597C38.3172 28.5411 38.7057 28.6797 39.0014 28.9455C39.2971 29.2112 39.4762 29.5828 39.5 29.9797C39.5102 30.1756 39.4815 30.3716 39.4155 30.5563C39.3495 30.7411 39.2475 30.9109 39.1154 31.0559C38.9834 31.201 38.8239 31.3185 38.6462 31.4015C38.4684 31.4845 38.276 31.5315 38.08 31.5397C32.4 31.8597 29.5 33.5597 29.5 41.9997V53.9997C29.5 61.3997 30.96 64.4997 40 64.4997H52C61.04 64.4997 62.5 61.3997 62.5 53.9997V41.9997C62.5 33.5597 59.6 31.8597 53.92 31.5397C53.5233 31.5154 53.152 31.3361 52.8864 31.0405C52.6207 30.7449 52.4819 30.3567 52.5 29.9597C52.5238 29.5626 52.7028 29.1909 52.9985 28.9248C53.2941 28.6587 53.6826 28.5196 54.08 28.5377C62.2 28.9777 65.5 32.8777 65.5 41.9777V53.9777C65.5 62.3377 63.24 67.4997 52 67.4997Z" fill="#F55157"/>
</svg>
