<svg width="92" height="92" viewBox="0 0 92 92" fill="none" xmlns="http://www.w3.org/2000/svg">
<circle opacity="0.15" cx="46" cy="46" r="46" fill="#FFC62A"/>
<path d="M62 33.5H50C49.603 33.4974 49.223 33.3385 48.9422 33.0578C48.6615 32.777 48.5026 32.397 48.5 32C48.5026 31.603 48.6615 31.223 48.9422 30.9422C49.223 30.6615 49.603 30.5026 50 30.5H62C62.397 30.5026 62.777 30.6615 63.0578 30.9422C63.3385 31.223 63.4974 31.603 63.5 32C63.4974 32.397 63.3385 32.777 63.0578 33.0578C62.777 33.3385 62.397 33.4974 62 33.5Z" fill="#FFC62A"/>
<path d="M56 39.5H50C49.603 39.4974 49.223 39.3385 48.9422 39.0578C48.6615 38.777 48.5026 38.397 48.5 38C48.5026 37.603 48.6615 37.223 48.9422 36.9422C49.223 36.6615 49.603 36.5026 50 36.5H56C56.397 36.5026 56.777 36.6615 57.0578 36.9422C57.3385 37.223 57.4974 37.603 57.5 38C57.4974 38.397 57.3385 38.777 57.0578 39.0578C56.777 39.3385 56.397 39.4974 56 39.5Z" fill="#FFC62A"/>
<path d="M45 65.5C39.5631 65.5 34.3488 63.3402 30.5043 59.4957C26.6598 55.6512 24.5 50.4369 24.5 45C24.5 39.5631 26.6598 34.3488 30.5043 30.5043C34.3488 26.6598 39.5631 24.5 45 24.5C45.397 24.5026 45.777 24.6615 46.0578 24.9422C46.3385 25.223 46.4974 25.603 46.5 26C46.4974 26.397 46.3385 26.777 46.0578 27.0578C45.777 27.3385 45.397 27.4974 45 27.5C41.5388 27.5 38.1554 28.5264 35.2775 30.4493C32.3997 32.3722 30.1566 35.1053 28.8321 38.303C27.5076 41.5007 27.161 45.0194 27.8363 48.4141C28.5115 51.8088 30.1782 54.927 32.6256 57.3744C35.0731 59.8218 38.1913 61.4885 41.5859 62.1637C44.9806 62.839 48.4993 62.4924 51.697 61.1679C54.8947 59.8434 57.6278 57.6003 59.5507 54.7225C61.4736 51.8446 62.5 48.4612 62.5 45C62.5 44.6022 62.658 44.2206 62.9393 43.9393C63.2206 43.658 63.6022 43.5 64 43.5C64.3978 43.5 64.7794 43.658 65.0607 43.9393C65.342 44.2206 65.5 44.6022 65.5 45C65.4926 50.4347 63.3304 55.6446 59.4875 59.4875C55.6446 63.3304 50.4347 65.4926 45 65.5Z" fill="#FFC62A"/>
<path d="M66.0024 67.5064C65.8054 67.5071 65.6102 67.4686 65.4282 67.393C65.2462 67.3175 65.0811 67.2064 64.9424 67.0664L60.9424 63.0664C60.6608 62.7853 60.5023 62.4038 60.502 62.0058C60.5016 61.6078 60.6593 61.226 60.9404 60.9444C61.2216 60.6627 61.6031 60.5043 62.001 60.5039C62.399 60.5035 62.7808 60.6613 63.0624 60.9424L67.0624 64.9424C67.3414 65.2247 67.4978 65.6055 67.4978 66.0024C67.4978 66.3992 67.3414 66.7801 67.0624 67.0624C66.9241 67.2032 66.7592 67.3149 66.5772 67.3912C66.3952 67.4674 66.1998 67.5066 66.0024 67.5064Z" fill="#FFC62A"/>
</svg>
