<svg width="92" height="92" viewBox="0 0 92 92" fill="none" xmlns="http://www.w3.org/2000/svg">
<circle opacity="0.15" cx="46" cy="46" r="46" fill="#00AF6C"/>
<g clip-path="url(#clip0_0_1)">
<path d="M59.1562 22.6731L59.1572 22.673L59.3069 22.6922C59.4548 22.7211 59.5959 22.7799 59.7211 22.8658C59.8865 22.9795 60.0176 23.1362 60.1009 23.3188L60.179 23.4953C60.5098 24.2705 61.8228 27.5956 62.8145 33.4274C64.8491 33.2634 66.4432 33.5909 67.5782 34.486C68.7317 35.3957 69.3908 36.875 69.5731 38.957L69.6055 39.3502C69.7308 41.2861 69.3407 42.7521 68.4236 43.7797C67.4605 44.8585 65.9334 45.4329 63.8738 45.5805C63.9146 52.3275 62.9764 55.9318 62.9572 56.0008L62.9564 56.0029C62.8986 56.1964 62.7888 56.3709 62.6387 56.5061C62.4886 56.6412 62.3035 56.7322 62.105 56.7695C61.9064 56.8066 61.701 56.7881 61.5121 56.7164C61.328 56.6465 61.1668 56.5279 61.044 56.3741L60.8418 56.2036C60.565 55.9856 60.0703 55.6331 59.4066 55.2165C58.5241 54.6627 57.3476 53.9996 55.9996 53.3962C53.3004 52.1879 49.926 51.2252 46.8349 51.8384L46.8339 51.8385C45.8377 52.0289 44.8349 52.184 43.828 52.3054C45.3243 55.3964 46.5331 58.4737 47.3161 61.2267L47.3989 61.5351C48.1732 64.7351 46.1769 68.2548 42.8225 68.4996L42.8226 68.5005L42.8215 68.4996L42.8206 68.5007L42.8205 68.4997C40.9176 68.6655 38.9563 67.7321 37.7135 66.1047L37.4744 65.7697C35.5711 62.9045 33.6251 59.0944 32.0767 55.2127L31.7724 54.4355L30.8238 51.9628C29.6886 51.6286 28.6606 51.0055 27.8414 50.1544L27.679 49.9784C26.8768 49.0841 26.3267 47.9947 26.0823 46.8214L26.0372 46.5861C25.8878 45.724 25.7689 44.9527 25.6559 43.9306L25.5444 42.813L25.5443 42.812C25.4064 41.1668 25.3771 40.1684 25.3737 39.0018L25.378 38.7377C25.4738 36.0173 27.1741 33.5809 29.6799 32.6247L30.135 32.4584C32.5242 31.6159 36.6394 30.6539 40.6295 30.3463L41.7075 30.2755C42.7853 30.2179 43.8649 30.1986 44.9443 30.2178L44.9452 30.2177L45.2405 30.2193C48.2971 30.1877 51.3339 28.698 53.7102 27.0825C54.9351 26.2497 55.9808 25.3855 56.7592 24.6767C57.5398 23.966 58.0469 23.4156 58.1964 23.2099C58.2895 23.0422 58.4265 22.9024 58.5935 22.8076L58.7253 22.7451C58.8616 22.6913 59.0087 22.6664 59.1562 22.6731ZM33.3462 52.4009C34.9202 56.6746 37.1587 61.3533 39.3068 64.5517L39.4245 64.7198C40.6805 66.412 43.04 66.8054 44.3743 65.5082L44.5339 65.3384C45.2995 64.4564 45.5665 63.108 45.2024 61.8302L45.2014 61.8293C44.4269 59.0012 43.0339 55.7158 41.5295 52.5437C38.5826 52.7612 35.5953 52.653 33.3462 52.4009ZM58.7081 25.8316C57.4941 27.003 55.5544 28.6457 53.1976 29.9966C50.9178 31.3034 48.2427 32.3428 45.4571 32.4158L44.8985 32.4176C43.6391 32.3897 42.2589 32.4304 40.7959 32.5403L40.795 32.5404C40.5464 32.5587 40.3006 32.5854 40.0522 32.6113C40.5019 33.9763 41.2871 36.8654 41.6835 41.3961C42.0798 45.9263 41.8084 48.9098 41.6025 50.3307C41.8516 50.313 42.0981 50.2976 42.3444 50.2726L42.3473 50.2724L43.0676 50.2025C43.7732 50.1234 44.4362 50.0178 45.0886 49.9071C45.9572 49.7597 46.8091 49.6034 47.7131 49.4951L47.717 49.4948L48.2286 49.4608C53.4258 49.2135 58.6109 52.0529 61.1521 53.7669C61.5123 51.4397 61.9954 46.6434 61.4087 39.6684L61.2787 38.3613C60.6101 32.1171 59.4183 27.9179 58.7081 25.8316ZM37.8205 32.8849C35.0463 33.3081 32.551 33.9615 31.0521 34.4701L30.4676 34.6801C28.8408 35.2987 27.7177 36.8615 27.5876 38.6376L27.5748 38.9955C27.5772 39.8289 27.5937 40.5707 27.6572 41.5498L27.7372 42.6211C27.8396 43.8239 27.9966 45.0213 28.206 46.2101L28.2078 46.2188C28.5385 48.1069 29.9845 49.6093 31.8043 49.9596L32.4154 50.064C33.9805 50.3027 36.5598 50.5139 39.3572 50.4497C39.5196 49.5086 39.9238 46.5161 39.4926 41.5878C39.0612 36.6566 38.1451 33.7831 37.8205 32.8849ZM63.1538 35.6034C63.3341 36.8906 63.4826 38.1822 63.5996 39.4767L63.6817 40.5273C63.7527 41.5219 63.8015 42.4701 63.8336 43.3735L63.8405 43.3729C65.3437 43.2414 66.2827 42.9145 66.8205 42.274C67.3582 41.6332 67.5176 40.651 67.3861 39.1474L67.386 39.1464L67.3294 38.6004C67.1714 37.389 66.8285 36.6077 66.2437 36.1408C65.5894 35.6184 64.606 35.47 63.1538 35.6034Z" fill="#00AF6C" stroke="#00AF6C" stroke-width="0.2"/>
</g>
<defs>
<clipPath id="clip0_0_1">
<rect width="48" height="48" fill="white" transform="translate(20 24.1826) rotate(-5)"/>
</clipPath>
</defs>
</svg>
