<svg width="92" height="92" viewBox="0 0 92 92" fill="none" xmlns="http://www.w3.org/2000/svg">
<circle opacity="0.15" cx="46" cy="46" r="46" fill="#003090"/>
<path d="M51.7804 58.4395H34.2004C33.2256 58.4471 32.253 58.3465 31.3004 58.1395C30.7524 58.0527 30.2158 57.9051 29.7004 57.6995C27.0404 56.6995 23.9004 54.2395 23.9004 48.1195V37.8195C23.9004 31.2795 27.6604 27.5195 34.2004 27.5195H51.7804C57.3004 27.5195 60.8604 30.1595 61.8204 34.9595C62.0035 35.9016 62.0906 36.8599 62.0804 37.8195V48.1195C62.0804 54.6995 58.3404 58.4395 51.7804 58.4395ZM34.2204 30.5595C29.3004 30.5595 26.9204 32.9395 26.9204 37.8595V48.1595C26.9204 51.7395 28.1804 53.9395 30.7604 54.9195C31.1311 55.0519 31.5125 55.1523 31.9004 55.2195C32.663 55.3815 33.4407 55.462 34.2204 55.4595H51.8004C56.7204 55.4595 59.1004 53.0795 59.1004 48.1595V37.8595C59.1106 37.1014 59.0435 36.3441 58.9004 35.5995C58.2204 32.1995 55.9004 30.5595 51.8004 30.5595H34.2204Z" fill="#003090"/>
<path d="M57.7792 64.4403H40.1992C38.66 64.4718 37.128 64.221 35.6792 63.7003C34.2406 63.1729 32.9697 62.2695 31.9989 61.084C31.028 59.8986 30.3928 58.4746 30.1592 56.9603C30.1091 56.7166 30.1213 56.4642 30.1947 56.2264C30.2681 55.9887 30.4004 55.7733 30.5792 55.6003C30.7573 55.4238 30.9777 55.2961 31.2195 55.2296C31.4612 55.163 31.7159 55.1598 31.9592 55.2203C32.6961 55.3718 33.4469 55.4455 34.1992 55.4403H51.7792C56.6992 55.4403 59.0792 53.0603 59.0792 48.1403V37.8403C59.0894 37.0821 59.0224 36.3249 58.8792 35.5803C58.8319 35.3382 58.8436 35.0882 58.9132 34.8515C58.9828 34.6148 59.1083 34.3983 59.2792 34.2203C59.4518 34.0415 59.6679 33.9106 59.9063 33.8405C60.1447 33.7704 60.3973 33.7634 60.6392 33.8203C65.4392 34.8003 68.0792 38.3603 68.0792 43.8403V54.1403C68.0792 60.7003 64.3292 64.4403 57.7792 64.4403ZM33.8392 58.4403C34.4693 59.5977 35.5116 60.4758 36.7592 60.9003C37.8713 61.2845 39.043 61.4674 40.2192 61.4403H57.7992C62.7192 61.4403 65.0992 59.0603 65.0992 54.1403V43.8403C65.0992 40.6803 64.1192 38.5803 62.0992 37.4803V48.1403C62.0992 54.6803 58.3392 58.4403 51.7992 58.4403H33.8392Z" fill="#003090"/>
<path d="M43.0007 49.7797C41.6597 49.7797 40.3489 49.3821 39.2339 48.6371C38.119 47.8921 37.25 46.8332 36.7368 45.5943C36.2236 44.3554 36.0894 42.9922 36.351 41.677C36.6126 40.3618 37.2583 39.1537 38.2065 38.2055C39.1547 37.2573 40.3628 36.6116 41.678 36.35C42.9932 36.0884 44.3564 36.2227 45.5953 36.7358C46.8342 37.249 47.8931 38.118 48.6381 39.233C49.3831 40.3479 49.7807 41.6588 49.7807 42.9997C49.7791 44.7974 49.0643 46.521 47.7931 47.7922C46.522 49.0633 44.7984 49.7781 43.0007 49.7797ZM43.0007 39.2197C42.2531 39.2197 41.5223 39.4414 40.9007 39.8568C40.279 40.2721 39.7945 40.8625 39.5084 41.5532C39.2223 42.2439 39.1475 43.0039 39.2933 43.7372C39.4392 44.4704 39.7992 45.144 40.3278 45.6726C40.8565 46.2012 41.53 46.5612 42.2633 46.7071C42.9965 46.853 43.7565 46.7781 44.4472 46.492C45.138 46.2059 45.7283 45.7214 46.1437 45.0998C46.559 44.4782 46.7807 43.7473 46.7807 42.9997C46.7781 41.998 46.379 41.0381 45.6707 40.3298C44.9623 39.6215 44.0024 39.2224 43.0007 39.2197Z" fill="#003090"/>
<path d="M31.5605 48.8996C31.1635 48.897 30.7835 48.7381 30.5028 48.4574C30.222 48.1766 30.0632 47.7966 30.0605 47.3996V38.5996C30.0632 38.2026 30.222 37.8226 30.5028 37.5418C30.7835 37.2611 31.1635 37.1022 31.5605 37.0996C31.9576 37.1022 32.3376 37.2611 32.6183 37.5418C32.899 37.8226 33.0579 38.2026 33.0605 38.5996V47.3996C33.0608 47.5967 33.0222 47.7918 32.9469 47.9739C32.8716 48.1561 32.7611 48.3215 32.6218 48.4609C32.4825 48.6002 32.317 48.7107 32.1349 48.786C31.9528 48.8613 31.7576 48.8999 31.5605 48.8996Z" fill="#003090"/>
<path d="M54.4199 48.8996C54.0229 48.897 53.6429 48.7381 53.3622 48.4574C53.0814 48.1766 52.9225 47.7966 52.9199 47.3996V38.5996C52.9225 38.2026 53.0814 37.8226 53.3622 37.5418C53.6429 37.2611 54.0229 37.1022 54.4199 37.0996C54.8169 37.1022 55.1969 37.2611 55.4777 37.5418C55.7584 37.8226 55.9173 38.2026 55.9199 38.5996V47.3996C55.9202 47.5967 55.8816 47.7918 55.8063 47.9739C55.731 48.1561 55.6205 48.3215 55.4812 48.4609C55.3418 48.6002 55.1764 48.7107 54.9943 48.786C54.8122 48.8613 54.617 48.8999 54.4199 48.8996Z" fill="#003090"/>
</svg>
