<svg width="31" height="33" viewBox="0 0 31 33" fill="none" xmlns="http://www.w3.org/2000/svg">
<path d="M6.05731 15.4189C4.26033 14.1504 3.94053 11.6127 5.36661 9.93797C6.80298 8.25118 9.3825 8.17548 10.9153 9.77514L21.9678 21.3096C22.7494 22.1254 22.7869 23.4004 22.0544 24.2605C21.3161 25.1276 20.0385 25.2886 19.1081 24.6318L6.05731 15.4189Z" fill="#003090"/>
<path d="M17.6386 7.96243C16.9511 6.47336 17.6907 4.71545 19.2359 4.1657C20.7923 3.61198 22.4862 4.52478 22.8796 6.12919L25.7163 17.6979C25.9169 18.516 25.4658 19.3533 24.6721 19.6356C23.8721 19.9203 22.9871 19.5479 22.6312 18.777L17.6386 7.96243Z" fill="#003090"/>
<path d="M5.21307 28.3814C3.57577 28.2857 2.37414 26.8047 2.61779 25.1828C2.8632 23.5492 4.46676 22.4857 6.06715 22.8951L17.6069 25.8473C18.423 26.0561 18.9487 26.8487 18.8235 27.6817C18.6974 28.5214 17.9518 29.1264 17.1041 29.0768L5.21307 28.3814Z" fill="#003090"/>
</svg>
