<svg width="208" height="210" viewBox="0 0 208 210" fill="none" xmlns="http://www.w3.org/2000/svg">
<path d="M137.405 160.154L175.54 219.859L156.896 231.767C134.219 246.251 104.093 239.61 89.6083 216.933L77.6997 198.289L137.405 160.154Z" stroke="white" stroke-width="1.43809"/>
<path d="M57.9905 126.334C80.668 111.85 110.793 118.492 125.278 141.169L137.186 159.813L77.4812 197.948L39.3461 138.243L57.9905 126.334Z" stroke="white" stroke-width="1.43809"/>
<path d="M42.0541 51.9699L60.6977 40.0618L72.6063 58.7062C87.0907 81.3835 80.4493 111.509 57.7721 125.993L39.1277 137.902L27.2196 119.258L26.8838 118.725C12.8397 96.111 19.5539 66.3414 42.0541 51.9699Z" stroke="white" stroke-width="1.43809"/>
<path d="M65.4074 37.0589C80.1811 27.8545 98.1555 25.021 115.596 29.1593L116.437 29.3646C134.381 33.858 150.222 45.3891 160.467 61.4283C170.711 77.4675 174.512 96.6889 171.044 114.859C167.623 132.784 157.404 148.235 142.606 157.922L65.4074 37.0589Z" stroke="white" stroke-width="1.43809"/>
</svg>
