<svg width="126" height="29" viewBox="0 0 126 29" fill="none" xmlns="http://www.w3.org/2000/svg">
<g clip-path="url(#clip0_23_260)">
<path d="M12.2109 5.87305H8.17383V22.3295H12.2109V5.87305Z" fill="#003090"/>
<path d="M22.2755 7.72521C21.507 8.29131 20.9963 9.11358 20.7464 10.1904V7.33622H16.9688V22.3315H20.8619V14.6607C20.8619 13.4131 21.2477 12.4327 22.0162 11.7195C22.7847 11.008 23.7272 10.6522 24.842 10.6522H25.3907V6.9915C24.083 6.91401 23.044 7.15911 22.2755 7.7268V7.72521Z" fill="#003090"/>
<path d="M37.5606 7.33384V9.69786C37.1573 8.8914 36.5897 8.24307 35.8591 7.75288C35.1286 7.26268 34.1102 7.01758 32.8025 7.01758C31.7636 7.01758 30.799 7.22314 29.904 7.63744C29.0106 8.05174 28.2278 8.61784 27.5558 9.33732C26.8821 10.0584 26.3524 10.8949 25.9697 11.8468C25.5839 12.8003 25.3926 13.8139 25.3926 14.8892C25.3926 16.3314 25.7246 17.6438 26.3888 18.8266C27.0513 20.0078 27.9448 20.9503 29.0691 21.6524C30.1934 22.3545 31.4378 22.7039 32.8041 22.7039C34.1703 22.7039 35.1934 22.4446 35.9334 21.9259C36.6735 21.4073 37.2443 20.7242 37.6491 19.8782V22.3292H41.4268V7.33384H37.5637H37.5606ZM37.1273 17.024C36.781 17.677 36.294 18.2004 35.6709 18.5958C35.0463 18.9895 34.3015 19.1872 33.4366 19.1872C32.5716 19.1872 31.8838 18.9863 31.2591 18.5831C30.633 18.1783 30.1491 17.6454 29.8028 16.9813C29.4565 16.3187 29.2841 15.6119 29.2841 14.8623C29.2841 14.0733 29.4581 13.3538 29.8028 12.6991C30.1507 12.0461 30.6345 11.5227 31.2591 11.1273C31.8838 10.7336 32.6096 10.5359 33.4366 10.5359C34.2636 10.5359 35.0479 10.7368 35.6709 11.14C36.2955 11.5448 36.781 12.0729 37.1273 12.726C37.4736 13.3807 37.646 14.1002 37.646 14.8892C37.646 15.6783 37.472 16.3693 37.1273 17.024Z" fill="#003090"/>
<path d="M43.7278 7.33462V22.3299H47.6225V7.33462H43.7278ZM47.3331 2.18753C46.892 1.73528 46.3322 1.51074 45.6617 1.51074C44.9913 1.51074 44.4552 1.73528 44.003 2.18753C43.5523 2.63978 43.3262 3.17267 43.3262 3.78779C43.3262 4.40291 43.5523 4.96585 44.003 5.41652C44.4552 5.86877 45.0071 6.09331 45.6617 6.09331C46.3164 6.09331 46.892 5.87193 47.3331 5.43075C47.7759 4.98799 47.9973 4.43928 47.9973 3.78621C47.9973 3.17109 47.7759 2.6382 47.3331 2.18595V2.18753Z" fill="#003090"/>
<path d="M63.3105 9.87255C62.8108 8.95066 62.1293 8.23908 61.2628 7.73781C60.3978 7.23812 59.4269 6.98828 58.35 6.98828C56.0825 6.98828 54.5534 7.83269 53.7643 9.52625V7.33458H49.9297V22.3299H53.8228V14.1104C53.8228 12.8043 54.1343 11.8571 54.7605 11.272C55.3851 10.6853 56.1109 10.3928 56.9379 10.3928C57.8978 10.3928 58.6774 10.6869 59.2735 11.272C59.8696 11.8586 60.1685 12.8043 60.1685 14.1104V22.3299H64.0616V13.16C64.0616 11.8918 63.8118 10.796 63.3105 9.87255Z" fill="#003090"/>
<path d="M66.2216 7.33462V22.3299H70.1163V7.33462H66.2216ZM69.8253 2.18753C69.3826 1.73528 68.8244 1.51074 68.1523 1.51074C67.4803 1.51074 66.9474 1.73528 66.4951 2.18753C66.0429 2.63978 65.8184 3.17267 65.8184 3.78779C65.8184 4.40291 66.0429 4.96585 66.4951 5.41652C66.9474 5.86877 67.4993 6.09331 68.1523 6.09331C68.8054 6.09331 69.3826 5.87193 69.8253 5.43075C70.2681 4.98799 70.4895 4.43928 70.4895 3.78621C70.4895 3.17109 70.2681 2.6382 69.8253 2.18595V2.18753Z" fill="#003090"/>
<path d="M85.8027 9.87255C85.303 8.95066 84.6215 8.23908 83.7549 7.73781C82.89 7.23812 81.9191 6.98828 80.8422 6.98828C78.5747 6.98828 77.0456 7.83269 76.2565 9.52625V7.33458H72.4219V22.3299H76.315V14.1104C76.315 12.8043 76.6265 11.8571 77.2527 11.272C77.8773 10.6853 78.6031 10.3928 79.4301 10.3928C80.39 10.3928 81.1696 10.6869 81.7657 11.272C82.3618 11.8586 82.6607 12.8043 82.6607 14.1104V22.3299H86.5538V13.16C86.5538 11.8918 86.304 10.796 85.8027 9.87255Z" fill="#003090"/>
<path d="M99.9904 7.33375V9.38151C99.5872 8.65096 99.0321 8.0643 98.3332 7.62154C97.6295 7.18036 96.6555 6.95898 95.4063 6.95898C94.04 6.95898 92.8066 7.30054 91.7013 7.98208C90.5944 8.66519 89.7247 9.59341 89.0922 10.7651C88.4581 11.9385 88.1387 13.2446 88.1387 14.6867C88.1387 16.1289 88.4565 17.4318 89.0922 18.5941C89.7247 19.7579 90.5944 20.6845 91.7013 21.3771C92.8066 22.0698 94.0416 22.4161 95.4063 22.4161C96.6159 22.4161 97.5742 22.2042 98.2763 21.782C98.9784 21.3598 99.5302 20.8016 99.9335 20.1105V20.7731C99.9335 21.5622 99.7548 22.2674 99.399 22.892C99.0448 23.5182 98.5673 24.0037 97.9727 24.3484C97.3765 24.6947 96.7314 24.867 96.0404 24.867C95.0979 24.867 94.2424 24.7231 93.4739 24.4354C92.7054 24.146 91.9638 23.5989 91.2522 22.7908L88.8297 25.645C89.7326 26.7029 90.7763 27.4382 91.9575 27.8525C93.1403 28.2652 94.4907 28.4724 96.0103 28.4724C97.5299 28.4724 98.9025 28.1688 100.076 27.5631C101.248 26.9575 102.166 26.0973 102.83 24.9825C103.493 23.8661 103.825 22.541 103.825 21.0024V7.33375H99.9904ZM99.0385 17.658C98.3253 18.466 97.3275 18.8692 96.0388 18.8692C95.1928 18.8692 94.4701 18.6779 93.8756 18.2921C93.2794 17.9078 92.824 17.3986 92.5062 16.763C92.1899 16.1289 92.0318 15.4363 92.0318 14.6867C92.0318 13.515 92.3813 12.5251 93.0833 11.7171C93.7854 10.9106 94.7706 10.5074 96.0404 10.5074C97.3101 10.5074 98.3269 10.9106 99.0401 11.7171C99.7516 12.5251 100.107 13.515 100.107 14.6867C100.107 15.8585 99.7516 16.8499 99.0401 17.6564L99.0385 17.658Z" fill="#003090"/>
<path d="M123.846 1.77104C122.412 0.58982 120.439 0 117.931 0H114.868V3.988H117.675C118.888 3.988 119.822 4.23943 120.481 4.73753C121.139 5.23722 121.47 6.01837 121.47 7.081C121.47 8.14362 121.139 8.9311 120.481 9.44186C119.822 9.95261 118.886 10.2088 117.675 10.2088H114.868V4.03228H110.402V22.3309H114.868V14.23H117.931C120.439 14.23 122.412 13.6244 123.846 12.4115C125.282 11.1987 126 9.41181 126 7.05253C126 4.69326 125.282 2.95226 123.846 1.77262V1.77104Z" fill="#003090"/>
<path d="M18.2599 3.7628L12.5723 2.50293L11.7826 6.06771L17.4702 7.32758L18.2599 3.7628Z" fill="#003090"/>
<path d="M12.1079 0H0V4.03544H12.1079V0Z" fill="#003090"/>
</g>
<defs>
<clipPath id="clip0_23_260">
<rect width="126" height="28.4726" fill="white"/>
</clipPath>
</defs>
</svg>
