<svg width="459" height="261" viewBox="0 0 459 261" fill="none" xmlns="http://www.w3.org/2000/svg">
<path opacity="0.08" d="M229.5 0C259.638 3.95217e-06 289.482 5.93627 317.326 17.4697C345.17 29.0032 370.47 45.9078 391.781 67.2188C413.092 88.5297 429.997 113.83 441.53 141.674C452.739 168.734 458.661 197.683 458.985 226.955H459V256.955C459 259.164 457.209 260.955 455 260.955H4C1.79093 260.955 8.05292e-09 259.164 0 256.955V226.955H0.0146484C0.33925 197.683 6.261 168.734 17.4697 141.674C29.0032 113.83 45.9078 88.5297 67.2188 67.2188C88.5298 45.9077 113.831 29.0032 141.675 17.4697C169.519 5.93641 199.362 1.666e-05 229.5 0Z" fill="#003090"/>
</svg>
