<svg width="23" height="33" viewBox="0 0 23 33" fill="none" xmlns="http://www.w3.org/2000/svg">
<g clip-path="url(#clip0_2_540)">
<path d="M6.31798 11.0194H0.0644531V4.87382C0.0644531 2.21416 2.25823 0.0581055 4.96459 0.0581055H11.2181V6.20371C11.2181 8.86336 9.0242 11.0193 6.31798 11.0193V11.0194Z" fill="#0083FF"/>
<path d="M6.31798 11.0194H0.0644531V4.87382C0.0644531 2.21416 2.25823 0.0581055 4.96459 0.0581055H11.2181V6.20371C11.2181 8.86336 9.0242 11.0193 6.31798 11.0193V11.0194Z" fill="#0083FF"/>
<path d="M11.7812 0.0581055C17.9412 0.0581055 22.9351 4.96561 22.9351 11.0194C22.9351 17.0732 17.9414 21.9807 11.7812 21.9807" fill="#005FDC"/>
<path d="M11.7812 0.0581055C17.9412 0.0581055 22.9351 4.96561 22.9351 11.0194C22.9351 17.0732 17.9414 21.9807 11.7812 21.9807" fill="#005FDC"/>
<path d="M11.2181 21.9804H0.0644531V11.019H6.31798C9.02434 11.019 11.2183 13.1751 11.2183 15.8348V21.9804H11.2181Z" fill="#005FDC"/>
<path d="M11.2181 21.9804H0.0644531V11.019H6.31798C9.02434 11.019 11.2183 13.1751 11.2183 15.8348V21.9804H11.2181Z" fill="#005FDC"/>
<path d="M0.0644531 21.9805H11.2183V32.9418H4.96473C2.25837 32.9418 0.0644531 30.7857 0.0644531 28.1261V21.9805Z" fill="#003090"/>
<path d="M0.0644531 21.9805H11.2183V32.9418H4.96473C2.25837 32.9418 0.0644531 30.7857 0.0644531 28.1261V21.9805Z" fill="#003090"/>
</g>
<defs>
<clipPath id="clip0_2_540">
<rect width="23" height="33" fill="white"/>
</clipPath>
</defs>
</svg>
