<svg width="1418" height="546" viewBox="0 0 1418 546" fill="none" xmlns="http://www.w3.org/2000/svg">
    <path
        d="M67.2979 446.52C67.2978 462.889 55.4138 476.483 39.8027 479.145C55.1414 481.76 66.8822 494.927 67.2871 510.913L67.2979 511.767V545.968H33.0977L32.2432 545.957C14.3588 545.504 6.49451e-05 530.864 0 512.87V412.319H67.2979V446.52ZM138.388 512.87C138.388 530.864 124.029 545.504 106.145 545.957L105.29 545.968H71.0898V511.767L71.1006 510.913C71.5055 494.927 83.2458 481.76 98.584 479.145C82.9734 476.483 71.0899 462.889 71.0898 446.52V412.319H138.388V512.87ZM209.477 446.52C209.476 462.889 197.592 476.483 181.981 479.145C197.32 481.76 209.061 494.927 209.466 510.913L209.477 511.767V545.968H175.276L174.422 545.957C156.538 545.504 142.179 530.863 142.179 512.87V412.319H209.477V446.52ZM280.566 512.87C280.566 530.864 266.208 545.504 248.323 545.957L247.469 545.968H213.269V511.767L213.279 510.913C213.684 494.927 225.425 481.76 240.763 479.145C225.152 476.482 213.269 462.889 213.269 446.52V412.319H280.566V512.87ZM351.656 446.52C351.656 462.889 339.772 476.483 324.161 479.145C339.5 481.76 351.241 494.927 351.646 510.913L351.656 511.767V545.968H317.456L316.602 545.957C298.717 545.504 284.359 530.864 284.358 512.87V412.319H351.656V446.52ZM422.746 512.87C422.746 530.864 408.387 545.504 390.503 545.957L389.648 545.968H355.448V511.767L355.459 510.913C355.864 494.927 367.604 481.76 382.942 479.145C367.332 476.483 355.448 462.889 355.448 446.52V412.319H422.746V512.87ZM493.835 446.52C493.835 462.889 481.951 476.483 466.34 479.145C481.679 481.76 493.419 494.927 493.824 510.913L493.835 511.767V545.968H459.635L458.78 545.957C440.896 545.504 426.537 530.863 426.537 512.87V412.319H493.835V446.52ZM564.925 512.87C564.925 530.864 550.566 545.504 532.682 545.957L531.827 545.968H497.627V511.767L497.638 510.913C498.043 494.927 509.783 481.76 525.121 479.145C509.511 476.482 497.627 462.889 497.627 446.52V412.319H564.925V512.87ZM636.015 446.52C636.015 462.889 624.13 476.483 608.52 479.145C623.858 481.76 635.599 494.927 636.004 510.913L636.015 511.767V545.968H601.814L600.96 545.957C583.076 545.504 568.717 530.864 568.717 512.87V412.319H636.015V446.52ZM707.104 512.87C707.104 530.864 692.746 545.504 674.861 545.957L674.007 545.968H639.807V511.767L639.817 510.913C640.222 494.927 651.963 481.76 667.301 479.145C651.69 476.483 639.807 462.889 639.807 446.52V412.319H707.104V512.87ZM778.193 446.52C778.193 462.889 766.309 476.483 750.698 479.145C766.037 481.76 777.778 494.927 778.183 510.913L778.193 511.767V545.968H743.993L743.139 545.957C725.255 545.504 710.896 530.863 710.896 512.87V412.319H778.193V446.52ZM849.283 512.87C849.283 530.864 834.924 545.504 817.04 545.957L816.186 545.968H781.985V511.767L781.996 510.913C782.401 494.927 794.141 481.76 809.479 479.145C793.869 476.482 781.985 462.889 781.985 446.52V412.319H849.283V512.87ZM920.373 446.52C920.373 462.889 908.489 476.483 892.878 479.145C908.216 481.76 919.957 494.927 920.362 510.913L920.373 511.767V545.968H886.173L885.318 545.957C867.434 545.504 853.075 530.864 853.075 512.87V412.319H920.373V446.52ZM991.463 512.87C991.463 530.863 977.104 545.504 959.22 545.957L958.365 545.968H924.165V511.767L924.176 510.913C924.581 494.927 936.321 481.76 951.659 479.145C936.049 476.483 924.165 462.889 924.165 446.52V412.319H991.463V512.87ZM1062.55 446.52C1062.55 462.889 1050.67 476.483 1035.06 479.145C1050.4 481.76 1062.14 494.927 1062.54 510.913L1062.55 511.767V545.968H1028.35L1027.5 545.957C1009.61 545.504 995.254 530.864 995.254 512.87V412.319H1062.55V446.52ZM1133.64 512.87C1133.64 530.864 1119.28 545.504 1101.4 545.957L1100.54 545.968H1066.34V511.767L1066.35 510.913C1066.76 494.927 1078.5 481.76 1093.84 479.145C1078.23 476.483 1066.34 462.889 1066.34 446.52V412.319H1133.64V512.87ZM1204.73 446.52C1204.73 462.889 1192.85 476.483 1177.24 479.145C1192.57 481.76 1204.32 494.927 1204.72 510.913L1204.73 511.767V545.968H1170.53L1169.68 545.957C1151.79 545.504 1137.43 530.864 1137.43 512.87V412.319H1204.73V446.52ZM1275.82 512.87C1275.82 530.863 1261.46 545.504 1243.58 545.957L1242.72 545.968H1208.52V511.767L1208.53 510.913C1208.94 494.927 1220.68 481.76 1236.02 479.145C1220.41 476.483 1208.52 462.889 1208.52 446.52V412.319H1275.82V512.87ZM1346.91 446.52C1346.91 462.889 1335.03 476.483 1319.42 479.145C1334.75 481.76 1346.49 494.927 1346.9 510.913L1346.91 511.767V545.968H1312.71L1311.86 545.957C1293.97 545.504 1279.61 530.864 1279.61 512.87V412.319H1346.91V446.52ZM1418 512.87C1418 530.864 1403.64 545.504 1385.76 545.957L1384.9 545.968H1350.7V511.767L1350.71 510.913C1351.12 494.927 1362.86 481.76 1378.2 479.145C1362.59 476.483 1350.7 462.889 1350.7 446.52V412.319H1418V512.87ZM1 512.87C1.00007 530.597 15.3708 544.968 33.0977 544.968H66.2979V511.767C66.2975 494.04 51.9277 479.67 34.2012 479.67H1V512.87ZM104.187 479.67C86.46 479.67 72.0902 494.04 72.0898 511.767V544.968H105.29C123.017 544.968 137.388 530.597 137.388 512.87V479.67H104.187ZM143.179 512.87C143.179 530.597 157.55 544.968 175.276 544.968H208.477V511.767C208.476 494.04 194.106 479.67 176.38 479.67H143.179V512.87ZM246.365 479.67C228.639 479.67 214.269 494.04 214.269 511.767V544.968H247.469C265.196 544.968 279.566 530.597 279.566 512.87V479.67H246.365ZM285.358 512.87C285.359 530.597 299.729 544.968 317.456 544.968H350.656V511.767C350.656 494.04 336.286 479.67 318.56 479.67H285.358V512.87ZM388.545 479.67C370.818 479.67 356.449 494.04 356.448 511.767V544.968H389.648C407.375 544.968 421.746 530.597 421.746 512.87V479.67H388.545ZM427.537 512.87C427.537 530.597 441.908 544.968 459.635 544.968H492.835V511.767C492.835 494.04 478.465 479.67 460.738 479.67H427.537V512.87ZM530.724 479.67C512.997 479.67 498.627 494.04 498.627 511.767V544.968H531.827C549.554 544.968 563.925 530.597 563.925 512.87V479.67H530.724ZM569.717 512.87C569.717 530.597 584.088 544.968 601.814 544.968H635.015V511.767C635.014 494.04 620.644 479.67 602.918 479.67H569.717V512.87ZM672.903 479.67C655.177 479.67 640.807 494.04 640.807 511.767V544.968H674.007C691.734 544.968 706.104 530.597 706.104 512.87V479.67H672.903ZM711.896 512.87C711.896 530.597 726.266 544.968 743.993 544.968H777.193V511.767C777.193 494.04 762.823 479.67 745.097 479.67H711.896V512.87ZM815.082 479.67C797.356 479.67 782.986 494.04 782.985 511.767V544.968H816.186C833.912 544.968 848.283 530.597 848.283 512.87V479.67H815.082ZM854.075 512.87C854.075 530.597 868.446 544.968 886.173 544.968H919.373V511.767C919.373 494.04 905.003 479.67 887.276 479.67H854.075V512.87ZM957.262 479.67C939.535 479.67 925.165 494.04 925.165 511.767V544.968H958.365C976.092 544.968 990.463 530.597 990.463 512.87V479.67H957.262ZM996.254 512.87C996.254 530.597 1010.62 544.968 1028.35 544.968H1061.55V511.767C1061.55 494.04 1047.18 479.67 1029.46 479.67H996.254V512.87ZM1099.44 479.67C1081.71 479.67 1067.34 494.04 1067.34 511.767V544.968H1100.54C1118.27 544.968 1132.64 530.597 1132.64 512.87V479.67H1099.44ZM1138.43 512.87C1138.43 530.597 1152.8 544.968 1170.53 544.968H1203.73V511.767C1203.73 494.04 1189.36 479.67 1171.63 479.67H1138.43V512.87ZM1241.62 479.67C1223.89 479.67 1209.52 494.04 1209.52 511.767V544.968H1242.72C1260.45 544.968 1274.82 530.597 1274.82 512.87V479.67H1241.62ZM1280.61 512.87C1280.61 530.597 1294.98 544.968 1312.71 544.968H1345.91V511.767C1345.91 494.04 1331.54 479.67 1313.81 479.67H1280.61V512.87ZM1383.8 479.67C1366.07 479.67 1351.7 494.04 1351.7 511.767V544.968H1384.9C1402.63 544.968 1417 530.597 1417 512.87V479.67H1383.8ZM1 478.617H34.2012C51.9278 478.617 66.2978 464.246 66.2979 446.52V413.319H1V478.617ZM72.0898 446.52C72.0899 464.246 86.4599 478.617 104.187 478.617H137.388V413.319H72.0898V446.52ZM143.179 478.617H176.38C194.107 478.617 208.476 464.246 208.477 446.52V413.319H143.179V478.617ZM214.269 446.52C214.269 464.246 228.639 478.617 246.365 478.617H279.566V413.319H214.269V446.52ZM285.358 478.617H318.56C336.286 478.617 350.656 464.246 350.656 446.52V413.319H285.358V478.617ZM356.448 446.52C356.448 464.246 370.818 478.617 388.545 478.617H421.746V413.319H356.448V446.52ZM427.537 478.617H460.738C478.465 478.617 492.835 464.246 492.835 446.52V413.319H427.537V478.617ZM498.627 446.52C498.627 464.246 512.997 478.617 530.724 478.617H563.925V413.319H498.627V446.52ZM569.717 478.617H602.918C620.644 478.617 635.015 464.246 635.015 446.52V413.319H569.717V478.617ZM640.807 446.52C640.807 464.246 655.177 478.617 672.903 478.617H706.104V413.319H640.807V446.52ZM711.896 478.617H745.097C762.823 478.617 777.193 464.246 777.193 446.52V413.319H711.896V478.617ZM782.985 446.52C782.985 464.246 797.356 478.617 815.082 478.617H848.283V413.319H782.985V446.52ZM854.075 478.617H887.276C905.003 478.617 919.373 464.246 919.373 446.52V413.319H854.075V478.617ZM925.165 446.52C925.165 464.246 939.535 478.617 957.262 478.617H990.463V413.319H925.165V446.52ZM996.254 478.617H1029.46C1047.18 478.617 1061.55 464.246 1061.55 446.52V413.319H996.254V478.617ZM1067.34 446.52C1067.34 464.246 1081.71 478.617 1099.44 478.617H1132.64V413.319H1067.34V446.52ZM1138.43 478.617H1171.63C1189.36 478.617 1203.73 464.246 1203.73 446.52V413.319H1138.43V478.617ZM1209.52 446.52C1209.52 464.246 1223.89 478.617 1241.62 478.617H1274.82V413.319H1209.52V446.52ZM1280.61 478.617H1313.81C1331.54 478.617 1345.91 464.246 1345.91 446.52V413.319H1280.61V478.617ZM1351.7 446.52C1351.7 464.246 1366.07 478.617 1383.8 478.617H1417V413.319H1351.7V446.52ZM67.2979 309.081L67.2871 309.935C66.8822 325.921 55.1414 339.088 39.8027 341.703C55.4139 344.365 67.2979 357.958 67.2979 374.328V408.528H0V307.978C0 289.984 14.3588 275.344 32.2432 274.891L33.0977 274.88H67.2979V309.081ZM106.145 274.891C124.029 275.344 138.388 289.984 138.388 307.978V408.528H71.0898V374.328C71.0898 357.959 82.9733 344.365 98.584 341.703C83.2458 339.088 71.5055 325.921 71.1006 309.935L71.0898 309.081V274.88H105.29L106.145 274.891ZM209.477 309.081L209.466 309.935C209.061 325.921 197.32 339.088 181.981 341.703C197.593 344.365 209.477 357.958 209.477 374.328V408.528H142.179V307.978C142.179 289.984 156.538 275.344 174.422 274.891L175.276 274.88H209.477V309.081ZM248.323 274.891C266.208 275.344 280.566 289.984 280.566 307.978V408.528H213.269V374.328C213.269 357.959 225.152 344.365 240.763 341.703C225.425 339.087 213.684 325.921 213.279 309.935L213.269 309.081V274.88H247.469L248.323 274.891ZM351.656 309.081L351.646 309.935C351.24 325.921 339.5 339.088 324.161 341.703C339.772 344.365 351.656 357.958 351.656 374.328V408.528H284.358V307.978C284.358 289.984 298.717 275.344 316.602 274.891L317.456 274.88H351.656V309.081ZM390.503 274.891C408.387 275.344 422.746 289.984 422.746 307.978V408.528H355.448V374.328C355.448 357.959 367.332 344.365 382.942 341.703C367.604 339.088 355.864 325.921 355.459 309.935L355.448 309.081V274.88H389.648L390.503 274.891ZM493.835 309.081L493.824 309.935C493.419 325.921 481.678 339.088 466.34 341.703C481.951 344.365 493.835 357.958 493.835 374.328V408.528H426.537V307.978C426.537 289.984 440.896 275.344 458.78 274.891L459.635 274.88H493.835V309.081ZM532.682 274.891C550.566 275.344 564.925 289.984 564.925 307.978V408.528H497.627V374.328C497.627 357.959 509.511 344.365 525.121 341.703C509.783 339.087 498.043 325.921 497.638 309.935L497.627 309.081V274.88H531.827L532.682 274.891ZM636.015 309.081L636.004 309.935C635.599 325.921 623.858 339.088 608.52 341.703C624.131 344.365 636.015 357.958 636.015 374.328V408.528H568.717V307.978C568.717 289.984 583.076 275.344 600.96 274.891L601.814 274.88H636.015V309.081ZM674.861 274.891C692.746 275.344 707.104 289.984 707.104 307.978V408.528H639.807V374.328C639.807 357.959 651.69 344.365 667.301 341.703C651.963 339.088 640.222 325.921 639.817 309.935L639.807 309.081V274.88H674.007L674.861 274.891ZM778.193 309.081L778.183 309.935C777.778 325.921 766.037 339.088 750.698 341.703C766.309 344.365 778.193 357.958 778.193 374.328V408.528H710.896V307.978C710.896 289.984 725.254 275.344 743.139 274.891L743.993 274.88H778.193V309.081ZM817.04 274.891C834.924 275.344 849.283 289.984 849.283 307.978V408.528H781.985V374.328C781.985 357.959 793.869 344.365 809.479 341.703C794.141 339.087 782.401 325.921 781.996 309.935L781.985 309.081V274.88H816.186L817.04 274.891ZM920.373 309.081L920.362 309.935C919.957 325.921 908.216 339.088 892.878 341.703C908.489 344.365 920.373 357.959 920.373 374.328V408.528H853.075V307.978C853.075 289.984 867.434 275.344 885.318 274.891L886.173 274.88H920.373V309.081ZM959.22 274.891C977.104 275.344 991.463 289.984 991.463 307.978V408.528H924.165V374.328C924.165 357.959 936.049 344.365 951.659 341.703C936.321 339.088 924.581 325.921 924.176 309.935L924.165 309.081V274.88H958.365L959.22 274.891ZM1062.55 309.081L1062.54 309.935C1062.14 325.921 1050.4 339.088 1035.06 341.703C1050.67 344.365 1062.55 357.958 1062.55 374.328V408.528H995.254V307.978C995.254 289.984 1009.61 275.344 1027.5 274.891L1028.35 274.88H1062.55V309.081ZM1101.4 274.891C1119.28 275.344 1133.64 289.984 1133.64 307.978V408.528H1066.34V374.328C1066.34 357.959 1078.23 344.365 1093.84 341.703C1078.5 339.088 1066.76 325.921 1066.35 309.935L1066.34 309.081V274.88H1100.54L1101.4 274.891ZM1204.73 309.081L1204.72 309.935C1204.32 325.921 1192.57 339.088 1177.24 341.703C1192.85 344.365 1204.73 357.959 1204.73 374.328V408.528H1137.43V307.978C1137.43 289.984 1151.79 275.344 1169.68 274.891L1170.53 274.88H1204.73V309.081ZM1243.58 274.891C1261.46 275.344 1275.82 289.984 1275.82 307.978V408.528H1208.52V374.328C1208.52 357.959 1220.41 344.365 1236.02 341.703C1220.68 339.088 1208.94 325.921 1208.53 309.935L1208.52 309.081V274.88H1242.72L1243.58 274.891ZM1346.91 309.081L1346.9 309.935C1346.49 325.921 1334.75 339.088 1319.42 341.703C1335.03 344.365 1346.91 357.958 1346.91 374.328V408.528H1279.61V307.978C1279.61 289.984 1293.97 275.344 1311.86 274.891L1312.71 274.88H1346.91V309.081ZM1385.76 274.891C1403.64 275.344 1418 289.984 1418 307.978V408.528H1350.7V374.328C1350.7 357.959 1362.59 344.365 1378.2 341.703C1362.86 339.088 1351.12 325.921 1350.71 309.935L1350.7 309.081V274.88H1384.9L1385.76 274.891ZM1 407.528H66.2979V374.328C66.2979 356.601 51.9279 342.231 34.2012 342.23H1V407.528ZM104.187 342.23C86.4598 342.231 72.0898 356.601 72.0898 374.328V407.528H137.388V342.23H104.187ZM143.179 407.528H208.477V374.328C208.477 356.601 194.107 342.231 176.38 342.23H143.179V407.528ZM246.365 342.23C228.639 342.231 214.269 356.602 214.269 374.328V407.528H279.566V342.23H246.365ZM285.358 407.528H350.656V374.328C350.656 356.601 336.286 342.231 318.56 342.23H285.358V407.528ZM388.545 342.23C370.818 342.231 356.448 356.601 356.448 374.328V407.528H421.746V342.23H388.545ZM427.537 407.528H492.835V374.328C492.835 356.601 478.465 342.231 460.738 342.23H427.537V407.528ZM530.724 342.23C512.997 342.231 498.627 356.601 498.627 374.328V407.528H563.925V342.23H530.724ZM569.717 407.528H635.015V374.328C635.015 356.601 620.645 342.231 602.918 342.23H569.717V407.528ZM672.903 342.23C655.177 342.231 640.807 356.601 640.807 374.328V407.528H706.104V342.23H672.903ZM711.896 407.528H777.193V374.328C777.193 356.601 762.823 342.231 745.097 342.23H711.896V407.528ZM815.082 342.23C797.355 342.231 782.985 356.601 782.985 374.328V407.528H848.283V342.23H815.082ZM854.075 407.528H919.373V374.328C919.373 356.602 905.003 342.231 887.276 342.23H854.075V407.528ZM957.262 342.23C939.535 342.231 925.165 356.601 925.165 374.328V407.528H990.463V342.23H957.262ZM996.254 407.528H1061.55V374.328C1061.55 356.601 1047.18 342.231 1029.46 342.23H996.254V407.528ZM1099.44 342.23C1081.71 342.231 1067.34 356.601 1067.34 374.328V407.528H1132.64V342.23H1099.44ZM1138.43 407.528H1203.73V374.328C1203.73 356.602 1189.36 342.231 1171.63 342.23H1138.43V407.528ZM1241.62 342.23C1223.89 342.231 1209.52 356.601 1209.52 374.328V407.528H1274.82V342.23H1241.62ZM1280.61 407.528H1345.91V374.328C1345.91 356.601 1331.54 342.231 1313.81 342.23H1280.61V407.528ZM1383.8 342.23C1366.07 342.231 1351.7 356.601 1351.7 374.328V407.528H1417V342.23H1383.8ZM33.0977 275.88C15.3707 275.88 1 290.251 1 307.978V341.178H34.2012C51.9277 341.177 66.2975 326.808 66.2979 309.081V275.88H33.0977ZM72.0898 309.081C72.0902 326.808 86.46 341.177 104.187 341.178H137.388V307.978C137.388 290.251 123.017 275.88 105.29 275.88H72.0898V309.081ZM175.276 275.88C157.55 275.88 143.179 290.251 143.179 307.978V341.178H176.38C194.106 341.177 208.476 326.807 208.477 309.081V275.88H175.276ZM214.269 309.081C214.269 326.807 228.639 341.177 246.365 341.178H279.566V307.978C279.566 290.251 265.196 275.88 247.469 275.88H214.269V309.081ZM317.456 275.88C299.729 275.88 285.358 290.251 285.358 307.978V341.178H318.56C336.286 341.177 350.656 326.807 350.656 309.081V275.88H317.456ZM356.448 309.081C356.449 326.807 370.818 341.177 388.545 341.178H421.746V307.978C421.746 290.251 407.375 275.88 389.648 275.88H356.448V309.081ZM459.635 275.88C441.908 275.88 427.537 290.251 427.537 307.978V341.178H460.738C478.465 341.177 492.835 326.807 492.835 309.081V275.88H459.635ZM498.627 309.081C498.627 326.807 512.997 341.177 530.724 341.178H563.925V307.978C563.925 290.251 549.554 275.88 531.827 275.88H498.627V309.081ZM601.814 275.88C584.088 275.88 569.717 290.251 569.717 307.978V341.178H602.918C620.644 341.177 635.014 326.807 635.015 309.081V275.88H601.814ZM640.807 309.081C640.807 326.807 655.177 341.177 672.903 341.178H706.104V307.978C706.104 290.251 691.734 275.88 674.007 275.88H640.807V309.081ZM743.993 275.88C726.266 275.88 711.896 290.251 711.896 307.978V341.178H745.097C762.823 341.177 777.193 326.807 777.193 309.081V275.88H743.993ZM782.985 309.081C782.986 326.807 797.356 341.177 815.082 341.178H848.283V307.978C848.283 290.251 833.912 275.88 816.186 275.88H782.985V309.081ZM886.173 275.88C868.446 275.88 854.075 290.251 854.075 307.978V341.178H887.276C905.003 341.177 919.373 326.807 919.373 309.081V275.88H886.173ZM925.165 309.081C925.165 326.807 939.535 341.177 957.262 341.178H990.463V307.978C990.463 290.251 976.092 275.88 958.365 275.88H925.165V309.081ZM1028.35 275.88C1010.62 275.88 996.254 290.251 996.254 307.978V341.178H1029.46C1047.18 341.177 1061.55 326.807 1061.55 309.081V275.88H1028.35ZM1067.34 309.081C1067.34 326.807 1081.71 341.177 1099.44 341.178H1132.64V307.978C1132.64 290.251 1118.27 275.88 1100.54 275.88H1067.34V309.081ZM1170.53 275.88C1152.8 275.88 1138.43 290.251 1138.43 307.978V341.178H1171.63C1189.36 341.177 1203.73 326.807 1203.73 309.081V275.88H1170.53ZM1209.52 309.081C1209.52 326.807 1223.89 341.177 1241.62 341.178H1274.82V307.978C1274.82 290.251 1260.45 275.88 1242.72 275.88H1209.52V309.081ZM1312.71 275.88C1294.98 275.88 1280.61 290.251 1280.61 307.978V341.178H1313.81C1331.54 341.177 1345.91 326.807 1345.91 309.081V275.88H1312.71ZM1351.7 309.081C1351.7 326.807 1366.07 341.177 1383.8 341.178H1417V307.978C1417 290.251 1402.63 275.88 1384.9 275.88H1351.7V309.081ZM67.2979 171.64C67.2979 188.009 55.4139 201.603 39.8027 204.265C55.1413 206.88 66.8821 220.047 67.2871 236.033L67.2979 236.887V271.088H33.0977L32.2432 271.077C14.3588 270.624 0 255.984 0 237.99V137.439H67.2979V171.64ZM138.388 237.99C138.388 255.984 124.029 270.624 106.145 271.077L105.29 271.088H71.0898V236.887L71.1006 236.033C71.5056 220.047 83.2458 206.88 98.584 204.265C82.9733 201.603 71.0898 188.009 71.0898 171.64V137.439H138.388V237.99ZM209.478 171.64C209.478 188.009 197.593 201.603 181.982 204.265C197.321 206.88 209.062 220.047 209.467 236.033L209.478 236.887V271.088H175.277L174.423 271.077C156.538 270.624 142.18 255.984 142.18 237.99V137.439H209.478V171.64ZM280.567 237.99C280.567 255.984 266.208 270.624 248.324 271.077L247.47 271.088H213.27V236.887L213.28 236.033C213.685 220.047 225.426 206.88 240.764 204.265C225.153 201.603 213.27 188.009 213.27 171.64V137.439H280.567V237.99ZM351.656 171.64C351.656 188.009 339.772 201.603 324.161 204.265C339.5 206.88 351.24 220.047 351.646 236.033L351.656 236.887V271.088H317.456L316.602 271.077C298.717 270.624 284.358 255.984 284.358 237.99V137.439H351.656V171.64ZM422.746 237.99C422.746 255.984 408.387 270.624 390.503 271.077L389.648 271.088H355.448V236.887L355.459 236.033C355.864 220.047 367.604 206.88 382.942 204.265C367.332 201.603 355.448 188.009 355.448 171.64V137.439H422.746V237.99ZM493.835 171.64C493.835 188.009 481.951 201.603 466.34 204.265C481.678 206.88 493.419 220.047 493.824 236.033L493.835 236.887V271.088H459.635L458.78 271.077C440.896 270.624 426.537 255.984 426.537 237.99V137.439H493.835V171.64ZM564.925 237.99C564.925 255.984 550.566 270.624 532.682 271.077L531.827 271.088H497.627V236.887L497.638 236.033C498.043 220.047 509.783 206.88 525.121 204.265C509.511 201.603 497.627 188.009 497.627 171.64V137.439H564.925V237.99ZM636.015 171.64C636.015 188.009 624.131 201.603 608.52 204.265C623.858 206.88 635.599 220.047 636.004 236.033L636.015 236.887V271.088H601.814L600.96 271.077C583.076 270.624 568.717 255.984 568.717 237.99V137.439H636.015V171.64ZM707.104 237.99C707.104 255.984 692.746 270.624 674.861 271.077L674.007 271.088H639.807V236.887L639.817 236.033C640.222 220.047 651.963 206.88 667.301 204.265C651.69 201.603 639.807 188.009 639.807 171.64V137.439H707.104V237.99ZM778.193 171.64C778.193 188.009 766.309 201.603 750.698 204.265C766.037 206.88 777.778 220.047 778.183 236.033L778.193 236.887V271.088H743.993L743.139 271.077C725.254 270.624 710.896 255.984 710.896 237.99V137.439H778.193V171.64ZM849.283 237.99C849.283 255.984 834.924 270.624 817.04 271.077L816.186 271.088H781.985V236.887L781.996 236.033C782.401 220.047 794.141 206.88 809.479 204.265C793.869 201.603 781.985 188.009 781.985 171.64V137.439H849.283V237.99ZM920.373 171.64C920.373 188.009 908.489 201.603 892.878 204.265C908.216 206.88 919.957 220.047 920.362 236.033L920.373 236.887V271.088H886.173L885.318 271.077C867.434 270.624 853.075 255.984 853.075 237.99V137.439H920.373V171.64ZM991.463 237.99C991.463 255.984 977.104 270.624 959.22 271.077L958.365 271.088H924.165V236.887L924.176 236.033C924.581 220.047 936.321 206.88 951.659 204.265C936.048 201.603 924.165 188.009 924.165 171.64V137.439H991.463V237.99ZM1062.55 171.64C1062.55 188.009 1050.67 201.603 1035.06 204.265C1050.4 206.88 1062.14 220.047 1062.54 236.033L1062.55 236.887V271.088H1028.35L1027.5 271.077C1009.61 270.624 995.254 255.984 995.254 237.99V137.439H1062.55V171.64ZM1133.64 237.99C1133.64 255.984 1119.28 270.624 1101.4 271.077L1100.54 271.088H1066.34V236.887L1066.35 236.033C1066.76 220.047 1078.5 206.88 1093.84 204.265C1078.23 201.603 1066.34 188.009 1066.34 171.64V137.439H1133.64V237.99ZM1204.73 171.64C1204.73 188.009 1192.85 201.603 1177.24 204.265C1192.57 206.88 1204.32 220.047 1204.72 236.033L1204.73 236.887V271.088H1170.53L1169.68 271.077C1151.79 270.624 1137.43 255.984 1137.43 237.99V137.439H1204.73V171.64ZM1275.82 237.99C1275.82 255.984 1261.46 270.624 1243.58 271.077L1242.72 271.088H1208.52V236.887L1208.53 236.033C1208.94 220.047 1220.68 206.88 1236.02 204.265C1220.41 201.603 1208.52 188.009 1208.52 171.64V137.439H1275.82V237.99ZM1346.91 171.64C1346.91 188.009 1335.03 201.603 1319.42 204.265C1334.75 206.88 1346.49 220.047 1346.9 236.033L1346.91 236.887V271.088H1312.71L1311.86 271.077C1293.97 270.624 1279.61 255.984 1279.61 237.99V137.439H1346.91V171.64ZM1418 237.99C1418 255.984 1403.64 270.624 1385.76 271.077L1384.9 271.088H1350.7V236.887L1350.71 236.033C1351.12 220.047 1362.86 206.88 1378.2 204.265C1362.59 201.603 1350.7 188.009 1350.7 171.64V137.439H1418V237.99ZM1 237.99C1 255.717 15.3708 270.088 33.0977 270.088H66.2979V236.887C66.2974 219.16 51.9276 204.79 34.2012 204.79H1V237.99ZM104.187 204.79C86.4601 204.79 72.0903 219.16 72.0898 236.887V270.088H105.29C123.017 270.088 137.388 255.717 137.388 237.99V204.79H104.187ZM143.18 237.99C143.18 255.717 157.55 270.088 175.277 270.088H208.478V236.887C208.477 219.16 194.107 204.791 176.381 204.79H143.18V237.99ZM246.366 204.79C228.64 204.79 214.27 219.16 214.27 236.887V270.088H247.47C265.196 270.088 279.567 255.717 279.567 237.99V204.79H246.366ZM285.358 237.99C285.358 255.717 299.729 270.088 317.456 270.088H350.656V236.887C350.656 219.16 336.286 204.79 318.56 204.79H285.358V237.99ZM388.545 204.79C370.818 204.79 356.449 219.16 356.448 236.887V270.088H389.648C407.375 270.088 421.746 255.717 421.746 237.99V204.79H388.545ZM427.537 237.99C427.537 255.717 441.908 270.088 459.635 270.088H492.835V236.887C492.835 219.16 478.465 204.79 460.738 204.79H427.537V237.99ZM530.724 204.79C512.997 204.791 498.627 219.16 498.627 236.887V270.088H531.827C549.554 270.088 563.925 255.717 563.925 237.99V204.79H530.724ZM569.717 237.99C569.717 255.717 584.088 270.088 601.814 270.088H635.015V236.887C635.014 219.16 620.644 204.79 602.918 204.79H569.717V237.99ZM672.903 204.79C655.177 204.79 640.807 219.16 640.807 236.887V270.088H674.007C691.734 270.088 706.104 255.717 706.104 237.99V204.79H672.903ZM711.896 237.99C711.896 255.717 726.266 270.088 743.993 270.088H777.193V236.887C777.193 219.16 762.823 204.79 745.097 204.79H711.896V237.99ZM815.082 204.79C797.356 204.79 782.986 219.16 782.985 236.887V270.088H816.186C833.912 270.088 848.283 255.717 848.283 237.99V204.79H815.082ZM854.075 237.99C854.075 255.717 868.446 270.088 886.173 270.088H919.373V236.887C919.373 219.16 905.003 204.791 887.276 204.79H854.075V237.99ZM957.262 204.79C939.535 204.79 925.165 219.16 925.165 236.887V270.088H958.365C976.092 270.088 990.463 255.717 990.463 237.99V204.79H957.262ZM996.254 237.99C996.254 255.717 1010.62 270.088 1028.35 270.088H1061.55V236.887C1061.55 219.16 1047.18 204.79 1029.46 204.79H996.254V237.99ZM1099.44 204.79C1081.71 204.79 1067.34 219.16 1067.34 236.887V270.088H1100.54C1118.27 270.088 1132.64 255.717 1132.64 237.99V204.79H1099.44ZM1138.43 237.99C1138.43 255.717 1152.8 270.088 1170.53 270.088H1203.73V236.887C1203.73 219.16 1189.36 204.791 1171.63 204.79H1138.43V237.99ZM1241.62 204.79C1223.89 204.79 1209.52 219.16 1209.52 236.887V270.088H1242.72C1260.45 270.088 1274.82 255.717 1274.82 237.99V204.79H1241.62ZM1280.61 237.99C1280.61 255.717 1294.98 270.088 1312.71 270.088H1345.91V236.887C1345.91 219.16 1331.54 204.79 1313.81 204.79H1280.61V237.99ZM1383.8 204.79C1366.07 204.79 1351.7 219.16 1351.7 236.887V270.088H1384.9C1402.63 270.088 1417 255.717 1417 237.99V204.79H1383.8ZM1 203.737H34.2012C51.9278 203.737 66.2978 189.366 66.2979 171.64V138.439H1V203.737ZM72.0898 171.64C72.0899 189.366 86.4599 203.737 104.187 203.737H137.388V138.439H72.0898V171.64ZM143.18 203.737H176.381C194.107 203.737 208.478 189.366 208.478 171.64V138.439H143.18V203.737ZM214.27 171.64C214.27 189.366 228.64 203.737 246.366 203.737H279.567V138.439H214.27V171.64ZM285.358 203.737H318.56C336.286 203.737 350.656 189.366 350.656 171.64V138.439H285.358V203.737ZM356.448 171.64C356.448 189.366 370.818 203.737 388.545 203.737H421.746V138.439H356.448V171.64ZM427.537 203.737H460.738C478.465 203.737 492.835 189.366 492.835 171.64V138.439H427.537V203.737ZM498.627 171.64C498.627 189.366 512.997 203.737 530.724 203.737H563.925V138.439H498.627V171.64ZM569.717 203.737H602.918C620.645 203.737 635.015 189.366 635.015 171.64V138.439H569.717V203.737ZM640.807 171.64C640.807 189.366 655.177 203.737 672.903 203.737H706.104V138.439H640.807V171.64ZM711.896 203.737H745.097C762.823 203.737 777.193 189.366 777.193 171.64V138.439H711.896V203.737ZM782.985 171.64C782.985 189.366 797.356 203.737 815.082 203.737H848.283V138.439H782.985V171.64ZM854.075 203.737H887.276C905.003 203.737 919.373 189.366 919.373 171.64V138.439H854.075V203.737ZM925.165 171.64C925.165 189.366 939.535 203.737 957.262 203.737H990.463V138.439H925.165V171.64ZM996.254 203.737H1029.46C1047.18 203.737 1061.55 189.366 1061.55 171.64V138.439H996.254V203.737ZM1067.34 171.64C1067.34 189.366 1081.71 203.737 1099.44 203.737H1132.64V138.439H1067.34V171.64ZM1138.43 203.737H1171.63C1189.36 203.737 1203.73 189.366 1203.73 171.64V138.439H1138.43V203.737ZM1209.52 171.64C1209.52 189.366 1223.89 203.737 1241.62 203.737H1274.82V138.439H1209.52V171.64ZM1280.61 203.737H1313.81C1331.54 203.737 1345.91 189.366 1345.91 171.64V138.439H1280.61V203.737ZM1351.7 171.64C1351.7 189.366 1366.07 203.737 1383.8 203.737H1417V138.439H1351.7V171.64ZM67.2979 34.2012L67.2871 35.0547C66.8822 51.0412 55.1414 64.2081 39.8027 66.8232C55.4139 69.4848 67.2979 83.0785 67.2979 99.4482V133.648H0V33.0977C0 15.1041 14.3588 0.463853 32.2432 0.0107422L33.0977 0H67.2979V34.2012ZM106.145 0.0107422C124.029 0.463887 138.388 15.1041 138.388 33.0977V133.648H71.0898V99.4482C71.0898 83.0789 82.9733 69.4852 98.584 66.8232C83.2457 64.2077 71.5055 51.0409 71.1006 35.0547L71.0898 34.2012V0H105.29L106.145 0.0107422ZM209.478 34.2012L209.467 35.0547C209.062 51.041 197.321 64.2079 181.982 66.8232C197.593 69.485 209.478 83.0787 209.478 99.4482V133.648H142.18V33.0977C142.18 15.1041 156.538 0.463853 174.423 0.0107422L175.277 0H209.478V34.2012ZM248.324 0.0107422C266.208 0.464141 280.567 15.1042 280.567 33.0977V133.648H213.27V99.4482C213.27 83.0788 225.153 69.4852 240.764 66.8232C225.425 64.2077 213.685 51.0409 213.28 35.0547L213.27 34.2012V0H247.47L248.324 0.0107422ZM351.656 34.2012L351.646 35.0547C351.241 51.0412 339.5 64.208 324.161 66.8232C339.772 69.4848 351.656 83.0786 351.656 99.4482V133.648H284.358V33.0977C284.358 15.1041 298.717 0.463853 316.602 0.0107422L317.456 0H351.656V34.2012ZM390.503 0.0107422C408.387 0.463919 422.746 15.1041 422.746 33.0977V133.648H355.448V99.4482C355.448 83.0788 367.332 69.4852 382.942 66.8232C367.604 64.2077 355.864 51.0409 355.459 35.0547L355.448 34.2012V0H389.648L390.503 0.0107422ZM493.835 34.2012L493.824 35.0547C493.419 51.0412 481.679 64.2081 466.34 66.8232C481.951 69.4848 493.835 83.0785 493.835 99.4482V133.648H426.537V33.0977C426.537 15.1042 440.896 0.464043 458.78 0.0107422L459.635 0H493.835V34.2012ZM532.682 0.0107422C550.566 0.463887 564.925 15.1041 564.925 33.0977V133.648H497.627V99.4482C497.627 83.079 509.511 69.4853 525.121 66.8232C509.783 64.2076 498.043 51.0408 497.638 35.0547L497.627 34.2012V0H531.827L532.682 0.0107422ZM636.015 34.2012L636.004 35.0547C635.599 51.0411 623.858 64.208 608.52 66.8232C624.131 69.4849 636.015 83.0786 636.015 99.4482V133.648H568.717V33.0977C568.717 15.1041 583.076 0.463853 600.96 0.0107422L601.814 0H636.015V34.2012ZM674.861 0.0107422C692.746 0.463983 707.104 15.1041 707.104 33.0977V133.648H639.807V99.4482C639.807 83.0788 651.69 69.4852 667.301 66.8232C651.963 64.2077 640.222 51.0409 639.817 35.0547L639.807 34.2012V0H674.007L674.861 0.0107422ZM778.193 34.2012L778.183 35.0547C777.778 51.0412 766.037 64.2081 750.698 66.8232C766.309 69.4848 778.193 83.0786 778.193 99.4482V133.648H710.896V33.0977C710.896 15.1042 725.254 0.464043 743.139 0.0107422L743.993 0H778.193V34.2012ZM817.04 0.0107422C834.924 0.463887 849.283 15.1041 849.283 33.0977V133.648H781.985V99.4482C781.985 83.0789 793.869 69.4853 809.479 66.8232C794.141 64.2076 782.401 51.0408 781.996 35.0547L781.985 34.2012V0H816.186L817.04 0.0107422ZM920.373 34.2012L920.362 35.0547C919.957 51.0411 908.216 64.2079 892.878 66.8232C908.489 69.4849 920.373 83.0786 920.373 99.4482V133.648H853.075V33.0977C853.075 15.1041 867.434 0.463853 885.318 0.0107422L886.173 0H920.373V34.2012ZM959.22 0.0107422C977.104 0.464046 991.463 15.1042 991.463 33.0977V133.648H924.165V99.4482C924.165 83.0788 936.048 69.4852 951.659 66.8232C936.321 64.2077 924.581 51.0409 924.176 35.0547L924.165 34.2012V0H958.365L959.22 0.0107422ZM1062.55 34.2012L1062.54 35.0547C1062.14 51.0412 1050.4 64.2081 1035.06 66.8232C1050.67 69.4848 1062.55 83.0785 1062.55 99.4482V133.648H995.254V33.0977C995.254 15.1041 1009.61 0.463916 1027.5 0.0107422L1028.35 0H1062.55V34.2012ZM1101.4 0.0107422C1119.28 0.463887 1133.64 15.1041 1133.64 33.0977V133.648H1066.34V99.4482C1066.34 83.0789 1078.23 69.4852 1093.84 66.8232C1078.5 64.2077 1066.76 51.0408 1066.35 35.0547L1066.34 34.2012V0H1100.54L1101.4 0.0107422ZM1204.73 34.2012L1204.72 35.0547C1204.32 51.0411 1192.57 64.2079 1177.24 66.8232C1192.85 69.4849 1204.73 83.0786 1204.73 99.4482V133.648H1137.43V33.0977C1137.43 15.1041 1151.79 0.463853 1169.68 0.0107422L1170.53 0H1204.73V34.2012ZM1243.58 0.0107422C1261.46 0.464078 1275.82 15.1042 1275.82 33.0977V133.648H1208.52V99.4482C1208.52 83.0789 1220.41 69.4852 1236.02 66.8232C1220.68 64.2077 1208.94 51.0409 1208.53 35.0547L1208.52 34.2012V0H1242.72L1243.58 0.0107422ZM1346.91 34.2012L1346.9 35.0547C1346.49 51.0412 1334.75 64.2081 1319.42 66.8232C1335.03 69.4848 1346.91 83.0785 1346.91 99.4482V133.648H1279.61V33.0977C1279.61 15.1041 1293.97 0.463916 1311.86 0.0107422L1312.71 0H1346.91V34.2012ZM1385.76 0.0107422C1403.64 0.463887 1418 15.1041 1418 33.0977V133.648H1350.7V99.4482C1350.7 83.0789 1362.59 69.4852 1378.2 66.8232C1362.86 64.2077 1351.12 51.0408 1350.71 35.0547L1350.7 34.2012V0H1384.9L1385.76 0.0107422ZM1 132.648H66.2979V99.4482C66.2979 81.7215 51.9278 67.3509 34.2012 67.3506H1V132.648ZM104.187 67.3506C86.4598 67.3509 72.0898 81.7215 72.0898 99.4482V132.648H137.388V67.3506H104.187ZM143.18 132.648H208.478V99.4482C208.478 81.7217 194.107 67.3512 176.381 67.3506H143.18V132.648ZM246.366 67.3506C228.64 67.3508 214.27 81.7215 214.27 99.4482V132.648H279.567V67.3506H246.366ZM285.358 132.648H350.656V99.4482C350.656 81.7215 336.286 67.3509 318.56 67.3506H285.358V132.648ZM388.545 67.3506C370.818 67.3508 356.448 81.7215 356.448 99.4482V132.648H421.746V67.3506H388.545ZM427.537 132.648H492.835V99.4482C492.835 81.7215 478.465 67.3509 460.738 67.3506H427.537V132.648ZM530.724 67.3506C512.997 67.3511 498.627 81.7216 498.627 99.4482V132.648H563.925V67.3506H530.724ZM569.717 132.648H635.015V99.4482C635.015 81.7216 620.645 67.351 602.918 67.3506H569.717V132.648ZM672.903 67.3506C655.177 67.3508 640.807 81.7215 640.807 99.4482V132.648H706.104V67.3506H672.903ZM711.896 132.648H777.193V99.4482C777.193 81.7215 762.823 67.3509 745.097 67.3506H711.896V132.648ZM815.082 67.3506C797.355 67.351 782.985 81.7216 782.985 99.4482V132.648H848.283V67.3506H815.082ZM854.075 132.648H919.373V99.4482C919.373 81.7216 905.003 67.3511 887.276 67.3506H854.075V132.648ZM957.262 67.3506C939.535 67.3508 925.165 81.7215 925.165 99.4482V132.648H990.463V67.3506H957.262ZM996.254 132.648H1061.55V99.4482C1061.55 81.7215 1047.18 67.3509 1029.46 67.3506H996.254V132.648ZM1099.44 67.3506C1081.71 67.3509 1067.34 81.7215 1067.34 99.4482V132.648H1132.64V67.3506H1099.44ZM1138.43 132.648H1203.73V99.4482C1203.73 81.7216 1189.36 67.3511 1171.63 67.3506H1138.43V132.648ZM1241.62 67.3506C1223.89 67.3509 1209.52 81.7215 1209.52 99.4482V132.648H1274.82V67.3506H1241.62ZM1280.61 132.648H1345.91V99.4482C1345.91 81.7215 1331.54 67.3509 1313.81 67.3506H1280.61V132.648ZM1383.8 67.3506C1366.07 67.3509 1351.7 81.7215 1351.7 99.4482V132.648H1417V67.3506H1383.8ZM33.0977 1C15.3707 1 1 15.3707 1 33.0977V66.2979H34.2012C51.9277 66.2976 66.2976 51.9277 66.2979 34.2012V1H33.0977ZM72.0898 34.2012C72.0901 51.9277 86.46 66.2976 104.187 66.2979H137.388V33.0977C137.388 15.3708 123.017 1.00004 105.29 1H72.0898V34.2012ZM175.277 1C157.55 1 143.18 15.3707 143.18 33.0977V66.2979H176.381C194.107 66.2973 208.477 51.9275 208.478 34.2012V1H175.277ZM214.27 34.2012C214.27 51.9277 228.64 66.2976 246.366 66.2979H279.567V33.0977C279.567 15.3709 265.196 1.0003 247.47 1H214.27V34.2012ZM317.456 1C299.729 1 285.358 15.3707 285.358 33.0977V66.2979H318.56C336.286 66.2975 350.656 51.9277 350.656 34.2012V1H317.456ZM356.448 34.2012C356.449 51.9277 370.818 66.2976 388.545 66.2979H421.746V33.0977C421.746 15.3708 407.375 1.00007 389.648 1H356.448V34.2012ZM459.635 1C441.908 1.0002 427.537 15.3709 427.537 33.0977V66.2979H460.738C478.465 66.2976 492.835 51.9277 492.835 34.2012V1H459.635ZM498.627 34.2012C498.627 51.9276 512.997 66.2974 530.724 66.2979H563.925V33.0977C563.925 15.3708 549.554 1.00004 531.827 1H498.627V34.2012ZM601.814 1C584.088 1 569.717 15.3707 569.717 33.0977V66.2979H602.918C620.644 66.2975 635.014 51.9276 635.015 34.2012V1H601.814ZM640.807 34.2012C640.807 51.9277 655.177 66.2976 672.903 66.2979H706.104V33.0977C706.104 15.3708 691.734 1.00014 674.007 1H640.807V34.2012ZM743.993 1C726.266 1.0002 711.896 15.3709 711.896 33.0977V66.2979H745.097C762.823 66.2976 777.193 51.9277 777.193 34.2012V1H743.993ZM782.985 34.2012C782.986 51.9276 797.356 66.2974 815.082 66.2979H848.283V33.0977C848.283 15.3708 833.912 1.00004 816.186 1H782.985V34.2012ZM886.173 1C868.446 1 854.075 15.3707 854.075 33.0977V66.2979H887.276C905.003 66.2974 919.373 51.9276 919.373 34.2012V1H886.173ZM925.165 34.2012C925.165 51.9277 939.535 66.2976 957.262 66.2979H990.463V33.0977C990.463 15.3709 976.092 1.0002 958.365 1H925.165V34.2012ZM1028.35 1C1010.62 1.00007 996.254 15.3708 996.254 33.0977V66.2979H1029.46C1047.18 66.2976 1061.55 51.9277 1061.55 34.2012V1H1028.35ZM1067.34 34.2012C1067.34 51.9277 1081.71 66.2975 1099.44 66.2979H1132.64V33.0977C1132.64 15.3708 1118.27 1.00004 1100.54 1H1067.34V34.2012ZM1170.53 1C1152.8 1 1138.43 15.3707 1138.43 33.0977V66.2979H1171.63C1189.36 66.2974 1203.73 51.9276 1203.73 34.2012V1H1170.53ZM1209.52 34.2012C1209.52 51.9277 1223.89 66.2976 1241.62 66.2979H1274.82V33.0977C1274.82 15.3709 1260.45 1.00024 1242.72 1H1209.52V34.2012ZM1312.71 1C1294.98 1.00007 1280.61 15.3708 1280.61 33.0977V66.2979H1313.81C1331.54 66.2976 1345.91 51.9277 1345.91 34.2012V1H1312.71ZM1351.7 34.2012C1351.7 51.9277 1366.07 66.2975 1383.8 66.2979H1417V33.0977C1417 15.3708 1402.63 1.00004 1384.9 1H1351.7V34.2012Z"
        fill="#FAFAFA" />
</svg>