<svg width="24" height="25" viewBox="0 0 24 25" fill="none" xmlns="http://www.w3.org/2000/svg">
    <path
        d="M18.9993 18.7532C18.9007 18.7535 18.8031 18.7343 18.7121 18.6965C18.6211 18.6587 18.5386 18.6032 18.4693 18.5332L4.46926 4.53319C4.32843 4.39263 4.24921 4.20188 4.24902 4.0029C4.24884 3.80392 4.3277 3.61302 4.46826 3.47219C4.60883 3.33136 4.79958 3.25214 4.99856 3.25195C5.19753 3.25177 5.38843 3.33063 5.52926 3.47119L19.5293 17.4712C19.6687 17.6123 19.747 17.8028 19.747 18.0012C19.747 18.1996 19.6687 18.3901 19.5293 18.5312C19.4601 18.6016 19.3776 18.6575 19.2866 18.6956C19.1956 18.7337 19.0979 18.7533 18.9993 18.7532Z"
        fill="#333333" />
    <path
        d="M5 15.02C4.80149 15.0187 4.61149 14.9393 4.47112 14.7989C4.33075 14.6585 4.25131 14.4685 4.25 14.27V4C4.25131 3.80149 4.33075 3.61149 4.47112 3.47112C4.61149 3.33075 4.80149 3.25131 5 3.25H15.27C15.4685 3.25131 15.6585 3.33075 15.7989 3.47112C15.9393 3.61149 16.0187 3.80149 16.02 4C16.0187 4.19851 15.9393 4.38851 15.7989 4.52888C15.6585 4.66925 15.4685 4.74869 15.27 4.75H5.75V14.27C5.74869 14.4685 5.66925 14.6585 5.52888 14.7989C5.38851 14.9393 5.19851 15.0187 5 15.02Z"
        fill="#333333" />
</svg>