<svg width="29" height="26" viewBox="0 0 29 26" fill="none" xmlns="http://www.w3.org/2000/svg">
<path d="M14.9938 3.71831C14.071 1.7216 11.6329 0.948281 9.728 2.04809C7.80932 3.15584 7.26852 5.67917 8.56471 7.47593L17.911 20.4316C18.5719 21.3478 19.8192 21.6151 20.7976 21.0502C21.7838 20.4808 22.1731 19.2534 21.6954 18.2197L14.9938 3.71831Z" fill="#003090"/>
<path d="M5.56616 13.7604C4.22591 12.8151 2.36325 13.2247 1.5432 14.645C0.717238 16.0756 1.30876 17.9067 2.8156 18.5836L13.6808 23.4651C14.4492 23.8103 15.3542 23.518 15.7754 22.7884C16.2 22.0531 15.9938 21.1153 15.2999 20.6259L5.56616 13.7604Z" fill="#003090"/>
<path d="M27.8956 5.23168C28.0975 3.60406 26.8581 2.15448 25.2189 2.10089C23.5678 2.04692 22.2319 3.43179 22.3453 5.07983L23.1626 16.9631C23.2204 17.8036 23.9049 18.4639 24.7469 18.4914C25.5955 18.5191 26.3253 17.8952 26.4298 17.0525L27.8956 5.23168Z" fill="#003090"/>
</svg>
