<svg width="1440" height="576" viewBox="0 0 1440 576" fill="none" xmlns="http://www.w3.org/2000/svg">
<path d="M43 471.082C43 488.352 30.4615 502.693 13.9912 505.5C30.1741 508.259 42.5609 522.151 42.9883 539.017L43 539.918V576H6.91797L6.0166 575.988C-12.8515 575.51 -28 560.065 -28 541.082V435H43V471.082ZM118 541.082C118 560.065 102.851 575.51 83.9834 575.988L83.082 576H47V539.918L47.0117 539.017C47.4391 522.151 59.8254 508.259 76.0078 505.5C59.538 502.692 47 488.352 47 471.082V435H118V541.082ZM193 471.082C193 488.352 180.462 502.693 163.991 505.5C180.174 508.259 192.561 522.151 192.988 539.017L193 539.918V576H156.918L156.017 575.988C137.149 575.51 122 560.065 122 541.082V435H193V471.082ZM268 541.082C268 560.065 252.851 575.51 233.983 575.988L233.082 576H197V539.918L197.012 539.017C197.439 522.151 209.825 508.259 226.008 505.5C209.538 502.692 197 488.352 197 471.082V435H268V541.082ZM343 471.082C343 488.352 330.462 502.693 313.991 505.5C330.174 508.259 342.561 522.151 342.988 539.017L343 539.918V576H306.918L306.017 575.988C287.149 575.51 272 560.065 272 541.082V435H343V471.082ZM418 541.082C418 560.065 402.851 575.51 383.983 575.988L383.082 576H347V539.918L347.012 539.017C347.439 522.151 359.825 508.259 376.008 505.5C359.538 502.692 347 488.352 347 471.082V435H418V541.082ZM493 471.082C493 488.352 480.462 502.693 463.991 505.5C480.174 508.259 492.561 522.151 492.988 539.017L493 539.918V576H456.918L456.017 575.988C437.149 575.51 422 560.065 422 541.082V435H493V471.082ZM568 541.082C568 560.065 552.851 575.51 533.983 575.988L533.082 576H497V539.918L497.012 539.017C497.439 522.151 509.825 508.259 526.008 505.5C509.538 502.692 497 488.352 497 471.082V435H568V541.082ZM643 471.082C643 488.352 630.461 502.693 613.991 505.5C630.174 508.259 642.561 522.151 642.988 539.017L643 539.918V576H606.918L606.017 575.988C587.149 575.51 572 560.065 572 541.082V435H643V471.082ZM718 541.082C718 560.065 702.851 575.51 683.983 575.988L683.082 576H647V539.918L647.012 539.017C647.439 522.151 659.825 508.259 676.008 505.5C659.538 502.692 647 488.352 647 471.082V435H718V541.082ZM793 471.082C793 488.352 780.461 502.693 763.991 505.5C780.174 508.259 792.561 522.151 792.988 539.017L793 539.918V576H756.918L756.017 575.988C737.149 575.51 722 560.065 722 541.082V435H793V471.082ZM868 541.082C868 560.065 852.851 575.51 833.983 575.988L833.082 576H797V539.918L797.012 539.017C797.439 522.151 809.825 508.259 826.008 505.5C809.538 502.692 797 488.352 797 471.082V435H868V541.082ZM943 471.082C943 488.352 930.461 502.693 913.991 505.5C930.174 508.259 942.561 522.151 942.988 539.017L943 539.918V576H906.918L906.017 575.988C887.149 575.51 872 560.065 872 541.082V435H943V471.082ZM1018 541.082C1018 560.065 1002.85 575.51 983.983 575.988L983.082 576H947V539.918L947.012 539.017C947.439 522.151 959.825 508.259 976.008 505.5C959.538 502.692 947 488.352 947 471.082V435H1018V541.082ZM1093 471.082C1093 488.352 1080.46 502.693 1063.99 505.5C1080.17 508.259 1092.56 522.151 1092.99 539.017L1093 539.918V576H1056.92L1056.02 575.988C1037.15 575.51 1022 560.065 1022 541.082V435H1093V471.082ZM1168 541.082C1168 560.065 1152.85 575.51 1133.98 575.988L1133.08 576H1097V539.918L1097.01 539.017C1097.44 522.151 1109.83 508.259 1126.01 505.5C1109.54 502.692 1097 488.352 1097 471.082V435H1168V541.082ZM1243 471.082C1243 488.352 1230.46 502.693 1213.99 505.5C1230.17 508.259 1242.56 522.151 1242.99 539.017L1243 539.918V576H1206.92L1206.02 575.988C1187.15 575.51 1172 560.065 1172 541.082V435H1243V471.082ZM1318 541.082C1318 560.065 1302.85 575.51 1283.98 575.988L1283.08 576H1247V539.918L1247.01 539.017C1247.44 522.151 1259.83 508.259 1276.01 505.5C1259.54 502.692 1247 488.352 1247 471.082V435H1318V541.082ZM1393 471.082C1393 488.352 1380.46 502.693 1363.99 505.5C1380.17 508.259 1392.56 522.151 1392.99 539.017L1393 539.918V576H1356.92L1356.02 575.988C1337.15 575.51 1322 560.065 1322 541.082V435H1393V471.082ZM1468 541.082C1468 560.065 1452.85 575.51 1433.98 575.988L1433.08 576H1397V539.918L1397.01 539.017C1397.44 522.151 1409.83 508.259 1426.01 505.5C1409.54 502.692 1397 488.352 1397 471.082V435H1468V541.082ZM-27 541.082L-26.9893 541.957C-26.5251 560.285 -11.5218 575 6.91797 575H42V539.918C42 521.186 26.8144 506 8.08203 506H-27V541.082ZM81.918 506C63.1856 506 48 521.186 48 539.918V575H83.082L83.957 574.989C102.285 574.525 117 559.522 117 541.082V506H81.918ZM123 541.082L123.011 541.957C123.475 560.285 138.478 575 156.918 575H192V539.918C192 521.186 176.814 506 158.082 506H123V541.082ZM231.918 506C213.186 506 198 521.186 198 539.918V575H233.082L233.957 574.989C252.285 574.525 267 559.522 267 541.082V506H231.918ZM273 541.082L273.011 541.957C273.475 560.285 288.478 575 306.918 575H342V539.918C342 521.186 326.814 506 308.082 506H273V541.082ZM381.918 506C363.186 506 348 521.186 348 539.918V575H383.082L383.957 574.989C402.285 574.525 417 559.522 417 541.082V506H381.918ZM423 541.082L423.011 541.957C423.475 560.285 438.478 575 456.918 575H492V539.918C492 521.186 476.814 506 458.082 506H423V541.082ZM531.918 506C513.186 506 498 521.186 498 539.918V575H533.082L533.957 574.989C552.285 574.525 567 559.522 567 541.082V506H531.918ZM573 541.082L573.011 541.957C573.475 560.285 588.478 575 606.918 575H642V539.918C642 521.186 626.814 506 608.082 506H573V541.082ZM681.918 506C663.186 506 648 521.186 648 539.918V575H683.082L683.957 574.989C702.285 574.525 717 559.522 717 541.082V506H681.918ZM723 541.082L723.011 541.957C723.475 560.285 738.478 575 756.918 575H792V539.918C792 521.186 776.814 506 758.082 506H723V541.082ZM831.918 506C813.186 506 798 521.186 798 539.918V575H833.082L833.957 574.989C852.285 574.525 867 559.522 867 541.082V506H831.918ZM873 541.082L873.011 541.957C873.475 560.285 888.478 575 906.918 575H942V539.918C942 521.186 926.814 506 908.082 506H873V541.082ZM981.918 506C963.186 506 948 521.186 948 539.918V575H983.082L983.957 574.989C1002.29 574.525 1017 559.522 1017 541.082V506H981.918ZM1023 541.082L1023.01 541.957C1023.47 560.285 1038.48 575 1056.92 575H1092V539.918C1092 521.186 1076.81 506 1058.08 506H1023V541.082ZM1131.92 506C1113.19 506 1098 521.186 1098 539.918V575H1133.08L1133.96 574.989C1152.29 574.525 1167 559.522 1167 541.082V506H1131.92ZM1173 541.082L1173.01 541.957C1173.47 560.285 1188.48 575 1206.92 575H1242V539.918C1242 521.186 1226.81 506 1208.08 506H1173V541.082ZM1281.92 506C1263.19 506 1248 521.186 1248 539.918V575H1283.08L1283.96 574.989C1302.29 574.525 1317 559.522 1317 541.082V506H1281.92ZM1323 541.082L1323.01 541.957C1323.47 560.285 1338.48 575 1356.92 575H1392V539.918C1392 521.186 1376.81 506 1358.08 506H1323V541.082ZM1431.92 506C1413.19 506 1398 521.186 1398 539.918V575H1433.08L1433.96 574.989C1452.29 574.525 1467 559.522 1467 541.082V506H1431.92ZM-27 505H8.08203L8.95703 504.989C27.285 504.525 42 489.522 42 471.082V436H-27V505ZM48 471.082C48 489.814 63.1856 505 81.918 505H117V436H48V471.082ZM123 505H158.082L158.957 504.989C177.285 504.525 192 489.522 192 471.082V436H123V505ZM198 471.082C198 489.814 213.186 505 231.918 505H267V436H198V471.082ZM273 505H308.082L308.957 504.989C327.285 504.525 342 489.522 342 471.082V436H273V505ZM348 471.082C348 489.814 363.186 505 381.918 505H417V436H348V471.082ZM423 505H458.082L458.957 504.989C477.285 504.525 492 489.522 492 471.082V436H423V505ZM498 471.082C498 489.814 513.186 505 531.918 505H567V436H498V471.082ZM573 505H608.082L608.957 504.989C627.285 504.525 642 489.522 642 471.082V436H573V505ZM648 471.082C648 489.814 663.186 505 681.918 505H717V436H648V471.082ZM723 505H758.082L758.957 504.989C777.285 504.525 792 489.522 792 471.082V436H723V505ZM798 471.082C798 489.814 813.186 505 831.918 505H867V436H798V471.082ZM873 505H908.082L908.957 504.989C927.285 504.525 942 489.522 942 471.082V436H873V505ZM948 471.082C948 489.814 963.186 505 981.918 505H1017V436H948V471.082ZM1023 505H1058.08L1058.96 504.989C1077.29 504.525 1092 489.522 1092 471.082V436H1023V505ZM1098 471.082C1098 489.814 1113.19 505 1131.92 505H1167V436H1098V471.082ZM1173 505H1208.08L1208.96 504.989C1227.29 504.525 1242 489.522 1242 471.082V436H1173V505ZM1248 471.082C1248 489.814 1263.19 505 1281.92 505H1317V436H1248V471.082ZM1323 505H1358.08L1358.96 504.989C1377.29 504.525 1392 489.522 1392 471.082V436H1323V505ZM1398 471.082C1398 489.814 1413.19 505 1431.92 505H1467V436H1398V471.082ZM43 326.082L42.9883 326.983C42.5609 343.849 30.1741 357.741 13.9912 360.5C30.4615 363.307 43 377.648 43 394.918V431H-28V324.918C-28 305.935 -12.8515 290.49 6.0166 290.012L6.91797 290H43V326.082ZM83.9834 290.012C102.851 290.49 118 305.935 118 324.918V431H47V394.918C47 377.648 59.538 363.308 76.0078 360.5C59.8254 357.741 47.4391 343.849 47.0117 326.983L47 326.082V290H83.082L83.9834 290.012ZM193 326.082L192.988 326.983C192.561 343.849 180.174 357.741 163.991 360.5C180.462 363.307 193 377.648 193 394.918V431H122V324.918C122 305.935 137.149 290.49 156.017 290.012L156.918 290H193V326.082ZM233.983 290.012C252.851 290.49 268 305.935 268 324.918V431H197V394.918C197 377.648 209.538 363.308 226.008 360.5C209.825 357.741 197.439 343.849 197.012 326.983L197 326.082V290H233.082L233.983 290.012ZM343 326.082L342.988 326.983C342.561 343.849 330.174 357.741 313.991 360.5C330.462 363.307 343 377.648 343 394.918V431H272V324.918C272 305.935 287.149 290.49 306.017 290.012L306.918 290H343V326.082ZM383.983 290.012C402.851 290.49 418 305.935 418 324.918V431H347V394.918C347 377.648 359.538 363.308 376.008 360.5C359.825 357.741 347.439 343.849 347.012 326.983L347 326.082V290H383.082L383.983 290.012ZM493 326.082L492.988 326.983C492.561 343.849 480.174 357.741 463.991 360.5C480.462 363.307 493 377.648 493 394.918V431H422V324.918C422 305.935 437.149 290.49 456.017 290.012L456.918 290H493V326.082ZM533.983 290.012C552.851 290.49 568 305.935 568 324.918V431H497V394.918C497 377.648 509.538 363.308 526.008 360.5C509.825 357.741 497.439 343.849 497.012 326.983L497 326.082V290H533.082L533.983 290.012ZM643 326.082L642.988 326.983C642.561 343.849 630.174 357.741 613.991 360.5C630.461 363.307 643 377.648 643 394.918V431H572V324.918C572 305.935 587.149 290.49 606.017 290.012L606.918 290H643V326.082ZM683.983 290.012C702.851 290.49 718 305.935 718 324.918V431H647V394.918C647 377.648 659.538 363.308 676.008 360.5C659.825 357.741 647.439 343.849 647.012 326.983L647 326.082V290H683.082L683.983 290.012ZM793 326.082L792.988 326.983C792.561 343.849 780.174 357.741 763.991 360.5C780.461 363.307 793 377.648 793 394.918V431H722V324.918C722 305.935 737.149 290.49 756.017 290.012L756.918 290H793V326.082ZM833.983 290.012C852.851 290.49 868 305.935 868 324.918V431H797V394.918C797 377.648 809.538 363.308 826.008 360.5C809.825 357.741 797.439 343.849 797.012 326.983L797 326.082V290H833.082L833.983 290.012ZM943 326.082L942.988 326.983C942.561 343.849 930.174 357.741 913.991 360.5C930.461 363.307 943 377.648 943 394.918V431H872V324.918C872 305.935 887.149 290.49 906.017 290.012L906.918 290H943V326.082ZM983.983 290.012C1002.85 290.49 1018 305.935 1018 324.918V431H947V394.918C947 377.648 959.538 363.308 976.008 360.5C959.825 357.741 947.439 343.849 947.012 326.983L947 326.082V290H983.082L983.983 290.012ZM1093 326.082L1092.99 326.983C1092.56 343.849 1080.17 357.741 1063.99 360.5C1080.46 363.307 1093 377.648 1093 394.918V431H1022V324.918C1022 305.935 1037.15 290.49 1056.02 290.012L1056.92 290H1093V326.082ZM1133.98 290.012C1152.85 290.49 1168 305.935 1168 324.918V431H1097V394.918C1097 377.648 1109.54 363.308 1126.01 360.5C1109.83 357.741 1097.44 343.849 1097.01 326.983L1097 326.082V290H1133.08L1133.98 290.012ZM1243 326.082L1242.99 326.983C1242.56 343.849 1230.17 357.741 1213.99 360.5C1230.46 363.307 1243 377.648 1243 394.918V431H1172V324.918C1172 305.935 1187.15 290.49 1206.02 290.012L1206.92 290H1243V326.082ZM1283.98 290.012C1302.85 290.49 1318 305.935 1318 324.918V431H1247V394.918C1247 377.648 1259.54 363.308 1276.01 360.5C1259.83 357.741 1247.44 343.849 1247.01 326.983L1247 326.082V290H1283.08L1283.98 290.012ZM1393 326.082L1392.99 326.983C1392.56 343.849 1380.17 357.741 1363.99 360.5C1380.46 363.307 1393 377.648 1393 394.918V431H1322V324.918C1322 305.935 1337.15 290.49 1356.02 290.012L1356.92 290H1393V326.082ZM1433.98 290.012C1452.85 290.49 1468 305.935 1468 324.918V431H1397V394.918C1397 377.648 1409.54 363.308 1426.01 360.5C1409.83 357.741 1397.44 343.849 1397.01 326.983L1397 326.082V290H1433.08L1433.98 290.012ZM-27 430H42V394.918C42 376.478 27.285 361.475 8.95703 361.011L8.08203 361H-27V430ZM81.918 361C63.1856 361 48 376.186 48 394.918V430H117V361H81.918ZM123 430H192V394.918C192 376.478 177.285 361.475 158.957 361.011L158.082 361H123V430ZM231.918 361C213.186 361 198 376.186 198 394.918V430H267V361H231.918ZM273 430H342V394.918C342 376.478 327.285 361.475 308.957 361.011L308.082 361H273V430ZM381.918 361C363.186 361 348 376.186 348 394.918V430H417V361H381.918ZM423 430H492V394.918C492 376.478 477.285 361.475 458.957 361.011L458.082 361H423V430ZM531.918 361C513.186 361 498 376.186 498 394.918V430H567V361H531.918ZM573 430H642V394.918C642 376.478 627.285 361.475 608.957 361.011L608.082 361H573V430ZM681.918 361C663.186 361 648 376.186 648 394.918V430H717V361H681.918ZM723 430H792V394.918C792 376.478 777.285 361.475 758.957 361.011L758.082 361H723V430ZM831.918 361C813.186 361 798 376.186 798 394.918V430H867V361H831.918ZM873 430H942V394.918C942 376.478 927.285 361.475 908.957 361.011L908.082 361H873V430ZM981.918 361C963.186 361 948 376.186 948 394.918V430H1017V361H981.918ZM1023 430H1092V394.918C1092 376.478 1077.29 361.475 1058.96 361.011L1058.08 361H1023V430ZM1131.92 361C1113.19 361 1098 376.186 1098 394.918V430H1167V361H1131.92ZM1173 430H1242V394.918C1242 376.478 1227.29 361.475 1208.96 361.011L1208.08 361H1173V430ZM1281.92 361C1263.19 361 1248 376.186 1248 394.918V430H1317V361H1281.92ZM1323 430H1392V394.918C1392 376.478 1377.29 361.475 1358.96 361.011L1358.08 361H1323V430ZM1431.92 361C1413.19 361 1398 376.186 1398 394.918V430H1467V361H1431.92ZM6.91797 291C-11.5218 291 -26.5251 305.715 -26.9893 324.043L-27 324.918V360H8.08203C26.8144 360 42 344.814 42 326.082V291H6.91797ZM48 326.082C48 344.814 63.1856 360 81.918 360H117V324.918C117 306.478 102.285 291.475 83.957 291.011L83.082 291H48V326.082ZM156.918 291C138.478 291 123.475 305.715 123.011 324.043L123 324.918V360H158.082C176.814 360 192 344.814 192 326.082V291H156.918ZM198 326.082C198 344.814 213.186 360 231.918 360H267V324.918C267 306.478 252.285 291.475 233.957 291.011L233.082 291H198V326.082ZM306.918 291C288.478 291 273.475 305.715 273.011 324.043L273 324.918V360H308.082C326.814 360 342 344.814 342 326.082V291H306.918ZM348 326.082C348 344.814 363.186 360 381.918 360H417V324.918C417 306.478 402.285 291.475 383.957 291.011L383.082 291H348V326.082ZM456.918 291C438.478 291 423.475 305.715 423.011 324.043L423 324.918V360H458.082C476.814 360 492 344.814 492 326.082V291H456.918ZM498 326.082C498 344.814 513.186 360 531.918 360H567V324.918C567 306.478 552.285 291.475 533.957 291.011L533.082 291H498V326.082ZM606.918 291C588.478 291 573.475 305.715 573.011 324.043L573 324.918V360H608.082C626.814 360 642 344.814 642 326.082V291H606.918ZM648 326.082C648 344.814 663.186 360 681.918 360H717V324.918C717 306.478 702.285 291.475 683.957 291.011L683.082 291H648V326.082ZM756.918 291C738.478 291 723.475 305.715 723.011 324.043L723 324.918V360H758.082C776.814 360 792 344.814 792 326.082V291H756.918ZM798 326.082C798 344.814 813.186 360 831.918 360H867V324.918C867 306.478 852.285 291.475 833.957 291.011L833.082 291H798V326.082ZM906.918 291C888.478 291 873.475 305.715 873.011 324.043L873 324.918V360H908.082C926.814 360 942 344.814 942 326.082V291H906.918ZM948 326.082C948 344.814 963.186 360 981.918 360H1017V324.918C1017 306.478 1002.29 291.475 983.957 291.011L983.082 291H948V326.082ZM1056.92 291C1038.48 291 1023.47 305.715 1023.01 324.043L1023 324.918V360H1058.08C1076.81 360 1092 344.814 1092 326.082V291H1056.92ZM1098 326.082C1098 344.814 1113.19 360 1131.92 360H1167V324.918C1167 306.478 1152.29 291.475 1133.96 291.011L1133.08 291H1098V326.082ZM1206.92 291C1188.48 291 1173.47 305.715 1173.01 324.043L1173 324.918V360H1208.08C1226.81 360 1242 344.814 1242 326.082V291H1206.92ZM1248 326.082C1248 344.814 1263.19 360 1281.92 360H1317V324.918C1317 306.478 1302.29 291.475 1283.96 291.011L1283.08 291H1248V326.082ZM1356.92 291C1338.48 291 1323.47 305.715 1323.01 324.043L1323 324.918V360H1358.08C1376.81 360 1392 344.814 1392 326.082V291H1356.92ZM1398 326.082C1398 344.814 1413.19 360 1431.92 360H1467V324.918C1467 306.478 1452.29 291.475 1433.96 291.011L1433.08 291H1398V326.082ZM43 181.082C43 198.352 30.4615 212.692 13.9912 215.5C30.1741 218.259 42.5609 232.151 42.9883 249.017L43 249.918V286H6.91797L6.0166 285.988C-12.8515 285.51 -28 270.065 -28 251.082V145H43V181.082ZM118 251.082C118 270.065 102.851 285.51 83.9834 285.988L83.082 286H47V249.918L47.0117 249.017C47.4391 232.151 59.8254 218.259 76.0078 215.5C59.538 212.692 47 198.352 47 181.082V145H118V251.082ZM193 181.082C193 198.352 180.462 212.692 163.991 215.5C180.174 218.259 192.561 232.151 192.988 249.017L193 249.918V286H156.918L156.017 285.988C137.149 285.51 122 270.065 122 251.082V145H193V181.082ZM268 251.082C268 270.065 252.851 285.51 233.983 285.988L233.082 286H197V249.918L197.012 249.017C197.439 232.151 209.825 218.259 226.008 215.5C209.538 212.692 197 198.352 197 181.082V145H268V251.082ZM343 181.082C343 198.352 330.462 212.692 313.991 215.5C330.174 218.259 342.561 232.151 342.988 249.017L343 249.918V286H306.918L306.017 285.988C287.149 285.51 272 270.065 272 251.082V145H343V181.082ZM418 251.082C418 270.065 402.851 285.51 383.983 285.988L383.082 286H347V249.918L347.012 249.017C347.439 232.151 359.825 218.259 376.008 215.5C359.538 212.692 347 198.352 347 181.082V145H418V251.082ZM493 181.082C493 198.352 480.462 212.692 463.991 215.5C480.174 218.259 492.561 232.151 492.988 249.017L493 249.918V286H456.918L456.017 285.988C437.149 285.51 422 270.065 422 251.082V145H493V181.082ZM568 251.082C568 270.065 552.851 285.51 533.983 285.988L533.082 286H497V249.918L497.012 249.017C497.439 232.151 509.825 218.259 526.008 215.5C509.538 212.692 497 198.352 497 181.082V145H568V251.082ZM643 181.082C643 198.352 630.461 212.692 613.991 215.5C630.174 218.259 642.561 232.151 642.988 249.017L643 249.918V286H606.918L606.017 285.988C587.149 285.51 572 270.065 572 251.082V145H643V181.082ZM718 251.082C718 270.065 702.851 285.51 683.983 285.988L683.082 286H647V249.918L647.012 249.017C647.439 232.151 659.825 218.259 676.008 215.5C659.538 212.692 647 198.352 647 181.082V145H718V251.082ZM793 181.082C793 198.352 780.461 212.692 763.991 215.5C780.174 218.259 792.561 232.151 792.988 249.017L793 249.918V286H756.918L756.017 285.988C737.149 285.51 722 270.065 722 251.082V145H793V181.082ZM868 251.082C868 270.065 852.851 285.51 833.983 285.988L833.082 286H797V249.918L797.012 249.017C797.439 232.151 809.825 218.259 826.008 215.5C809.538 212.692 797 198.352 797 181.082V145H868V251.082ZM943 181.082C943 198.352 930.461 212.692 913.991 215.5C930.174 218.259 942.561 232.151 942.988 249.017L943 249.918V286H906.918L906.017 285.988C887.149 285.51 872 270.065 872 251.082V145H943V181.082ZM1018 251.082C1018 270.065 1002.85 285.51 983.983 285.988L983.082 286H947V249.918L947.012 249.017C947.439 232.151 959.825 218.259 976.008 215.5C959.538 212.692 947 198.352 947 181.082V145H1018V251.082ZM1093 181.082C1093 198.352 1080.46 212.692 1063.99 215.5C1080.17 218.259 1092.56 232.151 1092.99 249.017L1093 249.918V286H1056.92L1056.02 285.988C1037.15 285.51 1022 270.065 1022 251.082V145H1093V181.082ZM1168 251.082C1168 270.065 1152.85 285.51 1133.98 285.988L1133.08 286H1097V249.918L1097.01 249.017C1097.44 232.151 1109.83 218.259 1126.01 215.5C1109.54 212.692 1097 198.352 1097 181.082V145H1168V251.082ZM1243 181.082C1243 198.352 1230.46 212.692 1213.99 215.5C1230.17 218.259 1242.56 232.151 1242.99 249.017L1243 249.918V286H1206.92L1206.02 285.988C1187.15 285.51 1172 270.065 1172 251.082V145H1243V181.082ZM1318 251.082C1318 270.065 1302.85 285.51 1283.98 285.988L1283.08 286H1247V249.918L1247.01 249.017C1247.44 232.151 1259.83 218.259 1276.01 215.5C1259.54 212.692 1247 198.352 1247 181.082V145H1318V251.082ZM1393 181.082C1393 198.352 1380.46 212.692 1363.99 215.5C1380.17 218.259 1392.56 232.151 1392.99 249.017L1393 249.918V286H1356.92L1356.02 285.988C1337.15 285.51 1322 270.065 1322 251.082V145H1393V181.082ZM1468 251.082C1468 270.065 1452.85 285.51 1433.98 285.988L1433.08 286H1397V249.918L1397.01 249.017C1397.44 232.151 1409.83 218.259 1426.01 215.5C1409.54 212.692 1397 198.352 1397 181.082V145H1468V251.082ZM-27 251.082L-26.9893 251.957C-26.5251 270.285 -11.5218 285 6.91797 285H42V249.918C42 231.186 26.8144 216 8.08203 216H-27V251.082ZM81.918 216C63.1856 216 48 231.186 48 249.918V285H83.082L83.957 284.989C102.285 284.525 117 269.522 117 251.082V216H81.918ZM123 251.082L123.011 251.957C123.475 270.285 138.478 285 156.918 285H192V249.918C192 231.186 176.814 216 158.082 216H123V251.082ZM231.918 216C213.186 216 198 231.186 198 249.918V285H233.082L233.957 284.989C252.285 284.525 267 269.522 267 251.082V216H231.918ZM273 251.082L273.011 251.957C273.475 270.285 288.478 285 306.918 285H342V249.918C342 231.186 326.814 216 308.082 216H273V251.082ZM381.918 216C363.186 216 348 231.186 348 249.918V285H383.082L383.957 284.989C402.285 284.525 417 269.522 417 251.082V216H381.918ZM423 251.082L423.011 251.957C423.475 270.285 438.478 285 456.918 285H492V249.918C492 231.186 476.814 216 458.082 216H423V251.082ZM531.918 216C513.186 216 498 231.186 498 249.918V285H533.082L533.957 284.989C552.285 284.525 567 269.522 567 251.082V216H531.918ZM573 251.082L573.011 251.957C573.475 270.285 588.478 285 606.918 285H642V249.918C642 231.186 626.814 216 608.082 216H573V251.082ZM681.918 216C663.186 216 648 231.186 648 249.918V285H683.082L683.957 284.989C702.285 284.525 717 269.522 717 251.082V216H681.918ZM723 251.082L723.011 251.957C723.475 270.285 738.478 285 756.918 285H792V249.918C792 231.186 776.814 216 758.082 216H723V251.082ZM831.918 216C813.186 216 798 231.186 798 249.918V285H833.082L833.957 284.989C852.285 284.525 867 269.522 867 251.082V216H831.918ZM873 251.082L873.011 251.957C873.475 270.285 888.478 285 906.918 285H942V249.918C942 231.186 926.814 216 908.082 216H873V251.082ZM981.918 216C963.186 216 948 231.186 948 249.918V285H983.082L983.957 284.989C1002.29 284.525 1017 269.522 1017 251.082V216H981.918ZM1023 251.082L1023.01 251.957C1023.47 270.285 1038.48 285 1056.92 285H1092V249.918C1092 231.186 1076.81 216 1058.08 216H1023V251.082ZM1131.92 216C1113.19 216 1098 231.186 1098 249.918V285H1133.08L1133.96 284.989C1152.29 284.525 1167 269.522 1167 251.082V216H1131.92ZM1173 251.082L1173.01 251.957C1173.47 270.285 1188.48 285 1206.92 285H1242V249.918C1242 231.186 1226.81 216 1208.08 216H1173V251.082ZM1281.92 216C1263.19 216 1248 231.186 1248 249.918V285H1283.08L1283.96 284.989C1302.29 284.525 1317 269.522 1317 251.082V216H1281.92ZM1323 251.082L1323.01 251.957C1323.47 270.285 1338.48 285 1356.92 285H1392V249.918C1392 231.186 1376.81 216 1358.08 216H1323V251.082ZM1431.92 216C1413.19 216 1398 231.186 1398 249.918V285H1433.08L1433.96 284.989C1452.29 284.525 1467 269.522 1467 251.082V216H1431.92ZM-27 215H8.08203L8.95703 214.989C27.285 214.525 42 199.522 42 181.082V146H-27V215ZM48 181.082C48 199.814 63.1856 215 81.918 215H117V146H48V181.082ZM123 215H158.082L158.957 214.989C177.285 214.525 192 199.522 192 181.082V146H123V215ZM198 181.082C198 199.814 213.186 215 231.918 215H267V146H198V181.082ZM273 215H308.082L308.957 214.989C327.285 214.525 342 199.522 342 181.082V146H273V215ZM348 181.082C348 199.814 363.186 215 381.918 215H417V146H348V181.082ZM423 215H458.082L458.957 214.989C477.285 214.525 492 199.522 492 181.082V146H423V215ZM498 181.082C498 199.814 513.186 215 531.918 215H567V146H498V181.082ZM573 215H608.082L608.957 214.989C627.285 214.525 642 199.522 642 181.082V146H573V215ZM648 181.082C648 199.814 663.186 215 681.918 215H717V146H648V181.082ZM723 215H758.082L758.957 214.989C777.285 214.525 792 199.522 792 181.082V146H723V215ZM798 181.082C798 199.814 813.186 215 831.918 215H867V146H798V181.082ZM873 215H908.082L908.957 214.989C927.285 214.525 942 199.522 942 181.082V146H873V215ZM948 181.082C948 199.814 963.186 215 981.918 215H1017V146H948V181.082ZM1023 215H1058.08L1058.96 214.989C1077.29 214.525 1092 199.522 1092 181.082V146H1023V215ZM1098 181.082C1098 199.814 1113.19 215 1131.92 215H1167V146H1098V181.082ZM1173 215H1208.08L1208.96 214.989C1227.29 214.525 1242 199.522 1242 181.082V146H1173V215ZM1248 181.082C1248 199.814 1263.19 215 1281.92 215H1317V146H1248V181.082ZM1323 215H1358.08L1358.96 214.989C1377.29 214.525 1392 199.522 1392 181.082V146H1323V215ZM1398 181.082C1398 199.814 1413.19 215 1431.92 215H1467V146H1398V181.082ZM43 36.082L42.9883 36.9834C42.5609 53.8495 30.1741 67.7415 13.9912 70.5C30.4615 73.3075 43 87.6475 43 104.918V141H-28V34.918C-28 15.9347 -12.8515 0.489844 6.0166 0.0117188L6.91797 0H43V36.082ZM83.9834 0.0117188C102.851 0.489844 118 15.9347 118 34.918V141H47V104.918C47 87.6479 59.538 73.3079 76.0078 70.5C59.8254 67.7411 47.4391 53.8491 47.0117 36.9834L47 36.082V0H83.082L83.9834 0.0117188ZM193 36.082L192.988 36.9834C192.561 53.8495 180.174 67.7415 163.991 70.5C180.462 73.3075 193 87.6475 193 104.918V141H122V34.918C122 15.9347 137.149 0.489844 156.017 0.0117188L156.918 0H193V36.082ZM233.983 0.0117188C252.851 0.489844 268 15.9347 268 34.918V141H197V104.918C197 87.6479 209.538 73.3079 226.008 70.5C209.825 67.7411 197.439 53.8491 197.012 36.9834L197 36.082V0H233.082L233.983 0.0117188ZM343 36.082L342.988 36.9834C342.561 53.8495 330.174 67.7415 313.991 70.5C330.462 73.3075 343 87.6475 343 104.918V141H272V34.918C272 15.9347 287.149 0.489844 306.017 0.0117188L306.918 0H343V36.082ZM383.983 0.0117188C402.851 0.489844 418 15.9347 418 34.918V141H347V104.918C347 87.6479 359.538 73.3079 376.008 70.5C359.825 67.7411 347.439 53.8491 347.012 36.9834L347 36.082V0H383.082L383.983 0.0117188ZM493 36.082L492.988 36.9834C492.561 53.8495 480.174 67.7415 463.991 70.5C480.462 73.3075 493 87.6475 493 104.918V141H422V34.918C422 15.9347 437.149 0.489844 456.017 0.0117188L456.918 0H493V36.082ZM533.983 0.0117188C552.851 0.489844 568 15.9347 568 34.918V141H497V104.918C497 87.6479 509.538 73.3079 526.008 70.5C509.825 67.7411 497.439 53.8491 497.012 36.9834L497 36.082V0H533.082L533.983 0.0117188ZM643 36.082L642.988 36.9834C642.561 53.8495 630.174 67.7415 613.991 70.5C630.461 73.3075 643 87.6475 643 104.918V141H572V34.918C572 15.9347 587.149 0.489844 606.017 0.0117188L606.918 0H643V36.082ZM683.983 0.0117188C702.851 0.489844 718 15.9347 718 34.918V141H647V104.918C647 87.6479 659.538 73.3079 676.008 70.5C659.825 67.7411 647.439 53.8491 647.012 36.9834L647 36.082V0H683.082L683.983 0.0117188ZM793 36.082L792.988 36.9834C792.561 53.8495 780.174 67.7415 763.991 70.5C780.461 73.3075 793 87.6475 793 104.918V141H722V34.918C722 15.9347 737.149 0.489844 756.017 0.0117188L756.918 0H793V36.082ZM833.983 0.0117188C852.851 0.489844 868 15.9347 868 34.918V141H797V104.918C797 87.6479 809.538 73.3079 826.008 70.5C809.825 67.7411 797.439 53.8491 797.012 36.9834L797 36.082V0H833.082L833.983 0.0117188ZM943 36.082L942.988 36.9834C942.561 53.8495 930.174 67.7415 913.991 70.5C930.461 73.3075 943 87.6475 943 104.918V141H872V34.918C872 15.9347 887.149 0.489844 906.017 0.0117188L906.918 0H943V36.082ZM983.983 0.0117188C1002.85 0.489844 1018 15.9347 1018 34.918V141H947V104.918C947 87.6479 959.538 73.3079 976.008 70.5C959.825 67.7411 947.439 53.8491 947.012 36.9834L947 36.082V0H983.082L983.983 0.0117188ZM1093 36.082L1092.99 36.9834C1092.56 53.8495 1080.17 67.7415 1063.99 70.5C1080.46 73.3075 1093 87.6475 1093 104.918V141H1022V34.918C1022 15.9347 1037.15 0.489844 1056.02 0.0117188L1056.92 0H1093V36.082ZM1133.98 0.0117188C1152.85 0.489844 1168 15.9347 1168 34.918V141H1097V104.918C1097 87.6479 1109.54 73.3079 1126.01 70.5C1109.83 67.7411 1097.44 53.8491 1097.01 36.9834L1097 36.082V0H1133.08L1133.98 0.0117188ZM1243 36.082L1242.99 36.9834C1242.56 53.8495 1230.17 67.7415 1213.99 70.5C1230.46 73.3075 1243 87.6475 1243 104.918V141H1172V34.918C1172 15.9347 1187.15 0.489844 1206.02 0.0117188L1206.92 0H1243V36.082ZM1283.98 0.0117188C1302.85 0.489844 1318 15.9347 1318 34.918V141H1247V104.918C1247 87.6479 1259.54 73.3079 1276.01 70.5C1259.83 67.7411 1247.44 53.8491 1247.01 36.9834L1247 36.082V0H1283.08L1283.98 0.0117188ZM1393 36.082L1392.99 36.9834C1392.56 53.8495 1380.17 67.7415 1363.99 70.5C1380.46 73.3075 1393 87.6475 1393 104.918V141H1322V34.918C1322 15.9347 1337.15 0.489844 1356.02 0.0117188L1356.92 0H1393V36.082ZM1433.98 0.0117188C1452.85 0.489844 1468 15.9347 1468 34.918V141H1397V104.918C1397 87.6479 1409.54 73.3079 1426.01 70.5C1409.83 67.7411 1397.44 53.8491 1397.01 36.9834L1397 36.082V0H1433.08L1433.98 0.0117188ZM-27 140H42V104.918C42 86.4781 27.285 71.4749 8.95703 71.0107L8.08203 71H-27V140ZM81.918 71C63.1856 71 48 86.1856 48 104.918V140H117V71H81.918ZM123 140H192V104.918C192 86.4781 177.285 71.4749 158.957 71.0107L158.082 71H123V140ZM231.918 71C213.186 71 198 86.1856 198 104.918V140H267V71H231.918ZM273 140H342V104.918C342 86.4781 327.285 71.4749 308.957 71.0107L308.082 71H273V140ZM381.918 71C363.186 71 348 86.1856 348 104.918V140H417V71H381.918ZM423 140H492V104.918C492 86.4781 477.285 71.4749 458.957 71.0107L458.082 71H423V140ZM531.918 71C513.186 71 498 86.1856 498 104.918V140H567V71H531.918ZM573 140H642V104.918C642 86.4781 627.285 71.4749 608.957 71.0107L608.082 71H573V140ZM681.918 71C663.186 71 648 86.1856 648 104.918V140H717V71H681.918ZM723 140H792V104.918C792 86.4781 777.285 71.4749 758.957 71.0107L758.082 71H723V140ZM831.918 71C813.186 71 798 86.1856 798 104.918V140H867V71H831.918ZM873 140H942V104.918C942 86.4781 927.285 71.4749 908.957 71.0107L908.082 71H873V140ZM981.918 71C963.186 71 948 86.1856 948 104.918V140H1017V71H981.918ZM1023 140H1092V104.918C1092 86.4781 1077.29 71.4749 1058.96 71.0107L1058.08 71H1023V140ZM1131.92 71C1113.19 71 1098 86.1856 1098 104.918V140H1167V71H1131.92ZM1173 140H1242V104.918C1242 86.4781 1227.29 71.4749 1208.96 71.0107L1208.08 71H1173V140ZM1281.92 71C1263.19 71 1248 86.1856 1248 104.918V140H1317V71H1281.92ZM1323 140H1392V104.918C1392 86.4781 1377.29 71.4749 1358.96 71.0107L1358.08 71H1323V140ZM1431.92 71C1413.19 71 1398 86.1856 1398 104.918V140H1467V71H1431.92ZM6.91797 1C-11.5218 1.00003 -26.5251 15.715 -26.9893 34.043L-27 34.918V70H8.08203C26.8144 70 42 54.8144 42 36.082V1H6.91797ZM48 36.082C48 54.8144 63.1856 70 81.918 70H117V34.918C117 16.4782 102.285 1.47488 83.957 1.01074L83.082 1H48V36.082ZM156.918 1C138.478 1.00003 123.475 15.715 123.011 34.043L123 34.918V70H158.082C176.814 70 192 54.8144 192 36.082V1H156.918ZM198 36.082C198 54.8144 213.186 70 231.918 70H267V34.918C267 16.4782 252.285 1.47488 233.957 1.01074L233.082 1H198V36.082ZM306.918 1C288.478 1.00003 273.475 15.715 273.011 34.043L273 34.918V70H308.082C326.814 70 342 54.8144 342 36.082V1H306.918ZM348 36.082C348 54.8144 363.186 70 381.918 70H417V34.918C417 16.4782 402.285 1.47488 383.957 1.01074L383.082 1H348V36.082ZM456.918 1C438.478 1.00003 423.475 15.715 423.011 34.043L423 34.918V70H458.082C476.814 70 492 54.8144 492 36.082V1H456.918ZM498 36.082C498 54.8144 513.186 70 531.918 70H567V34.918C567 16.4782 552.285 1.47488 533.957 1.01074L533.082 1H498V36.082ZM606.918 1C588.478 1.00003 573.475 15.715 573.011 34.043L573 34.918V70H608.082C626.814 70 642 54.8144 642 36.082V1H606.918ZM648 36.082C648 54.8144 663.186 70 681.918 70H717V34.918C717 16.4782 702.285 1.47488 683.957 1.01074L683.082 1H648V36.082ZM756.918 1C738.478 1.00003 723.475 15.715 723.011 34.043L723 34.918V70H758.082C776.814 70 792 54.8144 792 36.082V1H756.918ZM798 36.082C798 54.8144 813.186 70 831.918 70H867V34.918C867 16.4782 852.285 1.47488 833.957 1.01074L833.082 1H798V36.082ZM906.918 1C888.478 1.00003 873.475 15.715 873.011 34.043L873 34.918V70H908.082C926.814 70 942 54.8144 942 36.082V1H906.918ZM948 36.082C948 54.8144 963.186 70 981.918 70H1017V34.918C1017 16.4782 1002.29 1.47488 983.957 1.01074L983.082 1H948V36.082ZM1056.92 1C1038.48 1.00003 1023.47 15.715 1023.01 34.043L1023 34.918V70H1058.08C1076.81 70 1092 54.8144 1092 36.082V1H1056.92ZM1098 36.082C1098 54.8144 1113.19 70 1131.92 70H1167V34.918C1167 16.4782 1152.29 1.47488 1133.96 1.01074L1133.08 1H1098V36.082ZM1206.92 1C1188.48 1.00003 1173.47 15.715 1173.01 34.043L1173 34.918V70H1208.08C1226.81 70 1242 54.8144 1242 36.082V1H1206.92ZM1248 36.082C1248 54.8144 1263.19 70 1281.92 70H1317V34.918C1317 16.4782 1302.29 1.47488 1283.96 1.01074L1283.08 1H1248V36.082ZM1356.92 1C1338.48 1.00003 1323.47 15.715 1323.01 34.043L1323 34.918V70H1358.08C1376.81 70 1392 54.8144 1392 36.082V1H1356.92ZM1398 36.082C1398 54.8144 1413.19 70 1431.92 70H1467V34.918C1467 16.4782 1452.29 1.47488 1433.96 1.01074L1433.08 1H1398V36.082Z" fill="url(#paint0_linear_4_8260)"/>
<defs>
<linearGradient id="paint0_linear_4_8260" x1="720" y1="0" x2="720" y2="686.5" gradientUnits="userSpaceOnUse">
<stop stop-color="#F8F8F8"/>
<stop offset="1" stop-color="white"/>
</linearGradient>
</defs>
</svg>
