<svg width="138" height="128" viewBox="0 0 138 128" fill="none" xmlns="http://www.w3.org/2000/svg">
<path d="M137.359 61.5184V127.308L38.6914 87.3584V21.5684L77.9614 65.2244L137.359 61.5184Z" fill="white"/>
<path d="M137.359 127.513C137.325 127.513 137.325 127.513 137.291 127.513L38.6235 87.5286C38.5555 87.4946 38.5215 87.4266 38.5215 87.3586V21.5686C38.5215 21.5006 38.5555 21.4326 38.6575 21.3986C38.7255 21.3646 38.8275 21.3986 38.8615 21.4666L78.0635 65.0546L137.359 61.3486C137.461 61.3486 137.563 61.4166 137.563 61.5186C137.563 61.5186 137.563 61.5186 137.563 61.5526V127.309C137.563 127.377 137.529 127.445 137.495 127.479C137.461 127.513 137.393 127.513 137.359 127.513ZM38.8615 87.2226L137.155 127.037V61.7226L77.9615 65.4286C77.8935 65.4286 77.8595 65.4286 77.8255 65.3606L38.8615 22.0786V87.2226Z" fill="#333333"/>
<path d="M137.359 61.5186L38.6914 21.5686L91.9694 4.05859L137.359 61.5186Z" fill="white"/>
<path d="M137.359 61.7225H137.291L38.6228 21.7385C38.5548 21.7045 38.4868 21.6365 38.5208 21.5685C38.5208 21.5005 38.5888 21.4325 38.6568 21.3985L91.9348 3.92252C92.0028 3.88852 92.1048 3.92252 92.1388 3.99052L137.563 61.4505C137.631 61.5185 137.631 61.6205 137.563 61.6885C137.495 61.6885 137.427 61.7225 137.359 61.7225ZM39.2348 21.5685L136.747 61.0765L91.8668 4.26252L39.2348 21.5685Z" fill="#333333"/>
<path d="M137.359 61.5184L77.9614 65.2244L38.6914 21.5684L137.359 61.5184Z" fill="#003090"/>
<path d="M77.9612 65.4287C77.8932 65.4287 77.8592 65.3947 77.8252 65.3607L38.5552 21.6707C38.4872 21.6027 38.4872 21.4667 38.5892 21.3987C38.6572 21.3647 38.7252 21.3307 38.7932 21.3647L137.427 61.3487C137.529 61.3487 137.597 61.4507 137.597 61.5527C137.597 61.6547 137.495 61.7227 137.393 61.7227L77.9612 65.4287ZM39.3712 22.0447L78.0292 65.0207L136.509 61.3827L39.3712 22.0447Z" fill="#333333"/>
<path d="M137.358 127.512C137.29 127.512 137.222 127.478 137.188 127.444L93.7363 64.3403C93.6683 64.2383 93.7023 64.1363 93.7703 64.0683C93.8723 64.0003 93.9743 64.0343 94.0423 64.1023L137.494 127.206C137.562 127.308 137.528 127.41 137.46 127.478C137.426 127.512 137.392 127.512 137.358 127.512Z" fill="#333333"/>
<path d="M38.6906 87.5284C38.6566 87.5284 38.6226 87.5284 38.5886 87.4944C38.5206 87.4264 38.4866 87.3244 38.5546 87.2224L66.1286 52.1004C66.1966 52.0324 66.2986 51.9984 66.4006 52.0664C66.4686 52.1344 66.5026 52.2364 66.4346 52.3384L38.8606 87.4604C38.8266 87.5284 38.7586 87.5284 38.6906 87.5284Z" fill="#333333"/>
<path d="M58.0371 20.9225C60.6551 18.1685 62.3551 18.2365 64.1231 17.1485C65.9251 16.0605 66.9111 14.3605 66.1631 13.8165C65.4491 13.2385 64.2251 13.8165 64.2251 13.8165L66.4351 12.2865C66.4351 12.2865 62.8991 9.83853 59.1931 13.7145C57.4931 15.5165 57.0511 16.9785 55.2831 17.7605C53.5151 18.5425 58.0371 20.9225 58.0371 20.9225Z" fill="white"/>
<path d="M58.0382 21.1269C58.0042 21.1269 57.9702 21.1269 57.9362 21.0929C57.3922 20.7869 54.6382 19.2569 54.6722 18.2029C54.7062 17.8969 54.9102 17.6589 55.1822 17.5569C56.2702 17.0809 56.8482 16.3329 57.5622 15.3469C58.0042 14.7009 58.5142 14.1229 59.0242 13.5449C60.9962 11.4709 62.9002 11.1989 64.1922 11.3009C65.0082 11.3689 65.8242 11.6409 66.5042 12.0489C66.5382 12.0829 66.5722 12.1509 66.5722 12.2189C66.5722 12.2869 66.5382 12.3549 66.5042 12.3889L65.1442 13.3409C65.5522 13.3069 65.9602 13.4089 66.2662 13.6129C66.5042 13.7829 66.6062 14.0889 66.5722 14.3609C66.5382 15.2449 65.5182 16.4689 64.1922 17.2849C63.6482 17.5909 63.0702 17.8969 62.4582 18.1009C60.7922 18.7129 59.2962 19.6989 58.1062 21.0249C58.1402 21.0929 58.1062 21.1269 58.0382 21.1269ZM63.7162 11.7089C62.4922 11.7089 60.9282 12.1849 59.3302 13.8509C58.8202 14.3949 58.3102 15.0069 57.8682 15.6189C57.1542 16.5709 56.5082 17.4209 55.3522 17.9309C55.0802 18.0669 55.0462 18.2029 55.0462 18.2369C55.0122 18.8489 56.7802 20.0389 57.9702 20.7189C59.1942 19.4269 60.6902 18.4409 62.3222 17.8289C62.9002 17.5909 63.4442 17.3529 63.9882 17.0469C65.3822 16.1969 66.1642 15.0749 66.1982 14.4289C66.2322 14.2589 66.1642 14.0889 66.0282 13.9869C65.3822 13.5109 64.2602 13.9869 64.2602 13.9869C64.1582 14.0209 64.0562 13.9869 64.0222 13.9189C63.9882 13.8509 63.9882 13.7149 64.0902 13.6809L66.0622 12.3209C65.3482 11.9129 64.5322 11.7089 63.7162 11.7089Z" fill="#333333"/>
<path d="M61.5402 14.9725C61.4722 14.9725 61.4042 14.9385 61.3702 14.8705C61.3362 14.7685 61.3702 14.6665 61.4722 14.6325C62.3562 14.2245 63.2742 13.8845 64.1922 13.6465C64.2942 13.6125 64.3962 13.6805 64.4302 13.7825C64.4642 13.8845 64.3962 13.9865 64.2942 14.0205C63.3762 14.2585 62.4922 14.5645 61.6422 14.9725C61.6082 14.9725 61.5742 14.9725 61.5402 14.9725Z" fill="#333333"/>
<path d="M73.0654 56.2146C73.1334 56.8946 72.9294 57.6086 72.5214 58.1526L71.8754 57.4046C71.2974 57.1326 70.6514 57.0986 70.0394 57.3026C69.0534 57.6426 65.8914 57.9486 64.1574 56.7926C64.1574 56.7926 63.1714 52.7126 61.6074 51.7946C64.3954 49.9586 67.6934 46.5586 68.9514 46.5586C70.2094 46.5586 68.7474 48.7346 68.7474 48.7346C68.7474 48.7346 70.6174 48.2586 71.9434 49.3466C73.2694 50.4346 72.7594 51.2166 72.7594 51.2166C72.7594 51.2166 74.3574 52.3046 73.4394 53.9366C73.4734 53.9366 74.5274 55.1266 73.0654 56.2146Z" fill="white"/>
<path d="M72.5227 58.3566C72.4547 58.3566 72.4207 58.3226 72.3867 58.2886L71.7747 57.5746C71.2647 57.3366 70.6527 57.3026 70.1087 57.4726C69.0887 57.8126 65.8927 58.1526 64.0907 56.9286C64.0567 56.8946 64.0227 56.8606 64.0227 56.8266C64.0227 56.7926 63.0367 52.8146 61.5747 51.9646C61.5067 51.9306 61.4727 51.8626 61.4727 51.7946C61.4727 51.7266 61.5067 51.6586 61.5747 51.6246C62.7647 50.8086 63.9207 49.9246 65.0087 48.9726C66.7427 47.5446 68.2046 46.3206 69.0206 46.3206C69.2587 46.2866 69.5307 46.4226 69.6327 46.6266C69.8707 47.1026 69.4627 47.9186 69.1906 48.4286C70.2107 48.2586 71.2647 48.5306 72.1147 49.1426C73.2027 50.0606 73.1347 50.8086 73.0327 51.1146C73.4067 51.4206 74.4267 52.4406 73.7127 53.8686C73.9507 54.2086 74.0867 54.6166 74.0527 55.0246C73.9847 55.5346 73.7127 55.9766 73.3047 56.2486C73.3387 56.9626 73.1347 57.6426 72.6927 58.2206C72.6247 58.3226 72.5907 58.3566 72.5227 58.3566ZM70.8227 56.9966C71.2307 56.9966 71.6387 57.0986 71.9787 57.2686C72.0127 57.2686 72.0127 57.3026 72.0467 57.3026L72.5227 57.8806C72.7947 57.4046 72.9307 56.8266 72.8967 56.2486C72.8967 56.1806 72.9307 56.1126 72.9647 56.0786C73.3387 55.8406 73.5767 55.4666 73.6447 55.0586C73.6787 54.7186 73.5427 54.3446 73.3387 54.0726C73.2707 54.0046 73.2707 53.9366 73.3047 53.8686C74.1207 52.4066 72.7267 51.4546 72.6587 51.4206C72.5907 51.3526 72.5567 51.2506 72.5907 51.1486C72.5907 51.1146 72.9647 50.4686 71.8087 49.5166C70.5847 48.4966 68.7827 48.9386 68.7827 48.9386C68.7147 48.9726 68.6127 48.9386 68.5787 48.8706C68.5447 48.8026 68.5447 48.7346 68.5787 48.6666C68.9527 48.1226 69.3947 47.2046 69.2247 46.8986C69.2247 46.8646 69.1567 46.7966 68.9187 46.7966C68.2387 46.7966 66.7087 48.0546 65.1107 49.3466C64.0567 50.2306 62.9347 51.1146 61.8807 51.8626C63.2407 52.9506 64.0907 56.1806 64.2607 56.7246C65.9607 57.8126 68.9867 57.4726 69.9047 57.1666C70.2447 57.0306 70.5167 56.9626 70.8227 56.9966Z" fill="#333333"/>
<path d="M65.5868 50.2646C65.4848 50.2646 65.3828 50.1966 65.3828 50.0606C65.3828 49.9926 65.4168 49.9246 65.4848 49.8906C66.5048 49.3466 67.5928 48.8706 68.7148 48.4966C68.8168 48.4626 68.9188 48.5306 68.9528 48.6326C68.9868 48.7346 68.9188 48.8366 68.8168 48.8706C67.7288 49.2446 66.6748 49.6866 65.6548 50.2306C65.6548 50.2986 65.6208 50.2986 65.5868 50.2646Z" fill="#333333"/>
<path d="M72.7934 51.3867C72.7594 51.3867 72.7254 51.3867 72.6914 51.3527C71.9774 50.8767 71.1614 50.6047 70.3114 50.5027C70.2094 50.5027 70.1074 50.4347 70.1074 50.2987C70.1074 50.1627 70.1754 50.0947 70.3114 50.0947C71.2294 50.1627 72.1134 50.5027 72.8954 51.0127C72.9634 51.0807 72.9974 51.1827 72.9294 51.2847C72.8954 51.3527 72.8274 51.3867 72.7934 51.3867Z" fill="#333333"/>
<path d="M73.4742 54.1409C73.4402 54.1409 73.3722 54.1409 73.3382 54.1069C73.3382 54.1069 71.8422 52.8489 70.7542 52.6109C70.6522 52.5769 70.5842 52.4749 70.6182 52.3729C70.6522 52.2709 70.7542 52.2029 70.8562 52.2369C72.0462 52.4749 73.5422 53.7329 73.6102 53.8009C73.6782 53.8689 73.7122 53.9709 73.6442 54.0729C73.5762 54.1069 73.5422 54.1409 73.4742 54.1409Z" fill="#333333"/>
<path d="M73.0668 56.3849C72.9988 56.3849 72.9308 56.3509 72.8968 56.2829C72.4888 55.6029 71.9108 55.0249 71.1968 54.6169C71.0948 54.5829 71.0608 54.4809 71.0948 54.3789C71.1288 54.2769 71.2308 54.2429 71.3328 54.2769C71.3328 54.2769 71.3328 54.2769 71.3668 54.2769C72.1488 54.7189 72.7948 55.3309 73.2368 56.1129C73.3048 56.2149 73.2708 56.3169 73.1688 56.3849C73.1348 56.3849 73.1008 56.3849 73.0668 56.3849Z" fill="#333333"/>
<path d="M44.7431 117.653H29.2051C29.2051 117.653 29.6471 110.615 28.8651 106.773C28.4911 104.937 26.3831 101.945 24.0031 98.3067L17.4071 117.653H0.203125L9.48512 74.8467L9.96112 72.6367L40.9351 76.1387C40.9351 76.1387 41.1391 76.8867 41.4451 78.1107C42.6691 83.0747 45.7971 96.0287 46.2731 101.775C46.8171 108.949 44.7431 117.653 44.7431 117.653Z" fill="white"/>
<path d="M44.744 117.857H29.206C29.138 117.857 29.104 117.823 29.07 117.789C29.036 117.755 29.002 117.687 29.036 117.653C29.036 117.585 29.478 110.581 28.696 106.841C28.39 105.345 26.826 102.999 25.058 100.245C24.752 99.7689 24.412 99.2929 24.106 98.7829L17.612 117.755C17.578 117.823 17.51 117.891 17.442 117.891H0.204001C0.102001 117.891 0.034 117.823 0 117.721V117.687L9.758 72.7049C9.792 72.6029 9.86 72.5349 9.962 72.5689L40.902 76.0709C40.97 76.0709 41.038 76.1389 41.072 76.2069C41.072 76.2069 41.276 76.9549 41.582 78.1789C42.874 83.3809 45.934 96.1309 46.41 101.843C46.988 108.949 44.948 117.653 44.914 117.755C44.88 117.789 44.812 117.857 44.744 117.857ZM29.376 117.483H44.574C44.846 116.327 46.58 108.371 46.036 101.809C45.56 96.0969 42.5 83.3809 41.208 78.1789C40.97 77.2269 40.8 76.5809 40.732 76.3429L10.064 72.8749L9.622 74.9149L0.408 117.449H17.238L23.8 98.2389C23.834 98.1709 23.868 98.1369 23.97 98.1029C24.038 98.1029 24.106 98.1369 24.14 98.2049L25.296 100.007C27.166 102.897 28.696 105.209 29.002 106.739C29.75 110.207 29.444 116.293 29.376 117.483Z" fill="#333333"/>
<path d="M59.2274 22.861C58.6494 24.731 51.4755 33.435 48.3815 34.319C45.2875 35.169 42.3974 35.985 42.3974 35.985L47.6674 40.235V54.481L48.2454 54.855C46.5454 54.651 44.8455 54.243 43.2474 53.631L42.6694 75.357C42.6015 77.227 41.3094 78.825 39.4734 79.233C34.0674 80.457 22.2354 81.851 9.99545 75.187C8.73745 74.507 7.92145 73.215 7.85345 71.787C7.41145 63.015 6.35745 31.123 15.1974 27.009C25.4654 22.215 37.1274 25.683 42.2954 23.779C47.4634 21.875 52.2234 15.789 54.6714 16.163C57.1194 16.503 59.8054 20.991 59.2274 22.861Z" fill="#003090"/>
<path d="M23.359 27.8247C21.557 27.5187 20.163 27.5187 19.075 27.7907C18.973 27.8247 18.871 27.7567 18.837 27.6547C18.803 27.5527 18.871 27.4507 18.973 27.4167C20.095 27.1447 21.523 27.1447 23.359 27.4507C23.461 27.4847 23.529 27.5527 23.529 27.6547C23.529 27.7567 23.461 27.8247 23.359 27.8247Z" fill="#333333"/>
<path d="M42.3975 36.1887C42.3635 36.1887 42.2955 36.1547 42.2615 36.1547C42.2275 36.1207 37.2975 31.8027 32.7755 30.4087L31.3475 29.9667L30.7015 29.7627C30.5995 29.7287 30.5315 29.6267 30.5655 29.5247C30.5995 29.4227 30.7015 29.3547 30.8035 29.3887L31.4495 29.5927L32.8775 30.0347C37.5015 31.4627 42.4655 35.8147 42.4995 35.8827C42.5675 35.9507 42.6015 36.0527 42.5335 36.1547C42.4995 36.1547 42.4655 36.1887 42.3975 36.1887Z" fill="#333333"/>
<path d="M36.142 12.2187C36.142 12.2187 38.862 10.3487 38.692 7.56069C38.522 4.77269 36.006 0.55669 33.932 0.28469C32.436 0.14869 30.94 0.250689 29.478 0.556689C29.478 0.556689 24.174 0.284691 21.998 2.80069C19.822 5.31669 19.958 7.08469 19.958 7.08469C19.958 7.08469 15.674 9.36269 16.116 14.0207C16.558 18.6787 20.74 23.3707 23.358 24.3227C25.976 25.2747 28.152 26.1247 28.152 26.1247L36.142 12.2187Z" fill="white"/>
<path d="M28.1522 26.3628C28.1182 26.3628 28.1182 26.3628 28.0842 26.3628C28.0502 26.3628 25.8402 25.4788 23.2902 24.5268C20.7062 23.5748 16.3882 18.8828 15.9462 14.0548C15.5382 9.73676 19.1422 7.39076 19.7882 6.98276C19.7882 6.54076 19.9922 4.90876 21.8622 2.66476C24.0042 0.148756 29.0022 0.318756 29.4442 0.352756C30.9062 0.0127556 32.4362 -0.0892429 33.9322 0.0807571C36.1082 0.386757 38.6922 4.70476 38.8622 7.56076C39.0322 10.2808 36.6182 12.1168 36.2782 12.3548L28.3222 26.2948C28.2882 26.3288 28.2202 26.3628 28.1522 26.3628ZM29.0022 0.726755C27.7102 0.726755 23.8342 0.896755 22.1342 2.93676C20.0602 5.38476 20.1282 7.08476 20.1282 7.08476C20.1282 7.15276 20.0942 7.22076 20.0262 7.25476C19.9922 7.28876 15.8442 9.49876 16.2862 13.9868C16.7282 18.4748 20.8422 23.2008 23.3922 24.1188C25.5682 24.9348 27.5062 25.6828 28.0502 25.8868L35.9722 12.0828C35.9722 12.0488 36.0062 12.0488 36.0402 12.0148C36.0742 11.9808 38.6922 10.1448 38.4882 7.52675C38.2842 4.90875 35.8362 0.692757 33.8982 0.420757C32.4362 0.284757 30.9742 0.386756 29.5122 0.692756C29.4782 0.692756 29.4782 0.692756 29.4442 0.692756C29.4782 0.726756 29.2742 0.726755 29.0022 0.726755Z" fill="#333333"/>
<path d="M38.1814 18.6107C37.9434 19.5627 36.6854 19.4267 36.6854 19.4267C36.6854 19.4267 38.1814 26.9067 30.7694 25.6147V29.5587C28.3554 28.7427 25.8734 28.0967 23.3574 27.6207V24.3567C23.6294 24.4247 29.1374 25.9207 30.3614 20.9907C30.3614 20.9907 27.5394 19.1207 28.6954 16.9447C29.8174 14.7687 31.7554 17.8967 31.7554 17.8967C31.7554 17.8967 32.0274 13.2387 32.8774 12.2867C33.7274 11.3347 35.1894 11.3007 36.0734 10.1787C36.2094 10.7907 36.3454 11.3687 36.4474 11.9127C36.5154 12.3887 36.5834 12.8307 36.6514 13.2387C36.8554 14.5987 36.9234 15.9247 36.9234 17.2847C36.9574 17.3187 38.4194 17.6587 38.1814 18.6107Z" fill="white"/>
<path d="M30.8043 29.763H30.7363C28.3223 28.947 25.8403 28.301 23.3243 27.825C23.2223 27.825 23.1543 27.723 23.1543 27.655V24.391C23.1543 24.289 23.2563 24.187 23.3923 24.221C23.4263 24.221 23.4263 24.221 23.4603 24.221C23.7323 24.289 26.2823 24.935 28.2203 23.813C29.2063 23.201 29.9203 22.249 30.1583 21.127C29.6143 20.753 27.4723 18.951 28.5263 16.945C28.8323 16.367 29.2063 16.095 29.6483 16.061C30.4303 16.027 31.2123 16.877 31.6203 17.421C31.7223 16.163 32.0283 13.001 32.7763 12.219C33.2183 11.777 33.7623 11.437 34.3403 11.233C34.9863 10.995 35.5303 10.621 36.0063 10.111C36.0403 10.043 36.1083 10.043 36.2103 10.043C36.2783 10.043 36.3463 10.111 36.3463 10.179C36.4823 10.757 36.6183 11.335 36.7203 11.947C36.7883 12.423 36.8563 12.865 36.9243 13.273C37.0943 14.565 37.1963 15.891 37.1963 17.217C37.6383 17.319 38.0123 17.591 38.2843 17.931C38.4203 18.135 38.4543 18.407 38.3863 18.679C38.2163 19.427 37.4683 19.631 36.9243 19.665C37.0603 20.481 37.2983 23.167 35.7343 24.765C34.7143 25.819 33.0823 26.193 30.9743 25.853V29.559C30.9743 29.627 30.9403 29.661 30.9063 29.695C30.9063 29.729 30.8383 29.763 30.8043 29.763ZM23.5623 27.451C25.9423 27.927 28.2883 28.539 30.6003 29.287V25.615C30.6003 25.547 30.6343 25.513 30.6683 25.479C30.7023 25.445 30.7703 25.411 30.8383 25.445C32.9463 25.819 34.5103 25.479 35.4623 24.493C37.1623 22.759 36.5163 19.529 36.5163 19.495C36.4823 19.393 36.5503 19.291 36.6863 19.257H36.7203C36.7543 19.257 37.8083 19.359 38.0123 18.577C38.0463 18.441 38.0463 18.271 37.9443 18.135C37.6723 17.829 37.3323 17.625 36.9243 17.523C36.8223 17.489 36.7883 17.421 36.7883 17.319C36.7883 15.959 36.7203 14.633 36.5163 13.307C36.4483 12.899 36.3803 12.457 36.3123 11.981C36.2443 11.505 36.1423 11.063 36.0403 10.587C35.5983 10.995 35.0543 11.301 34.5103 11.539C33.9663 11.743 33.4903 12.049 33.0823 12.457C32.4023 13.205 32.0623 16.673 31.9943 17.965C31.9943 18.033 31.9263 18.101 31.8583 18.135C31.7903 18.169 31.6883 18.135 31.6543 18.067C31.3483 17.591 30.4303 16.401 29.7163 16.435C29.4103 16.435 29.1383 16.673 28.9343 17.115C27.8803 19.121 30.5323 20.889 30.5323 20.889C30.6003 20.923 30.6343 21.025 30.6003 21.093C30.3283 22.351 29.5463 23.473 28.4583 24.153C26.6563 25.207 24.3443 24.833 23.5963 24.663V27.451H23.5623Z" fill="#333333"/>
<path d="M33.8649 13.2047C34.1029 12.9667 34.3749 12.7967 34.6469 12.6947C34.9529 12.5587 35.2929 12.5246 35.6329 12.5586C35.9729 12.5926 36.2789 12.6947 36.5509 12.8647C36.6869 12.9327 36.8229 13.0347 36.9249 13.1707C37.0269 13.2727 37.1289 13.4087 37.2309 13.5107C37.2989 13.5787 37.2989 13.7146 37.1969 13.7826C37.1289 13.8506 37.0269 13.8506 36.9589 13.7826C36.7209 13.6466 36.5169 13.5106 36.2789 13.4086C36.0409 13.3066 35.8029 13.2387 35.5649 13.2047C35.3269 13.1707 35.0549 13.2046 34.8169 13.2726C34.5789 13.3406 34.3069 13.4087 34.0689 13.5447C33.9669 13.5787 33.8649 13.5446 33.8309 13.4766C33.7969 13.3406 33.7969 13.2727 33.8649 13.2047Z" fill="#333333"/>
<path d="M35.9046 14.9728C35.8706 15.4488 35.5646 15.7888 35.2246 15.7888C34.8846 15.7548 34.6806 15.3468 34.7146 14.8708C34.7146 14.7348 34.7486 14.5988 34.8166 14.4968L35.3606 14.8368L35.1566 14.1228C35.2246 14.0888 35.2926 14.0548 35.3946 14.0888C35.7006 14.0888 35.9386 14.4628 35.9046 14.9728Z" fill="#333333"/>
<path d="M34.6461 21.8747C33.4221 21.8747 32.9801 20.5827 32.9121 19.9027C32.9121 19.8007 32.9801 19.6987 33.0821 19.6987C33.1841 19.6987 33.2861 19.7667 33.2861 19.8687C33.2861 19.9367 33.4221 21.5347 34.7141 21.5007C34.8161 21.5007 34.8841 21.5687 34.9181 21.6367V21.6707C34.9181 21.7727 34.8501 21.8747 34.7481 21.8747H34.6461Z" fill="#333333"/>
<path d="M37.4006 7.18652C37.3326 8.61452 36.1426 10.2125 36.1426 10.2125L37.4006 7.18652Z" fill="white"/>
<path d="M36.1418 10.3826C36.1078 10.3826 36.0738 10.3826 36.0398 10.3486C35.9718 10.2806 35.9378 10.1786 36.0058 10.0766C36.0058 10.0766 37.1618 8.5466 37.2298 7.1866C37.2298 7.0846 37.2978 7.0166 37.3998 7.0166C37.3998 7.0166 37.3998 7.0166 37.4338 7.0166C37.5358 7.0166 37.6038 7.1186 37.6038 7.2206C37.5358 8.6826 36.3458 10.2466 36.3118 10.3146C36.2438 10.3486 36.1758 10.3826 36.1418 10.3826Z" fill="#333333"/>
<path d="M47.6335 40.2349C47.6335 40.2349 58.0715 50.0949 61.8455 50.0949C61.8455 50.0949 66.3335 53.3589 65.6195 56.8269C64.9056 60.2949 58.2415 59.7169 54.0595 58.9009C49.8435 58.0509 41.7516 55.3649 41.7516 55.3649L40.9355 47.5109L47.6335 40.2349Z" fill="#003090"/>
<path d="M41.7175 53.5626C41.6835 53.5626 41.6495 53.5626 41.6495 53.5286C36.0395 50.9106 30.0895 45.9126 31.7895 40.4046C31.8235 40.3026 31.9255 40.2346 32.0275 40.2686C32.1295 40.3026 32.1975 40.4046 32.1635 40.5066C30.5315 45.7766 36.3455 50.6386 41.8195 53.1886C41.9215 53.2226 41.9555 53.3586 41.9215 53.4266C41.8535 53.5286 41.7855 53.5626 41.7175 53.5626Z" fill="#333333"/>
<path d="M24.0042 98.5107C23.9362 98.5107 23.8682 98.4767 23.8342 98.4087C21.0462 94.0907 18.3262 89.3987 17.2042 84.5027C17.1702 84.4007 17.2382 84.2987 17.3402 84.2647C17.4422 84.2307 17.5442 84.2987 17.5782 84.4007C18.7002 89.2627 21.3862 93.8867 24.1742 98.2047C24.2422 98.2727 24.2082 98.4087 24.1402 98.4767C24.0722 98.5107 24.0382 98.5107 24.0042 98.5107Z" fill="#333333"/>
<path d="M17.374 117.857H0.204001C0.102001 117.857 0 117.789 0 117.653C0 117.517 0.0680008 117.449 0.204001 117.449H17.408C17.51 117.449 17.612 117.517 17.612 117.653C17.612 117.789 17.476 117.857 17.374 117.857Z" fill="#333333"/>
<path d="M46.9208 34.9308C46.8188 34.9308 46.7168 34.8628 46.7168 34.7608C46.7168 34.6588 46.7848 34.5568 46.8868 34.5568C51.8508 33.4688 55.5568 27.7908 55.5908 27.7568C55.6588 27.6548 55.7608 27.6548 55.8628 27.6888C55.9648 27.7568 55.9648 27.8588 55.9308 27.9608C55.7608 28.1988 52.0888 33.8088 46.9888 34.9308H46.9208Z" fill="#333333"/>
</svg>
