<svg
                                width="278"
                                height="178"
                                viewBox="0 0 278 178"
                                fill="none"
                                xmlns="http://www.w3.org/2000/svg"
                            >
                                <path
                                    d="M0 139C0 62.2324 62.2324 0 139 0C215.768 0 278 62.2324 278 139V170C278 174.418 274.418 178 270 178H8.00001C3.58173 178 0 174.418 0 170V139Z"
                                    fill="white"
                                />
                                <path
                                    d="M170.365 34.7752C175.289 41.8241 169.515 53.2521 176.822 58.5534C183.934 63.7139 192.671 55.2552 199.373 59.6973C209.317 66.2869 207.501 96.4397 192.963 115.174C188.592 120.808 184.939 123.001 183.321 129.372C179.847 143.055 192.056 151.194 189.733 157.96C184.501 173.197 104.043 185.983 71.7595 140.191C56.6818 118.805 54.4259 87.9226 67.8973 64.4674C92.24 22.0842 159.316 18.9588 170.365 34.7752Z"
                                    fill="#F8F8F8"
                                />
                                <path
                                    fill-rule="evenodd"
                                    clip-rule="evenodd"
                                    d="M146.732 157.202C143.785 156.388 144.55 146.481 141.374 147.674C138.198 148.868 146.631 156.277 129.63 158.481C112.629 160.685 93.7072 155.931 93.4991 142.945C93.2909 129.96 83.5818 131.867 79.3047 122.641C75.0276 113.415 82.5346 107.708 83.7231 101.43C84.9112 95.1516 77.3241 95.0543 82.4067 83.6077C87.4899 72.1614 96.9302 71.8859 99.5156 69.5527C102.1 67.2195 94.4324 61.025 102.188 49.9947C109.943 38.9647 125.628 37.964 135.404 39.6461C145.181 41.3281 150.633 45.2359 163.377 40.7037C176.122 36.1714 193.096 44.7224 195.137 58.4955C197.178 72.2684 198.065 75.2931 208.257 80.7642C218.45 86.235 223.271 98.8715 217.208 112.213C211.144 125.555 200.253 122.688 197.964 132.286C195.674 141.885 190.41 147.827 176.068 151.302C161.726 154.777 160.423 148.509 157.959 151.106C155.494 153.702 149.679 158.016 146.732 157.202Z"
                                    fill="#003090"
                                />
                                <path
                                    fill-rule="evenodd"
                                    clip-rule="evenodd"
                                    d="M109.792 74.5565C105.031 74.4484 99.9908 75.4576 95.8855 77.6861C91.9237 79.832 88.8278 83.105 87.6251 87.569C85.8545 94.1464 88.085 101.306 93.0912 105.444C88.0368 111.97 86.153 121.232 91.0512 128.173C93.9047 132.215 99.6609 133.964 105.352 133.615C106.974 133.516 108.587 133.248 110.122 132.815C109.276 133.772 108.522 134.763 107.905 135.751C105.51 139.59 105.222 143.361 109.002 145.245C113.033 147.254 118.012 147.57 123.054 146.613C123.347 146.839 123.651 147.051 123.96 147.25C123.725 148.193 123.418 149.07 123.189 149.872C122.751 151.393 122.611 152.685 123.281 153.692C123.918 154.652 125.368 155.431 128.345 155.803C128.695 155.845 129.017 155.596 129.061 155.244C129.106 154.892 128.857 154.572 128.505 154.53C127.231 154.369 126.276 154.147 125.571 153.857C124.975 153.612 124.581 153.329 124.35 152.983C124.138 152.663 124.079 152.292 124.096 151.886C124.116 151.381 124.251 150.827 124.423 150.226C124.63 149.505 124.888 148.726 125.109 147.893C126.83 148.735 128.724 149.117 130.59 148.801C134.134 148.205 135.919 146.099 137.327 143.918C137.979 142.906 138.544 141.88 139.189 141.012C139.766 140.232 140.405 139.58 141.27 139.237C144.161 138.079 147.663 138.753 151.288 139.302C151.72 139.366 152.151 139.43 152.582 139.489C151.804 144.753 150.385 149.724 149.679 152.004C149.576 152.341 149.764 152.702 150.104 152.806C150.441 152.912 150.803 152.722 150.906 152.384C151.625 150.063 153.056 145.007 153.849 139.649C156.891 139.989 159.94 139.996 162.754 138.743C163.813 138.274 164.748 137.503 165.548 136.55C165.772 136.764 166.001 136.961 166.235 137.135C171.496 141.08 180.161 141.115 185.579 137.38C188.869 135.116 189.898 133.07 189.805 131.49C189.763 130.737 189.48 130.063 189.027 129.483C189.084 129.458 189.129 129.433 189.164 129.415C194.85 126.406 198.774 120.691 196.309 114.197C195.112 111.039 193.456 109.127 191.537 107.983C191.251 107.816 190.961 107.663 190.666 107.525C190.909 107.421 191.152 107.325 191.397 107.236C193.227 106.557 195.076 106.245 196.741 106.804C197.302 106.991 197.816 107.471 198.334 108.052C199.237 109.064 200.11 110.387 201.033 111.414C202.249 112.775 203.58 113.596 205.063 113.103C205.462 112.968 205.841 112.607 206.117 111.984C206.566 110.968 206.801 109.109 206.799 106.808C206.794 101.632 205.644 94.1513 203.538 89.3317C202.581 87.1405 201.407 85.4898 200.093 84.7519C196.455 82.7052 191.304 82.8044 186.894 84.5279C186.769 84.0896 186.618 83.6603 186.439 83.2525C185.673 81.5025 184.413 80.0905 182.543 79.4557C182.102 79.3044 181.628 79.2081 181.14 79.1609C180.609 78.6185 180.032 78.1538 179.409 77.7794C180.512 75.1736 181.065 71.9448 181.071 68.6787C181.076 64.7522 180.295 60.7718 178.781 57.7581C177.732 55.6662 176.327 54.0341 174.603 53.1547C169.198 50.3857 163.462 52.6614 158.81 55.7536C158.368 55.4657 157.902 55.1995 157.412 54.9538C154.487 53.4868 150.78 52.7793 147.578 52.6476C147.005 52.2566 146.408 51.9167 145.788 51.6317C142.756 50.2266 139.173 50.0615 135.235 51.2593C133.335 51.839 130.76 52.9671 128.715 54.497C128.389 54.7377 128.078 54.9921 127.786 55.2535C127.295 54.8074 126.793 54.32 126.262 53.8287C124.461 52.1544 122.373 50.4732 119.624 50.1431C117.778 49.921 115.624 50.2984 113.05 51.728C103.465 57.0517 103.607 67.7432 109.792 74.5565ZM146.07 133.962C145.246 134.27 144.424 134.481 143.61 134.577C140.872 137.998 137.111 140.956 132.927 143.139C130.546 144.379 128.032 145.37 125.497 146.052C125.471 146.25 125.438 146.443 125.403 146.636C126.952 147.443 128.676 147.822 130.376 147.537C134.136 146.903 135.607 144.288 137.001 142.009C138.066 140.271 139.112 138.718 140.793 138.043C143.88 136.81 147.615 137.446 151.481 138.031C151.905 138.097 152.333 138.161 152.759 138.219C152.914 136.993 153.03 135.765 153.089 134.557C150.656 136.12 148.332 135.446 146.07 133.962ZM128.116 128.876C126.413 127.56 123.989 126.541 122.946 126.48C121.627 126.403 119.984 126.95 118.263 127.877C116.912 129.544 115.03 130.872 112.863 131.834C111.337 133.265 109.978 134.854 108.995 136.432C107.069 139.521 106.533 142.585 109.575 144.098C113.112 145.862 117.414 146.228 121.821 145.539C120.371 144.1 119.269 142.339 118.752 140.528C118.005 137.9 118.373 136.615 119.627 134.285C119.842 133.889 120.203 132.955 120.433 132.517C120.549 132.302 120.667 132.163 120.74 132.104C120.891 131.981 121.04 131.949 121.158 131.944C121.323 131.939 121.476 131.989 121.611 132.104C121.693 132.175 121.863 132.351 121.863 132.739C121.863 134.423 122.684 136.134 123.521 137.893C124.436 139.813 125.382 141.779 125.566 143.791C125.594 144.097 125.604 144.401 125.601 144.699C127.897 144.043 130.171 143.129 132.332 142.001C136.013 140.081 139.369 137.543 141.93 134.607C141.248 134.55 140.581 134.404 139.929 134.161C138.1 133.482 137.596 131.379 138.078 128.975C138.132 128.709 138.199 128.435 138.274 128.164C137.901 128.001 137.529 127.881 137.155 127.812C134.883 127.392 132.394 128.236 130.293 129.017C130.255 129.03 130.22 129.045 130.185 129.059C131.044 130.08 131.354 131.179 130.85 132.197C130.574 132.754 130.211 133.061 129.848 133.206C129.433 133.373 128.992 133.346 128.586 133.152C127.683 132.723 126.938 131.365 127.4 130.004C127.533 129.626 127.76 129.237 128.116 128.876ZM120.859 134.693C120.824 134.769 120.788 134.836 120.758 134.893C119.697 136.867 119.355 137.952 119.989 140.176C120.521 142.049 121.757 143.876 123.366 145.253C123.682 145.187 123.996 145.116 124.309 145.041C124.328 144.67 124.324 144.293 124.288 143.907C124.119 142.042 123.214 140.226 122.365 138.445C121.76 137.179 121.184 135.926 120.859 134.693ZM189.066 108.281C186.985 109.356 185.038 110.7 183.5 111.675C183.115 111.92 182.712 112.203 182.303 112.522C182.724 115.139 182.203 117.734 181.078 120.045C182.05 121.134 182.554 122.433 182.389 123.905C182.071 126.78 178.405 127.725 176.644 125.544C175.466 126.482 174.184 127.23 172.873 127.732C171.511 128.253 170.116 128.512 168.775 128.45C168.645 129.817 168.29 131.352 167.707 132.824C167.335 133.769 166.87 134.685 166.318 135.514C166.542 135.737 166.77 135.934 167.003 136.109C171.854 139.75 179.849 139.771 184.85 136.326C187.576 134.446 188.597 132.876 188.522 131.564C188.487 130.953 188.197 130.432 187.77 129.996C186.365 130.515 184.256 131.152 182.829 131.069C182.119 131.027 181.556 130.808 181.204 130.433C180.936 130.143 180.768 129.756 180.768 129.242C180.768 128.395 181.228 127.796 181.992 127.449C182.598 127.176 183.425 127.074 184.322 127.159C185.576 127.277 186.968 127.754 188.022 128.527C188.275 128.421 188.463 128.334 188.559 128.282C193.675 125.575 197.322 120.495 195.106 114.653C194.037 111.835 192.589 110.107 190.878 109.088C190.302 108.744 189.693 108.479 189.066 108.281ZM162.984 125.353C162.251 126.195 161.368 126.899 160.42 127.402C159.777 127.742 159.105 127.99 158.431 128.128C157.302 130.237 155.954 132.083 154.403 133.512C154.369 135.102 154.231 136.748 154.023 138.384C156.828 138.704 159.638 138.726 162.232 137.572C163.171 137.154 163.989 136.457 164.683 135.598C163.598 134.24 162.739 132.473 162.412 130.7C162.082 128.909 162.28 127.122 163.275 125.712C163.175 125.598 163.079 125.477 162.984 125.353ZM164.206 126.656C163.529 127.755 163.423 129.116 163.674 130.467C163.94 131.907 164.602 133.349 165.452 134.501C165.867 133.827 166.221 133.098 166.516 132.35C167.059 130.981 167.396 129.549 167.511 128.289C166.323 128.043 165.204 127.512 164.206 126.656ZM152.875 129.159C151.514 130.574 150.067 131.786 148.588 132.703C148.222 132.932 147.855 133.14 147.486 133.33C149.274 134.332 151.106 134.613 153.035 133.005L153.13 132.924C153.134 131.618 153.055 130.356 152.88 129.185L152.875 129.159ZM139.438 128.789C139.401 128.937 139.367 129.083 139.339 129.23C139.154 130.143 139.117 131.01 139.313 131.713C139.473 132.293 139.804 132.749 140.376 132.961C141.214 133.272 142.079 133.39 142.962 133.348C143.245 132.977 143.514 132.603 143.77 132.221C142.527 131.185 141.296 130.075 140.061 129.204C139.852 129.06 139.645 128.918 139.438 128.789ZM144.756 133.029L144.741 133.052L144.786 133.04L144.771 133.029L144.763 133.022L144.756 133.029ZM148.224 122.516C148.196 123.235 148.14 123.942 148.059 124.628C147.767 127.165 146.848 129.628 145.458 131.937L145.56 132.017C145.782 132.187 146.002 132.354 146.225 132.515C146.789 132.262 147.352 131.96 147.911 131.614C149.528 130.609 151.106 129.234 152.563 127.616C152.122 125.907 151.391 124.48 150.238 123.532C149.669 123.065 149.002 122.721 148.224 122.516ZM94.1151 106.218C89.3869 112.312 87.5256 120.951 92.1005 127.432C94.7211 131.144 100.046 132.655 105.271 132.335C107.658 132.188 110.03 131.661 112.124 130.769C113.564 129.433 115.137 128.233 116.689 127.297C116.934 127.149 117.177 127.009 117.42 126.874C117.627 126.603 117.821 126.32 117.998 126.028C118.948 124.452 119.66 122.783 120.238 121.062C120.175 120.477 120.191 119.877 120.274 119.269C118.373 119.323 116.425 119.126 114.548 118.685C109.032 117.383 104.141 113.987 102.713 108.865C101.943 108.89 101.194 108.855 100.486 108.745C98.0817 108.378 95.9427 107.487 94.1151 106.218ZM129.07 129.734C128.912 129.889 128.789 130.052 128.702 130.219C128.397 130.809 128.559 131.444 128.888 131.804C129.01 131.939 129.152 132.047 129.306 132.035C129.467 132.021 129.582 131.87 129.699 131.629C129.876 131.275 129.82 130.905 129.642 130.54C129.51 130.267 129.313 129.998 129.07 129.734ZM154.391 127.451C154.245 127.628 154.099 127.8 153.953 127.972C154.202 129.133 154.342 130.391 154.389 131.71C155.316 130.706 156.15 129.538 156.898 128.25C156.475 128.229 156.058 128.158 155.655 128.038C155.219 127.904 154.795 127.713 154.391 127.451ZM146.951 122.312C145.977 122.247 144.864 122.358 143.595 122.661C142.937 122.821 142.263 123.432 141.63 124.238C140.916 125.149 140.274 126.32 139.829 127.526C140.152 127.717 140.477 127.927 140.798 128.153C142.017 129.012 143.234 130.1 144.461 131.124C145.699 129.025 146.517 126.787 146.784 124.479C146.867 123.777 146.922 123.051 146.951 122.312ZM186.496 129.092C185.775 128.732 184.957 128.508 184.204 128.437C183.558 128.376 182.961 128.42 182.526 128.619C182.25 128.741 182.054 128.937 182.054 129.242C182.054 129.541 182.256 129.676 182.53 129.737C182.867 129.814 183.28 129.808 183.73 129.755C184.616 129.656 185.626 129.38 186.496 129.092ZM130.477 127.586C130.291 127.605 130.103 127.619 129.914 127.631C129.478 127.657 129.043 127.666 128.612 127.653C128.815 127.799 129.011 127.949 129.2 128.103C129.395 127.999 129.612 127.904 129.848 127.818C130.054 127.739 130.264 127.661 130.477 127.586ZM175.997 118.441C173.287 117.521 170.014 117.228 167.338 117.646C166.393 117.794 165.519 118.023 164.786 118.352C164.806 118.432 164.828 118.512 164.849 118.592C165.351 120.604 164.851 122.615 163.789 124.278C163.907 124.443 164.028 124.601 164.15 124.751C164.502 124.446 164.91 124.175 165.375 123.938C166.106 123.562 166.722 123.537 167.219 123.715C167.931 123.975 168.464 124.713 168.693 125.828C168.773 126.219 168.817 126.665 168.827 127.149C170.001 127.213 171.223 126.988 172.417 126.531C173.655 126.059 174.869 125.345 175.978 124.446C175.049 122.509 175.207 120.429 175.997 118.441ZM160.832 114.904C160.428 116.561 159.835 118.25 159.085 119.908C158.047 122.202 156.712 124.436 155.194 126.438C155.46 126.598 155.739 126.723 156.029 126.811C156.534 126.964 157.065 127.006 157.597 126.959C158.333 125.504 158.963 123.927 159.49 122.288C160.233 119.97 160.766 117.519 161.082 115.09C161.001 115.026 160.916 114.965 160.832 114.904ZM167.543 126.956C167.526 126.643 167.491 126.353 167.437 126.085C167.319 125.508 167.151 125.058 166.782 124.923C166.558 124.843 166.289 124.911 165.961 125.078C165.619 125.253 165.319 125.454 165.058 125.673C165.814 126.313 166.654 126.73 167.543 126.956ZM139.619 124.954C138.52 125.526 137.387 126.015 136.219 126.359L135.993 126.424C136.464 126.426 136.931 126.467 137.389 126.552C137.821 126.63 138.25 126.765 138.68 126.943C138.943 126.258 139.26 125.581 139.619 124.954ZM161.378 120.351C161.178 121.139 160.956 121.914 160.711 122.679C160.28 124.021 159.78 125.322 159.214 126.551C159.418 126.469 159.621 126.374 159.82 126.268C160.729 125.785 161.577 125.084 162.252 124.245L162.231 124.21C161.368 122.706 161.152 121.421 161.378 120.351ZM138.33 95.1555C138.15 95.3274 137.995 95.5732 137.843 95.863C137.289 96.9291 136.919 98.5798 136.521 100.497C135.466 105.6 134.252 112.488 129.901 116.073C127.844 117.766 125.109 118.773 122.154 119.132C121.967 119.82 121.767 120.504 121.548 121.181C121.593 121.462 121.661 121.739 121.755 122.012C122.139 123.13 122.956 124.163 124.307 125.091C125.921 126.2 127.861 126.469 129.834 126.351C131.905 126.226 134.013 125.672 135.857 125.127C138.958 124.214 141.793 122.219 144.408 120.388C145.288 119.77 146.075 119.011 146.769 118.143C146.535 116.356 146.08 114.611 145.336 113.056C145.18 112.731 144.8 112.32 144.359 111.861C143.592 111.059 142.642 110.156 142.066 109.373C141.802 109.014 141.613 108.67 141.516 108.366C140.67 107.35 140.379 106.383 140.455 105.507C140.565 104.215 141.494 103.048 142.884 102.125C144.584 100.995 146.97 100.217 149.046 99.9054C148.411 98.5612 147.553 97.3939 146.455 96.5076C146.127 96.4821 145.803 96.4584 145.481 96.4299C143.139 96.2363 140.894 95.9819 139.026 95.3952C138.789 95.3225 138.556 95.2429 138.33 95.1555ZM120.84 123.146C120.47 124.075 120.052 124.983 119.571 125.867C120.578 125.48 121.536 125.247 122.392 125.2C121.701 124.549 121.192 123.862 120.84 123.146ZM154.879 112.842C152.484 115.733 151.533 119.49 153.099 123.666C153.4 124.468 153.778 125.112 154.214 125.61C155.658 123.698 156.923 121.566 157.914 119.377C158.691 117.666 159.296 115.916 159.679 114.208L159.62 114.177C158.146 113.441 156.535 113.078 154.879 112.842ZM180.416 121.256C179.643 122.532 178.688 123.699 177.617 124.701C178.673 126.055 180.92 125.51 181.114 123.763C181.221 122.822 180.95 121.987 180.416 121.256ZM177.195 118.908C176.582 120.439 176.396 122.039 176.988 123.548C177.964 122.598 178.83 121.502 179.513 120.306C179.157 120.006 178.753 119.728 178.317 119.476C177.964 119.27 177.589 119.082 177.195 118.908ZM163.638 119.044C163.259 119.361 162.963 119.728 162.779 120.158C162.447 120.931 162.517 121.877 163.052 123.016C163.677 121.808 163.947 120.434 163.638 119.044ZM150.96 112.392C150.354 114.632 149.392 116.743 148.101 118.5C148.198 119.401 148.245 120.306 148.25 121.202C149.354 121.443 150.28 121.905 151.054 122.541C151.217 122.673 151.372 122.815 151.522 122.966C150.422 119.063 151.291 115.512 153.392 112.655C152.75 112.583 152.104 112.519 151.461 112.448C151.293 112.429 151.128 112.411 150.96 112.392ZM146.932 119.898C146.538 120.309 146.124 120.688 145.684 121.037C146.132 121.007 146.56 121.004 146.968 121.027C146.963 120.653 146.951 120.275 146.932 119.898ZM162.22 116.179C162.025 117.483 161.765 118.79 161.449 120.072C161.491 119.929 161.54 119.787 161.599 119.65C161.916 118.914 162.477 118.292 163.222 117.785C162.961 117.193 162.623 116.658 162.22 116.179ZM181.133 113.511C179.845 114.695 178.598 116.164 177.739 117.747C178.169 117.936 178.576 118.143 178.96 118.365C179.373 118.606 179.757 118.863 180.107 119.139C180.897 117.384 181.298 115.467 181.133 113.511ZM126.402 100.959C124.748 102.552 122.928 103.718 120.963 104.395C118.878 105.112 116.629 105.289 114.228 104.836C111.839 106.618 107.798 108.333 104.023 108.769C105.416 113.316 109.882 116.266 114.842 117.436C116.713 117.877 118.659 118.066 120.549 117.983C120.733 117.328 120.985 116.664 121.293 115.995C121.463 115.628 121.652 115.257 121.857 114.887L121.947 114.479C122.85 110.334 123.689 106.16 125.59 102.407C125.833 101.924 126.104 101.44 126.402 100.959ZM136.115 96.7522C135.827 96.8514 135.487 96.9154 135.106 96.9429C134.42 98.855 133.608 100.728 132.69 102.39C130.898 105.638 125.741 110.528 123.071 115.335C122.889 116.158 122.7 116.981 122.5 117.799C125.009 117.427 127.318 116.536 129.084 115.082C131.464 113.123 132.804 110.09 133.721 106.963C134.672 103.719 135.162 100.365 135.792 97.8941C135.894 97.4902 136.002 97.1059 136.115 96.7522ZM171.259 106.954C169.256 106.935 167.21 106.873 165.163 107.238C164.302 107.392 163.458 107.599 162.64 107.859C162.765 109.983 162.694 112.252 162.436 114.549C163.235 115.28 163.89 116.15 164.352 117.162C165.168 116.801 166.111 116.539 167.139 116.378C170.045 115.924 173.607 116.256 176.539 117.275C177.605 115.258 179.257 113.405 180.894 112.016L180.864 111.886C180.458 110.269 179.866 109.033 179.133 108.076C176.6 108.281 174.112 108.401 171.89 107.847C171.482 107.742 171.329 107.498 171.27 107.267C171.247 107.176 171.24 107.069 171.259 106.954ZM145.408 111.123C145.903 111.648 146.314 112.132 146.493 112.502C147.106 113.781 147.537 115.184 147.818 116.634C148.627 115.3 149.254 113.799 149.693 112.224C148.211 112.003 146.762 111.687 145.408 111.123ZM161.4 111.279C161.353 112.022 161.258 112.781 161.12 113.55C161.162 113.575 161.204 113.604 161.246 113.63C161.319 112.84 161.372 112.054 161.4 111.279ZM160.077 108.875C158.514 109.633 157.104 110.592 155.929 111.717C157.318 111.96 158.667 112.312 159.931 112.901C160.052 112.146 160.121 111.404 160.143 110.679C160.159 110.061 160.138 109.46 160.077 108.875ZM188.939 106.908C189.601 106.581 190.276 106.281 190.95 106.031C193.073 105.246 195.219 104.939 197.147 105.585C197.774 105.797 198.384 106.25 198.97 106.851C199.743 107.646 200.491 108.704 201.256 109.679C201.839 110.42 202.428 111.111 203.057 111.549C203.557 111.898 204.081 112.078 204.656 111.884C204.715 111.865 204.752 111.802 204.799 111.731C204.91 111.568 205.002 111.344 205.082 111.077C205.379 110.104 205.515 108.603 205.513 106.809C205.509 102.498 204.691 96.539 203.169 91.9739C202.202 89.0733 200.99 86.7318 199.46 85.871C196.111 83.9864 191.361 84.1446 187.305 85.7463L187.18 85.7953C187.51 87.6937 187.428 89.6913 187.074 91.3116C186.84 92.3866 186.343 93.4979 185.673 94.6063C186.73 95.9052 187.605 97.2543 188.102 98.4904C188.969 100.646 188.73 102.486 186.833 103.433C185.619 104.039 184.507 104.181 183.513 104.001C183.016 103.911 182.546 103.741 182.108 103.501C181.956 103.664 181.801 103.814 181.64 103.959C180.713 104.796 179.756 105.399 178.775 105.838C179.112 106.114 179.432 106.421 179.735 106.76C181.549 106.6 183.378 106.416 185.138 106.442C186.453 106.458 187.729 106.588 188.939 106.908ZM131.963 96.6785C129.753 98.2802 127.911 100.662 126.734 102.987C125.338 105.746 124.539 108.741 123.85 111.783C126.594 107.984 130.14 104.355 131.566 101.77C132.387 100.285 133.116 98.6289 133.746 96.9261C133.184 96.8789 132.578 96.7925 131.963 96.6785ZM151.701 101.081C151.491 101.287 151.278 101.487 151.064 101.69C151.276 102.444 151.434 103.228 151.542 104.031C151.854 106.329 151.75 108.776 151.261 111.134L151.601 111.172C152.521 111.273 153.443 111.365 154.359 111.483C155.833 109.878 157.721 108.545 159.858 107.559C159.673 106.767 159.4 106.021 159.023 105.335C158.998 105.43 158.961 105.545 158.938 105.599C158.868 105.753 158.771 105.852 158.686 105.911C158.561 105.998 158.423 106.036 158.285 106.034C158.143 106.032 157.974 105.992 157.806 105.827C156.392 104.41 154.837 102.838 153.161 101.324C152.698 101.223 152.213 101.143 151.701 101.081ZM187.163 107.864C186.498 107.775 185.814 107.735 185.124 107.725C183.657 107.703 182.143 107.821 180.629 107.949C181.181 108.823 181.643 109.876 181.997 111.149C182.275 110.947 182.549 110.76 182.815 110.593C184.049 109.807 185.545 108.796 187.163 107.864ZM149.993 102.673C149.804 102.843 149.616 103.01 149.424 103.178C148.42 104.068 146.965 104.721 145.601 105.456C144.43 106.088 143.313 106.772 142.752 107.833C143.044 108.138 143.401 108.446 143.83 108.769C145.651 110.135 147.782 110.661 149.997 110.974C150.469 108.732 150.566 106.389 150.271 104.203C150.2 103.685 150.108 103.173 149.993 102.673ZM161.383 108.305L161.303 108.335C161.333 108.55 161.356 108.764 161.375 108.982C161.396 109.227 161.414 109.477 161.421 109.729C161.419 109.248 161.407 108.772 161.383 108.305ZM104.078 99.2304C100.64 100.131 97.4452 102.331 94.9307 105.225C96.5864 106.352 98.5148 107.144 100.68 107.479C101.235 107.564 101.815 107.602 102.412 107.597C101.954 105.227 102.15 103.204 102.82 101.489C103.14 100.671 103.568 99.9211 104.086 99.2372L104.078 99.2304ZM104.986 100.177C104.592 100.721 104.267 101.313 104.014 101.955C103.406 103.513 103.26 105.361 103.706 107.525C106.868 107.212 110.267 105.9 112.573 104.431C111.011 103.96 109.392 103.23 107.722 102.219C106.651 101.568 105.744 100.886 104.986 100.177ZM160.539 102.722C160.24 103.112 159.961 103.51 159.69 103.977C160.322 104.897 160.773 105.933 161.056 107.055L161.206 106.996L161.291 106.965C161.152 105.442 160.902 104.011 160.539 102.722ZM177.32 106.369C176.237 106.682 175.13 106.834 174 106.904C175.29 107.029 176.641 106.994 178.018 106.899C177.794 106.709 177.56 106.532 177.32 106.369ZM149.545 101.122C147.585 101.367 145.238 102.102 143.595 103.194C142.576 103.871 141.815 104.67 141.734 105.616C141.704 105.972 141.772 106.335 141.943 106.711C142.665 105.713 143.786 104.978 144.991 104.327C146.267 103.638 147.637 103.047 148.575 102.216C148.922 101.912 149.264 101.603 149.604 101.295L149.577 101.222L149.545 101.122ZM162.643 100.251C162.22 100.753 161.845 101.178 161.509 101.565C161.6 101.806 161.683 102.055 161.758 102.315C162.126 103.6 162.385 105.027 162.537 106.548C163.317 106.312 164.121 106.121 164.937 105.975C167.444 105.527 169.944 105.699 172.371 105.673C172.569 105.52 172.753 105.38 172.886 105.277C173.112 105.1 173.336 104.933 173.553 104.768C172.601 104.502 171.61 104.282 170.613 104.035C167.852 103.345 165.024 102.494 162.643 100.251ZM174.676 105.53L174.628 105.567C174.946 105.537 175.259 105.496 175.573 105.444L175.393 105.372C175.329 105.348 175.268 105.324 175.207 105.301L175.061 105.247L174.676 105.53ZM179.825 101.317C179.028 102.05 178.253 102.722 177.554 103.315C177.117 103.685 176.688 104.022 176.258 104.351C176.688 104.532 177.101 104.735 177.501 104.964C178.633 104.568 179.73 103.955 180.785 103.006C180.877 102.924 180.964 102.839 181.051 102.752C180.621 102.368 180.232 101.915 179.888 101.41L179.825 101.317ZM111.151 75.9026C106.221 75.544 100.817 76.4706 96.4967 78.8131C92.8464 80.792 89.9713 83.7889 88.8629 87.904C87.2259 93.9882 89.2706 100.629 93.9016 104.452C96.4799 101.464 99.7296 99.1763 103.245 98.125C102.604 97.1463 102.191 96.1323 101.972 95.0947C101.425 92.5222 102.076 89.7906 103.504 87.0884C105.421 83.4686 108.75 79.891 112.277 76.8273C111.887 76.5325 111.512 76.2239 111.151 75.9026ZM156.31 102.535C156.919 103.126 157.508 103.714 158.077 104.282L158.082 104.27L158.166 104.098C158.112 104.032 158.055 103.968 157.996 103.905C157.52 103.386 156.961 102.926 156.31 102.535ZM179.376 90.5148L179.327 90.4843C178.452 89.9164 177.678 89.5361 177.112 89.4889C174.901 89.3022 172.716 90.3517 170.682 91.8757C167.89 93.9647 165.383 96.9596 163.487 99.2402C165.704 101.356 168.345 102.148 170.922 102.786C172.264 103.119 173.582 103.421 174.828 103.822C175.463 103.35 176.084 102.879 176.726 102.336C177.474 101.702 178.316 100.971 179.174 100.174C178.229 98.2212 177.835 95.8885 178.082 94.1464C178.268 92.8425 178.719 91.6281 179.376 90.5148ZM128.778 95.9386C127.634 95.632 126.721 95.354 126.363 95.2665C121.99 94.2171 115.404 94.283 110.374 96.2904C109.508 96.6343 108.691 97.0382 107.938 97.5029C110.502 97.5923 113.107 98.3991 115.616 100.111C116.054 100.408 116.31 100.766 116.425 101.15C116.647 101.879 116.335 102.801 115.488 103.726C117.271 103.919 118.96 103.728 120.545 103.181C123.751 102.077 126.515 99.5467 128.778 95.9386ZM113.91 103.456C114.092 103.303 114.259 103.15 114.41 102.997C114.769 102.636 115.034 102.287 115.155 101.957C115.214 101.802 115.24 101.657 115.2 101.523C115.158 101.388 115.049 101.275 114.896 101.169C112.033 99.2185 109.043 98.5583 106.156 98.853C106.038 98.9641 105.925 99.0751 105.811 99.1901C106.518 99.8602 107.372 100.506 108.386 101.119C110.307 102.282 112.151 103.051 113.91 103.456ZM154.947 97.6857C154.376 98.3411 153.782 98.9847 153.166 99.6214C153.367 99.7933 153.566 99.9702 153.763 100.147C155.963 100.683 157.626 101.651 158.833 102.918C159.194 102.355 159.571 101.869 160.002 101.355C158.985 99.4141 157.158 98.3411 154.961 97.6897L154.947 97.6857ZM185.233 96.1155C184.845 98.573 184.072 100.806 182.925 102.478C183.185 102.598 183.456 102.688 183.742 102.737C184.5 102.874 185.341 102.744 186.262 102.284C187.045 101.893 187.338 101.245 187.288 100.461C187.229 99.5015 186.727 98.3794 185.994 97.2209C185.762 96.8534 185.505 96.483 185.233 96.1155ZM183.72 97.2985C182.808 98.3931 181.789 99.4495 180.774 100.423C180.831 100.513 180.887 100.6 180.946 100.685C181.222 101.087 181.529 101.453 181.871 101.764C182.716 100.558 183.331 99.0161 183.72 97.2985ZM158.461 93.0498C157.678 94.2692 156.803 95.4601 155.848 96.6244C157.994 97.3417 159.778 98.4757 160.895 100.317C161.137 100.039 161.397 99.7373 161.677 99.4023L161.748 99.3178C160.454 97.8154 159.325 95.804 158.461 93.0498ZM149.767 98.5179C149.993 98.9188 150.2 99.3365 150.387 99.7678C150.68 99.7541 150.96 99.7492 151.224 99.758L151.25 99.7325L151.28 99.702C150.785 99.2962 150.281 98.9001 149.767 98.5179ZM180.421 91.2576C179.881 92.2009 179.511 93.2287 179.353 94.3282C179.15 95.7481 179.442 97.613 180.155 99.2402C181.234 98.1859 182.307 97.0401 183.234 95.861C183.536 95.4788 183.822 95.0926 184.086 94.7054C182.946 93.4055 181.647 92.194 180.421 91.2576ZM149.51 96.7591C150.429 97.3909 151.324 98.0748 152.186 98.7891C152.653 98.3106 153.106 97.8242 153.547 97.3339C152.267 97.0627 150.901 96.8908 149.51 96.7591ZM177.704 78.3719C172.339 76.167 166.295 77.0886 162.548 80.3243C162.517 84.3195 161.34 88.0494 159.364 91.5474C159.404 91.7076 159.45 91.8658 159.494 92.026C160.289 94.8038 161.358 96.8131 162.601 98.2968C164.54 95.972 167.087 92.9605 169.91 90.8469C172.219 89.1235 174.714 88.0003 177.218 88.2077C177.943 88.2696 178.961 88.7146 180.091 89.4477C180.999 88.245 182.159 87.1857 183.479 86.3014C182.876 83.9883 181.911 81.9033 180.567 80.396C179.603 80.3587 178.581 80.5159 177.645 80.7851C176.671 81.9927 175.487 82.884 174.101 83.3458C173.71 83.4755 173.493 83.28 173.383 83.1552C173.28 83.0353 173.136 82.8014 173.282 82.4575C173.325 82.3612 173.528 82.0851 173.836 81.7618C174.426 81.1438 175.409 80.2693 175.701 80.1367C176.067 79.9696 176.463 79.8163 176.879 79.6836C177.112 79.3653 177.332 79.0283 177.536 78.6696C177.594 78.5723 177.65 78.4731 177.704 78.3719ZM113.348 77.5799C109.851 80.5847 106.533 84.1122 104.641 87.6899C103.363 90.1001 102.738 92.531 103.227 94.8283C103.444 95.8521 103.882 96.8427 104.574 97.7928C104.921 97.7221 105.269 97.6631 105.618 97.6159C106.826 96.5763 108.285 95.7411 109.898 95.0975C115.174 92.9938 122.079 92.9211 126.663 94.0196C127.057 94.1139 128.139 94.454 129.458 94.7998L129.569 94.6013C130.494 92.9408 131.54 90.7673 131.996 88.5879C132.283 87.2083 132.338 85.8269 131.93 84.5839C131.435 83.0697 129.942 82.2394 128.192 81.6882C127.093 81.3413 125.888 81.1104 124.71 80.9355C125.995 82.9773 126.396 85.482 125.54 88.4062C124.014 93.6178 118.354 94.0285 115.904 91.4128C114.298 89.6982 113.918 86.6041 117.213 82.6501C117.929 81.7894 118.72 80.9689 119.567 80.2074C117.247 79.6739 115.16 78.7639 113.348 77.5799ZM130.081 96.2737C129.948 96.4909 129.816 96.705 129.68 96.9153C129.892 96.7149 130.109 96.5213 130.331 96.3326L130.229 96.3091L130.081 96.2737ZM156.389 93.8182L156.367 93.8044C156.273 93.7435 156.159 93.6306 156.072 93.4488C155.978 93.2503 155.895 92.8445 155.815 92.6558C154.853 90.3467 154.994 90.4293 153.972 88.1448C152.648 85.1951 151.012 81.4877 148.224 79.5629C145.656 77.7893 142.678 78.1666 140.22 79.6355C139.216 80.2369 138.296 81.02 137.52 81.9181C137.921 85.4102 137.206 89.4811 136.661 91.7351C136.614 91.9336 136.564 92.1311 136.513 92.3296C136.567 92.4691 136.616 92.6057 136.666 92.7374C136.845 92.8956 137.039 93.044 137.244 93.1806C139.25 92.8838 141.199 93.0676 143.075 93.5952C144.295 93.8242 145.378 94.2555 146.332 94.847C146.384 94.8804 146.435 94.9129 146.485 94.9463C146.692 95.0524 146.898 95.1604 147.102 95.2715C149.642 95.4699 152.225 95.6773 154.5 96.2364C155.169 95.4454 155.801 94.6387 156.389 93.8182ZM134.297 95.353C134.132 95.4238 133.967 95.4995 133.802 95.5771L133.684 95.6341C133.856 95.6508 134.026 95.6626 134.191 95.6694L134.282 95.3982L134.297 95.353ZM135.894 94.7881L135.818 94.8097L135.717 95.1329C135.679 95.2489 135.644 95.3638 135.606 95.4768L135.572 95.578C135.603 95.5682 135.631 95.5613 135.66 95.5525C135.844 95.4935 135.997 95.4277 136.051 95.2764C136.068 95.2361 136.051 95.1772 136.041 95.1064C136.029 95.0023 136.009 94.8892 135.977 94.7645L135.894 94.7881ZM133.438 87.6986C133.396 88.0808 133.332 88.4671 133.252 88.8522C132.778 91.1142 131.712 93.3751 130.748 95.1231C131.052 95.1919 131.361 95.2597 131.668 95.3235C132.181 94.9796 132.71 94.675 133.252 94.4176C133.766 94.1749 134.275 93.9647 134.784 93.7907C134.874 93.4842 134.961 93.1776 135.044 92.874C134.86 92.6382 134.695 92.3856 134.549 92.1144C134.042 91.1829 133.75 90.0343 133.75 88.6125C133.646 88.3118 133.543 88.0081 133.438 87.6986ZM141.85 94.7291C142.185 94.7831 142.529 94.8332 142.876 94.8774L142.768 94.847C142.47 94.792 142.166 94.7546 141.85 94.7291ZM183.784 87.6466C182.76 88.3796 181.858 89.2314 181.131 90.1865C182.157 90.9647 183.23 91.9268 184.234 92.9762C184.256 92.0162 184.22 91.0444 184.133 90.0824C184.057 89.2619 183.942 88.4464 183.784 87.6466ZM185.972 86.3377C185.619 86.5146 185.272 86.7013 184.935 86.8988C185.157 87.8961 185.314 88.9269 185.412 89.9645C185.475 90.6602 185.511 91.3578 185.518 92.0535C185.647 91.7115 185.749 91.3716 185.824 91.0375C186.126 89.654 186.213 87.9678 185.972 86.3377ZM135.574 70.0945C135.36 70.3372 135.152 70.6153 134.926 70.9533C133.997 72.3545 133.44 73.8706 133.157 75.4359C135.443 76.0893 136.685 77.9661 137.249 80.3361C137.949 79.6424 138.73 79.0322 139.562 78.535C142.444 76.8086 145.941 76.4264 148.953 78.5065C151.926 80.5581 153.73 84.4728 155.14 87.621C156.102 89.767 156.043 89.8378 156.819 91.7292C157.081 91.0473 157.375 90.1473 157.678 89.1018C157.523 86.6405 158.046 84.4581 159.055 82.6147C159.14 82.4595 159.229 82.3062 159.322 82.1529C159.618 80.5896 159.859 79.0263 160.008 77.5898C160.183 75.8987 160.243 74.3895 160.081 73.2909C159.899 72.7534 159.697 72.2081 159.47 71.6618C159.231 71.3061 158.93 70.9376 158.574 70.5652C158.449 70.6762 158.321 70.7843 158.192 70.8905C155.5 73.1052 152.018 74.3432 148.872 73.6967C147.695 73.456 145.033 72.1167 143.592 70.4404C143.568 70.4119 143.544 70.3835 143.52 70.356C142.66 71.1951 141.344 71.9458 140 72.1855C138.378 72.4754 136.725 72.0558 135.69 70.3087C135.65 70.236 135.611 70.1653 135.574 70.0945ZM121.211 80.4855C120.109 81.3865 119.093 82.3976 118.199 83.4705C115.523 86.6826 115.535 89.1441 116.838 90.5354C118.751 92.5753 123.116 92.1105 124.307 88.0455C125.178 85.0643 124.538 82.6078 122.923 80.6977C122.319 80.624 121.741 80.5562 121.211 80.4855ZM136.353 83.56C135.803 84.5053 135.411 85.5192 135.229 86.5529C135.111 87.2201 135.046 87.8333 135.034 88.3973C135.256 89.0203 135.478 89.6166 135.692 90.1797C136.064 88.3521 136.416 85.9045 136.353 83.56ZM161.187 81.7304C160.952 82.0232 160.73 82.3297 160.527 82.6481C160.077 84.9572 159.515 87.2515 158.971 89.1568L158.975 89.2295C158.98 89.2786 158.985 89.3287 158.99 89.3778L158.999 89.4791C160.197 87.0196 160.97 84.4394 161.187 81.7304ZM182.454 80.796C183.378 82.1756 184.098 83.8243 184.607 85.6087C184.965 85.4082 185.331 85.2195 185.705 85.0427C185.585 84.6015 185.439 84.1751 185.259 83.7673C184.687 82.4565 183.788 81.36 182.454 80.796ZM132.985 76.7281C132.856 78.1833 132.931 79.666 133.137 81.1242C133.351 82.6619 133.709 84.1711 134.124 85.5998C134.501 84.1613 135.22 82.7681 136.176 81.5437C136.145 81.3315 136.105 81.1212 136.063 80.9188C135.655 78.9645 134.769 77.3324 132.985 76.7281ZM131.73 76.4834C129.2 76.2731 126.035 77.4198 124.007 78.5655C123.724 78.7257 123.443 78.8936 123.168 79.0705C123.315 79.209 123.458 79.3535 123.596 79.4999C125.22 79.7052 127.005 79.9696 128.576 80.4648C129.966 80.9031 131.189 81.5261 132.055 82.4084C131.703 80.457 131.542 78.4476 131.73 76.4834ZM161.187 78.5753C161.129 79.0539 161.061 79.5442 160.984 80.0394C161.069 79.9549 161.159 79.8674 161.248 79.7819C161.24 79.381 161.221 78.9802 161.187 78.5753ZM178.799 79.044C178.775 79.0892 178.751 79.1335 178.725 79.1787L178.683 79.2514C178.86 79.2229 179.036 79.1993 179.213 79.1806C179.095 79.098 178.974 79.0174 178.853 78.9427L178.799 79.044ZM114.643 76.4972L114.384 76.7094C116.011 77.7234 117.864 78.5035 119.909 78.9683C120.187 79.0322 120.498 79.0882 120.838 79.1403L120.855 79.1304L121.035 78.991C119.464 77.8846 117.486 77.0622 115.295 76.5335C115.113 76.4913 114.931 76.449 114.75 76.4107L114.643 76.4972ZM178.254 77.2114C179.282 74.7658 179.78 71.7384 179.785 68.6766C179.792 64.9605 179.066 61.1873 177.635 58.3339C176.721 56.5112 175.52 55.0658 174.017 54.2964C169.192 51.8272 164.115 53.8228 159.904 56.5623C161.654 58.0313 162.762 59.9445 162.762 62.3518C162.762 64.8181 161.608 67.302 159.816 69.3252C159.878 69.4451 159.937 69.566 159.993 69.6859C160.217 70.1526 160.426 70.6173 160.617 71.0752C160.72 71.2304 160.809 71.3866 160.889 71.537C161.063 71.874 161.193 72.3103 161.285 72.8271C161.979 74.8601 162.369 76.8292 162.499 78.7364C166.632 75.714 172.766 74.9318 178.254 77.2114ZM147.139 53.9103C145.71 53.8749 144.404 53.9624 143.354 54.151C141.326 54.5215 139.36 55.45 137.4 56.3206C135.328 57.2423 133.259 58.0991 131.154 58.276C130.303 58.3467 129.486 58.0804 128.678 57.5803C128.401 57.4103 128.128 57.2128 127.85 56.9957C127.379 57.5263 126.998 58.0942 126.758 58.6985C125.898 60.8514 126.652 62.4314 128.006 63.6016C129.49 64.8869 131.641 65.7122 133.346 66.2831C133.374 66.2831 133.532 66.2948 133.612 66.3066C133.73 66.3184 133.838 66.344 133.925 66.3823C134.242 66.512 134.419 66.7459 134.419 67.1016C134.419 67.2736 134.364 67.4553 134.2 67.6204C134.072 67.7521 133.713 67.9319 133.155 68.0547C131.279 68.4694 126.347 68.8869 123.995 70.1397C121.965 71.2196 119.048 73.0708 116.032 75.4005C118.391 76.0156 120.49 76.959 122.147 78.2069C122.55 77.9376 122.961 77.6861 123.378 77.4503C125.614 76.1866 129.114 74.976 131.905 75.2168C132.214 73.4786 132.83 71.7954 133.861 70.2459C134.33 69.5404 134.738 69.057 135.222 68.6374C135.229 67.9938 135.441 67.3502 135.823 66.7224C136.748 65.1994 138.766 63.7441 141.115 62.624C143.401 61.5343 145.992 60.7511 148.109 60.4877C149.628 60.2971 150.921 60.3836 151.741 60.7589C151.871 60.8179 152.002 60.8818 152.13 60.9457C152.068 60.6087 151.996 60.2922 151.881 60.0426C150.662 57.367 149.061 55.3085 147.139 53.9103ZM126.877 56.1605C126.396 55.7242 125.904 55.2506 125.387 54.7691C123.773 53.2716 121.932 51.7153 119.468 51.4205C117.839 51.222 115.942 51.5874 113.67 52.852C104.444 57.9792 105.147 68.4988 111.719 74.6636C112.644 74.7461 113.552 74.871 114.431 75.039C117.798 72.3526 121.128 70.2095 123.39 69.0038C124.787 68.261 127.039 67.7796 129.095 67.4308C130.02 67.2755 130.899 67.1478 131.628 67.0318C130.082 66.4423 128.409 65.6503 127.164 64.5724C125.414 63.0562 124.452 61.0096 125.568 58.222C125.856 57.4949 126.309 56.806 126.877 56.1605ZM157.639 69.6799C155.75 68.0596 153.025 66.5297 150.413 65.8498C147.934 65.2081 145.536 65.3123 144.158 67.0829C144.13 67.1183 144.104 67.1556 144.078 67.191C144.268 67.3541 144.401 67.5378 144.479 67.7235C144.667 68.1667 144.615 68.7258 144.326 69.2987C144.399 69.3999 144.478 69.5011 144.566 69.6003C145.814 71.0536 148.11 72.2297 149.129 72.437C151.919 73.0099 154.991 71.8613 157.376 69.8971C157.466 69.8283 157.551 69.7545 157.639 69.6799ZM142.522 67.8995C142.331 67.874 142.11 67.8592 141.86 67.8592C140.459 67.8592 138.644 67.9299 137.398 68.6796C137.093 68.8614 136.83 69.0285 136.594 69.1965C136.64 69.3498 136.707 69.503 136.798 69.6543C137.51 70.859 138.659 71.1214 139.776 70.9209C140.969 70.7087 142.134 70.0012 142.811 69.2466C142.61 68.8044 142.505 68.3525 142.522 67.8995ZM158.794 57.316C158.412 57.5853 158.037 57.8563 157.674 58.1295C156.17 59.2595 155.217 60.7374 154.467 62.4147C156.419 63.9337 157.949 65.9215 159.174 68.1077C160.577 66.4 161.478 64.3769 161.478 62.3537C161.477 60.2166 160.411 58.5679 158.794 57.316ZM152.427 62.567C152.036 62.3331 151.628 62.1169 151.202 61.9234C150.396 61.5529 149.028 61.5982 147.453 61.8811C144.928 62.3361 141.9 63.4562 139.638 64.8927C138.44 65.6542 137.456 66.4983 136.916 67.3876C136.887 67.4298 136.862 67.4749 136.837 67.5192C138.264 66.7105 140.283 66.5759 141.858 66.5759C142.252 66.5759 142.594 66.6093 142.891 66.6683C142.963 66.5435 143.046 66.4187 143.143 66.2958C144.825 64.1361 147.712 63.8247 150.735 64.6098C153.191 65.2465 155.724 66.5976 157.689 68.1049C156.708 66.4708 155.534 64.9753 154.098 63.7657C153.99 63.9426 153.825 64.0202 153.655 64.0468C153.544 64.0654 153.315 64.0938 153.075 63.8511C152.776 63.5534 152.568 63.0976 152.427 62.567ZM149.304 54.0538C150.776 55.4667 152.038 57.2895 153.047 59.5081C153.275 60.0132 153.384 60.7325 153.504 61.437C154.315 59.7459 155.355 58.2652 156.904 57.1028C157.152 56.9161 157.402 56.7324 157.659 56.5486C157.393 56.3904 157.117 56.242 156.836 56.1005C154.597 54.9784 151.868 54.3279 149.304 54.0538ZM144.968 52.6722C142.259 51.5049 139.084 51.4292 135.609 52.4885C133.824 53.0309 131.401 54.0872 129.482 55.5257C129.236 55.7075 129.001 55.8961 128.777 56.0897C128.812 56.1153 128.846 56.1438 128.881 56.1703C129.6 56.698 130.296 57.0595 131.049 56.9976C133.018 56.8325 134.942 56.0101 136.88 55.1484C138.934 54.2356 141 53.2756 143.127 52.8895C143.678 52.7882 144.298 52.7145 144.968 52.6722Z"
                                    fill="#EEEEEE"
                                />
                            </svg>