<svg width="278" height="178" viewBox="0 0 278 178" fill="none" xmlns="http://www.w3.org/2000/svg">
<path d="M0 8C0 3.58172 3.58172 0 8 0H270C274.418 0 278 3.58172 278 8V39C278 115.768 215.768 178 139 178C62.2324 178 0 115.768 0 39V8Z" fill="white"/>
<path d="M161.365 16.7752C166.289 23.8241 160.515 35.2521 167.822 40.5534C174.934 45.7139 183.671 37.2552 190.373 41.6973C200.317 48.2869 198.501 78.4397 183.963 97.1742C179.592 102.808 175.939 105.001 174.321 111.372C170.847 125.055 183.056 133.194 180.733 139.96C175.501 155.197 95.0429 167.983 62.7595 122.191C47.6818 100.805 45.4259 69.9226 58.8973 46.4674C83.24 4.08419 150.316 0.958801 161.365 16.7752Z" fill="#F8F8F8"/>
<path d="M213.344 44.448C214.5 44.448 215.637 44.9955 216.347 46.0165C217.498 47.6731 217.088 49.9488 215.431 51.0997L195.773 64.7576C194.441 65.6821 192.659 65.6192 191.397 64.601L177.764 53.6073L107.73 101.255C106.357 102.189 104.527 102.079 103.276 100.988L91.0005 90.2853L61.0692 114.932C59.5118 116.214 57.2105 115.991 55.9285 114.435C54.6464 112.878 54.8692 110.576 56.4261 109.294L88.7464 82.6795C90.125 81.5447 92.122 81.5729 93.468 82.7462L105.952 93.6309L175.894 46.0453C177.224 45.1409 178.989 45.2129 180.241 46.2219L193.852 57.1983L211.264 45.101C211.899 44.6599 212.626 44.448 213.344 44.448Z" fill="#D6D6D6"/>
<path d="M65.3214 87.0042C65.7114 87.0042 66.1078 87.0673 66.4976 87.1996C68.4071 87.8491 69.4287 89.9236 68.7792 91.8331L63.019 108.771L81.9809 106.122C83.9802 105.846 85.824 107.236 86.1031 109.234C86.3822 111.231 84.9891 113.077 82.9916 113.356L58.158 116.825C56.9019 117 55.6458 116.513 54.8382 115.535C54.0304 114.559 53.7871 113.233 54.1952 112.032L61.8644 89.4814C62.3811 87.9618 63.8007 87.0042 65.3214 87.0042Z" fill="#D6D6D6"/>
<path d="M125.335 46.5898C125.335 46.5898 111.191 26.8277 118.553 28.3777C125.916 29.9277 126.691 33.9964 135.022 29.5402C143.353 25.084 145.29 21.0154 146.84 27.0216C148.39 33.0277 146.84 35.1589 153.234 33.9965C159.628 32.8339 160.984 34.5777 150.909 44.6525C140.059 44.6524 125.335 46.5898 125.335 46.5898Z" fill="#003090"/>
<path d="M124.302 48.2148C124.302 48.2148 80.6449 86.0868 93.5614 117.345C93.5614 117.345 100.278 137.185 136.702 137.185C173.127 137.185 175.71 123.828 179.585 116.853C182.685 106.779 191.597 93.7219 150.91 48.2148H124.302Z" fill="#003090"/>
<path d="M153.281 46.6761C153.281 47.6927 152.457 48.5168 151.44 48.5168H123.936C122.92 48.5168 122.096 47.6927 122.096 46.6761V46.3167C122.096 45.3002 122.92 44.4761 123.936 44.4761H151.441C152.457 44.4761 153.281 45.3002 153.281 46.3167L153.281 46.6761Z" fill="#003090"/>
<mask id="path-8-inside-1_2_693" fill="white">
<path d="M140.235 117.793H138.123C136.902 117.793 135.91 116.8 135.91 115.58V112.099C132.419 111.945 128.684 111.128 125.894 109.907C124.914 109.478 124.391 108.362 124.678 107.31L125.591 103.962C125.852 103.004 126.73 102.336 127.726 102.336C128.025 102.336 128.317 102.395 128.597 102.512C131.643 103.789 134.847 104.464 137.864 104.464C141.735 104.464 144.046 103.113 144.046 100.85C144.046 98.7202 142.081 97.3632 137.038 96.0103C133.061 94.9225 130.157 93.5866 128.16 91.9262C125.8 89.9638 124.653 87.5401 124.653 84.5165C124.653 81.6626 125.696 79.1108 127.67 77.137C129.656 75.1513 132.546 73.7981 136.032 73.2202V69.726C136.032 68.5056 137.025 67.5127 138.245 67.5127H140.358C141.578 67.5127 142.571 68.5056 142.571 69.726V72.8399C145.505 72.9665 148.095 73.437 150.486 74.2775C151.561 74.6551 152.166 75.8232 151.864 76.9367L151.024 80.0335C150.763 80.996 149.887 81.6682 148.893 81.6683C148.626 81.6683 148.363 81.6197 148.11 81.5241C145.59 80.5714 143.039 80.1082 140.311 80.1082C135.449 80.1082 134.924 82.3782 134.924 83.3541C134.924 85.1217 137.106 86.4507 142.976 88.257C151.031 90.6734 154.317 94.074 154.317 99.9943C154.317 102.814 153.269 105.389 151.286 107.441C149.192 109.607 146.138 111.064 142.449 111.658V115.58C142.449 116.8 141.456 117.793 140.235 117.793ZM127.726 102.573C126.837 102.573 126.053 103.17 125.82 104.024L124.907 107.373C124.651 108.311 125.116 109.307 125.989 109.689C128.784 110.913 132.538 111.726 136.033 111.866L136.147 111.871V115.58C136.147 116.669 137.033 117.556 138.123 117.556H140.235C141.325 117.556 142.211 116.669 142.211 115.58V111.455L142.311 111.439C149.46 110.322 154.079 105.83 154.079 99.9943C154.079 94.1996 150.842 90.8651 142.907 88.4845C139.9 87.559 137.994 86.8103 136.725 86.0562C135.334 85.2296 134.686 84.371 134.686 83.3541C134.686 82.3067 135.234 79.8705 140.311 79.8705C143.068 79.8705 145.647 80.3387 148.194 81.3019C148.42 81.3872 148.655 81.4306 148.893 81.4306C149.78 81.4305 150.562 80.8305 150.795 79.9713L151.635 76.8746C151.904 75.8805 151.365 74.8383 150.407 74.5017C148.008 73.6583 145.404 73.191 142.447 73.0726L142.333 73.0681V69.726C142.333 68.6366 141.447 67.7503 140.357 67.7503H138.245C137.156 67.7503 136.27 68.6366 136.27 69.726V73.4223L136.17 73.4385C129.213 74.5585 124.89 78.8034 124.89 84.5165C124.89 87.465 126.01 89.8289 128.312 91.7435C130.282 93.3817 133.156 94.7024 137.1 95.7809C142.336 97.1857 144.284 98.5598 144.284 100.85C144.284 103.262 141.884 104.701 137.864 104.701C134.816 104.701 131.579 104.02 128.505 102.731C128.255 102.626 127.993 102.573 127.726 102.573Z"/>
</mask>
<path d="M140.235 117.793H138.123C136.902 117.793 135.91 116.8 135.91 115.58V112.099C132.419 111.945 128.684 111.128 125.894 109.907C124.914 109.478 124.391 108.362 124.678 107.31L125.591 103.962C125.852 103.004 126.73 102.336 127.726 102.336C128.025 102.336 128.317 102.395 128.597 102.512C131.643 103.789 134.847 104.464 137.864 104.464C141.735 104.464 144.046 103.113 144.046 100.85C144.046 98.7202 142.081 97.3632 137.038 96.0103C133.061 94.9225 130.157 93.5866 128.16 91.9262C125.8 89.9638 124.653 87.5401 124.653 84.5165C124.653 81.6626 125.696 79.1108 127.67 77.137C129.656 75.1513 132.546 73.7981 136.032 73.2202V69.726C136.032 68.5056 137.025 67.5127 138.245 67.5127H140.358C141.578 67.5127 142.571 68.5056 142.571 69.726V72.8399C145.505 72.9665 148.095 73.437 150.486 74.2775C151.561 74.6551 152.166 75.8232 151.864 76.9367L151.024 80.0335C150.763 80.996 149.887 81.6682 148.893 81.6683C148.626 81.6683 148.363 81.6197 148.11 81.5241C145.59 80.5714 143.039 80.1082 140.311 80.1082C135.449 80.1082 134.924 82.3782 134.924 83.3541C134.924 85.1217 137.106 86.4507 142.976 88.257C151.031 90.6734 154.317 94.074 154.317 99.9943C154.317 102.814 153.269 105.389 151.286 107.441C149.192 109.607 146.138 111.064 142.449 111.658V115.58C142.449 116.8 141.456 117.793 140.235 117.793ZM127.726 102.573C126.837 102.573 126.053 103.17 125.82 104.024L124.907 107.373C124.651 108.311 125.116 109.307 125.989 109.689C128.784 110.913 132.538 111.726 136.033 111.866L136.147 111.871V115.58C136.147 116.669 137.033 117.556 138.123 117.556H140.235C141.325 117.556 142.211 116.669 142.211 115.58V111.455L142.311 111.439C149.46 110.322 154.079 105.83 154.079 99.9943C154.079 94.1996 150.842 90.8651 142.907 88.4845C139.9 87.559 137.994 86.8103 136.725 86.0562C135.334 85.2296 134.686 84.371 134.686 83.3541C134.686 82.3067 135.234 79.8705 140.311 79.8705C143.068 79.8705 145.647 80.3387 148.194 81.3019C148.42 81.3872 148.655 81.4306 148.893 81.4306C149.78 81.4305 150.562 80.8305 150.795 79.9713L151.635 76.8746C151.904 75.8805 151.365 74.8383 150.407 74.5017C148.008 73.6583 145.404 73.191 142.447 73.0726L142.333 73.0681V69.726C142.333 68.6366 141.447 67.7503 140.357 67.7503H138.245C137.156 67.7503 136.27 68.6366 136.27 69.726V73.4223L136.17 73.4385C129.213 74.5585 124.89 78.8034 124.89 84.5165C124.89 87.465 126.01 89.8289 128.312 91.7435C130.282 93.3817 133.156 94.7024 137.1 95.7809C142.336 97.1857 144.284 98.5598 144.284 100.85C144.284 103.262 141.884 104.701 137.864 104.701C134.816 104.701 131.579 104.02 128.505 102.731C128.255 102.626 127.993 102.573 127.726 102.573Z" fill="white"/>
<path d="M135.91 112.099H136.186V111.834L135.922 111.823L135.91 112.099ZM125.894 109.907L126.005 109.654H126.005L125.894 109.907ZM124.678 107.31L124.944 107.383L124.944 107.383L124.678 107.31ZM125.591 103.962L125.858 104.035H125.858L125.591 103.962ZM128.597 102.512L128.704 102.257H128.704L128.597 102.512ZM137.038 96.0103L136.965 96.2768L136.966 96.2772L137.038 96.0103ZM128.16 91.9262L128.337 91.7137L128.337 91.7137L128.16 91.9262ZM127.67 77.137L127.866 77.3324L127.67 77.137ZM136.032 73.2202L136.077 73.4928L136.308 73.4545V73.2202H136.032ZM142.571 72.8399H142.295V73.1046L142.559 73.116L142.571 72.8399ZM150.486 74.2775L150.395 74.5382L150.395 74.5382L150.486 74.2775ZM151.864 76.9367L151.597 76.8644L151.597 76.8644L151.864 76.9367ZM151.024 80.0335L150.758 79.9612L150.758 79.9612L151.024 80.0335ZM148.893 81.6683V81.9446H148.893L148.893 81.6683ZM148.11 81.5241L148.208 81.2656L148.208 81.2656L148.11 81.5241ZM142.976 88.257L142.895 88.5212L142.897 88.5217L142.976 88.257ZM151.286 107.441L151.087 107.249L151.286 107.441ZM142.449 111.658L142.405 111.386L142.172 111.423V111.658H142.449ZM142.449 115.58H142.172V115.58L142.449 115.58ZM125.82 104.024L125.554 103.952L125.554 103.952L125.82 104.024ZM124.907 107.373L125.174 107.446L125.174 107.446L124.907 107.373ZM125.989 109.689L125.879 109.942L125.879 109.943L125.989 109.689ZM136.033 111.866L136.022 112.143L136.022 112.143L136.033 111.866ZM136.147 111.871H136.423V111.605L136.158 111.595L136.147 111.871ZM142.211 111.455L142.168 111.182L141.935 111.219V111.455H142.211ZM142.311 111.439L142.269 111.166L142.268 111.167L142.311 111.439ZM142.907 88.4845L142.826 88.7486L142.828 88.7491L142.907 88.4845ZM136.725 86.0562L136.584 86.2937H136.584L136.725 86.0562ZM148.194 81.3019L148.096 81.5603L148.096 81.5603L148.194 81.3019ZM148.893 81.4306V81.707H148.893L148.893 81.4306ZM150.795 79.9713L150.528 79.899L150.528 79.899L150.795 79.9713ZM151.635 76.8746L151.368 76.8022V76.8022L151.635 76.8746ZM150.407 74.5017L150.499 74.241L150.407 74.5017ZM142.447 73.0726L142.458 72.7965L142.458 72.7965L142.447 73.0726ZM142.333 73.0681H142.057V73.3337L142.322 73.3442L142.333 73.0681ZM136.27 73.4223L136.314 73.6951L136.546 73.6577V73.4223H136.27ZM136.17 73.4385L136.214 73.7113L136.214 73.7113L136.17 73.4385ZM128.312 91.7435L128.135 91.956L128.135 91.956L128.312 91.7435ZM137.1 95.7809L137.027 96.0475L137.028 96.0478L137.1 95.7809ZM128.505 102.731L128.398 102.986L128.398 102.986L128.505 102.731ZM140.235 117.793V117.517H138.123V117.793V118.069H140.235V117.793ZM138.123 117.793V117.517C137.055 117.517 136.186 116.648 136.186 115.58H135.91H135.633C135.633 116.953 136.75 118.069 138.123 118.069V117.793ZM135.91 115.58H136.186V112.099H135.91H135.633V115.58H135.91ZM135.91 112.099L135.922 111.823C132.461 111.67 128.759 110.859 126.005 109.654L125.894 109.907L125.783 110.16C128.608 111.397 132.378 112.22 135.897 112.375L135.91 112.099ZM125.894 109.907L126.005 109.654C125.154 109.281 124.693 108.306 124.944 107.383L124.678 107.31L124.411 107.238C124.089 108.417 124.674 109.675 125.783 110.16L125.894 109.907ZM124.678 107.31L124.944 107.383L125.858 104.035L125.591 103.962L125.324 103.889L124.411 107.238L124.678 107.31ZM125.591 103.962L125.858 104.035C126.086 103.198 126.854 102.612 127.726 102.612V102.336V102.059C126.606 102.059 125.619 102.811 125.324 103.889L125.591 103.962ZM127.726 102.336V102.612C127.987 102.612 128.244 102.664 128.49 102.767L128.597 102.512L128.704 102.257C128.391 102.126 128.062 102.059 127.726 102.059V102.336ZM128.597 102.512L128.49 102.767C131.566 104.057 134.807 104.74 137.864 104.74V104.464V104.187C134.887 104.187 131.719 103.521 128.704 102.257L128.597 102.512ZM137.864 104.464V104.74C139.825 104.74 141.426 104.399 142.546 103.744C143.679 103.082 144.323 102.095 144.323 100.85H144.046H143.77C143.77 101.868 143.258 102.688 142.267 103.267C141.264 103.853 139.773 104.187 137.864 104.187V104.464ZM144.046 100.85H144.323C144.323 99.6755 143.77 98.7259 142.59 97.9115C141.428 97.1085 139.637 96.4213 137.109 95.7434L137.038 96.0103L136.966 96.2772C139.482 96.9522 141.196 97.62 142.276 98.3662C143.34 99.1011 143.77 99.895 143.77 100.85H144.046ZM137.038 96.0103L137.111 95.7437C133.152 94.6609 130.291 93.3384 128.337 91.7137L128.16 91.9262L127.983 92.1387C130.023 93.8348 132.97 95.184 136.965 96.2768L137.038 96.0103ZM128.16 91.9262L128.337 91.7137C126.039 89.8029 124.929 87.4565 124.929 84.5165H124.653H124.377C124.377 87.6236 125.561 90.1247 127.983 92.1387L128.16 91.9262ZM124.653 84.5165H124.929C124.929 81.734 125.945 79.2531 127.866 77.3324L127.67 77.137L127.475 76.9416C125.448 78.9685 124.377 81.5911 124.377 84.5165H124.653ZM127.67 77.137L127.866 77.3324C129.801 75.397 132.633 74.0637 136.077 73.4928L136.032 73.2202L135.987 72.9475C132.459 73.5324 129.511 74.9057 127.475 76.9416L127.67 77.137ZM136.032 73.2202H136.308V69.726H136.032H135.756V73.2202H136.032ZM136.032 69.726H136.308C136.308 68.6582 137.178 67.789 138.245 67.789V67.5127V67.2364C136.872 67.2364 135.756 68.3529 135.756 69.726H136.032ZM138.245 67.5127V67.789H140.358V67.5127V67.2364H138.245V67.5127ZM140.358 67.5127V67.789C141.425 67.789 142.295 68.6582 142.295 69.726H142.571H142.847C142.847 68.3529 141.731 67.2364 140.358 67.2364V67.5127ZM142.571 69.726H142.295V72.8399H142.571H142.847V69.726H142.571ZM142.571 72.8399L142.559 73.116C145.47 73.2416 148.032 73.708 150.395 74.5382L150.486 74.2775L150.578 74.0168C148.157 73.166 145.539 72.6914 142.583 72.5638L142.571 72.8399ZM150.486 74.2775L150.395 74.5382C151.33 74.8668 151.862 75.8877 151.597 76.8644L151.864 76.9367L152.131 77.0091C152.47 75.7587 151.792 74.4433 150.578 74.0168L150.486 74.2775ZM151.864 76.9367L151.597 76.8644L150.758 79.9612L151.024 80.0335L151.291 80.1058L152.131 77.0091L151.864 76.9367ZM151.024 80.0335L150.758 79.9612C150.529 80.8038 149.762 81.3919 148.893 81.3919L148.893 81.6683L148.893 81.9446C150.012 81.9445 150.997 81.1881 151.291 80.1058L151.024 80.0335ZM148.893 81.6683V81.3919C148.66 81.3919 148.43 81.3496 148.208 81.2656L148.11 81.5241L148.012 81.7826C148.296 81.8898 148.593 81.9446 148.893 81.9446V81.6683ZM148.11 81.5241L148.208 81.2656C145.656 80.301 143.072 79.8319 140.311 79.8319V80.1082V80.3845C143.006 80.3845 145.524 80.8418 148.012 81.7826L148.11 81.5241ZM140.311 80.1082V79.8319C137.842 79.8319 136.415 80.4079 135.606 81.1631C134.793 81.9217 134.648 82.8183 134.648 83.3541H134.924H135.2C135.2 82.914 135.318 82.1876 135.983 81.5672C136.651 80.9435 137.918 80.3845 140.311 80.3845V80.1082ZM134.924 83.3541H134.648C134.648 84.3808 135.293 85.2281 136.605 86.027C137.916 86.8253 139.958 87.6173 142.895 88.5212L142.976 88.257L143.058 87.9929C140.125 87.0904 138.14 86.3147 136.893 85.555C135.646 84.796 135.2 84.095 135.2 83.3541H134.924ZM142.976 88.257L142.897 88.5217C146.906 89.7245 149.688 91.1614 151.468 93.0037C153.238 94.835 154.04 97.0916 154.04 99.9943H154.317H154.593C154.593 96.9767 153.753 94.5728 151.866 92.6197C149.989 90.6775 147.101 89.2059 143.056 87.9924L142.976 88.257ZM154.317 99.9943H154.04C154.04 102.742 153.021 105.248 151.087 107.249L151.286 107.441L151.484 107.633C153.517 105.531 154.593 102.887 154.593 99.9943H154.317ZM151.286 107.441L151.087 107.249C149.044 109.363 146.05 110.799 142.405 111.386L142.449 111.658L142.492 111.931C146.226 111.33 149.34 109.852 151.484 107.633L151.286 107.441ZM142.449 111.658H142.172V115.58H142.449H142.725V111.658H142.449ZM142.449 115.58L142.172 115.58C142.172 116.648 141.303 117.517 140.235 117.517V117.793V118.069C141.608 118.069 142.725 116.953 142.725 115.58L142.449 115.58ZM127.726 102.573V102.297C126.713 102.297 125.82 102.976 125.554 103.952L125.82 104.024L126.087 104.097C126.287 103.364 126.961 102.85 127.726 102.85V102.573ZM125.82 104.024L125.554 103.952L124.641 107.3L124.907 107.373L125.174 107.446L126.087 104.097L125.82 104.024ZM124.907 107.373L124.641 107.3C124.35 108.367 124.876 109.504 125.879 109.942L125.989 109.689L126.1 109.436C125.357 109.111 124.953 108.256 125.174 107.446L124.907 107.373ZM125.989 109.689L125.879 109.943C128.709 111.181 132.498 112.001 136.022 112.143L136.033 111.866L136.044 111.59C132.579 111.451 128.859 110.644 126.1 109.436L125.989 109.689ZM136.033 111.866L136.022 112.143L136.136 112.147L136.147 111.871L136.158 111.595L136.044 111.59L136.033 111.866ZM136.147 111.871H135.871V115.58H136.147H136.423V111.871H136.147ZM136.147 115.58H135.871C135.871 116.822 136.881 117.832 138.123 117.832V117.556V117.279C137.186 117.279 136.423 116.517 136.423 115.58H136.147ZM138.123 117.556V117.832H140.235V117.556V117.279H138.123V117.556ZM140.235 117.556V117.832C141.477 117.832 142.487 116.822 142.487 115.58H142.211H141.935C141.935 116.517 141.172 117.279 140.235 117.279V117.556ZM142.211 115.58H142.487V111.455H142.211H141.935V115.58H142.211ZM142.211 111.455L142.254 111.728L142.354 111.712L142.311 111.439L142.268 111.167L142.168 111.182L142.211 111.455ZM142.311 111.439L142.354 111.712C149.591 110.582 154.355 106.008 154.355 99.9943H154.079H153.803C153.803 105.652 149.329 110.063 142.269 111.166L142.311 111.439ZM154.079 99.9943H154.355C154.355 97.0389 153.527 94.6829 151.667 92.7666C149.818 90.8614 146.972 89.4154 142.987 88.2198L142.907 88.4845L142.828 88.7491C146.778 89.9341 149.518 91.3456 151.271 93.1515C153.013 94.9463 153.803 97.1549 153.803 99.9943H154.079ZM142.907 88.4845L142.989 88.2204C139.984 87.2958 138.105 86.5548 136.866 85.8186L136.725 86.0562L136.584 86.2937C137.883 87.0657 139.816 87.8222 142.826 88.7486L142.907 88.4845ZM136.725 86.0562L136.866 85.8186C135.507 85.0108 134.963 84.2251 134.963 83.3541H134.686H134.41C134.41 84.5168 135.161 85.4483 136.584 86.2937L136.725 86.0562ZM134.686 83.3541H134.963C134.963 82.8761 135.087 82.0894 135.786 81.419C136.487 80.7465 137.812 80.1469 140.311 80.1469V79.8705V79.5942C137.733 79.5942 136.245 80.2126 135.404 81.0201C134.559 81.8296 134.41 82.7846 134.41 83.3541H134.686ZM140.311 79.8705V80.1469C143.035 80.1469 145.581 80.6092 148.096 81.5603L148.194 81.3019L148.292 81.0434C145.713 80.0683 143.101 79.5942 140.311 79.5942V79.8705ZM148.194 81.3019L148.096 81.5603C148.353 81.6573 148.621 81.707 148.893 81.707V81.4306V81.1543C148.689 81.1543 148.487 81.1172 148.292 81.0434L148.194 81.3019ZM148.893 81.4306L148.893 81.707C149.905 81.7069 150.796 81.0226 151.061 80.0436L150.795 79.9713L150.528 79.899C150.328 80.6385 149.654 81.1542 148.893 81.1543L148.893 81.4306ZM150.795 79.9713L151.061 80.0436L151.901 76.9469L151.635 76.8746L151.368 76.8022L150.528 79.899L150.795 79.9713ZM151.635 76.8746L151.901 76.9469C152.208 75.8164 151.597 74.6267 150.499 74.241L150.407 74.5017L150.316 74.7624C151.134 75.0498 151.6 75.9446 151.368 76.8022L151.635 76.8746ZM150.407 74.5017L150.499 74.241C148.069 73.3872 145.438 72.9158 142.458 72.7965L142.447 73.0726L142.436 73.3487C145.369 73.4661 147.946 73.9295 150.316 74.7624L150.407 74.5017ZM142.447 73.0726L142.458 72.7965L142.344 72.792L142.333 73.0681L142.322 73.3442L142.436 73.3487L142.447 73.0726ZM142.333 73.0681H142.609V69.726H142.333H142.057V73.0681H142.333ZM142.333 69.726H142.609C142.609 68.484 141.599 67.474 140.357 67.474V67.7503V68.0267C141.294 68.0267 142.057 68.7892 142.057 69.726H142.333ZM140.357 67.7503V67.474H138.245V67.7503V68.0267H140.357V67.7503ZM138.245 67.7503V67.474C137.003 67.474 135.993 68.484 135.993 69.726H136.27H136.546C136.546 68.7892 137.309 68.0267 138.245 68.0267V67.7503ZM136.27 69.726H135.993V73.4223H136.27H136.546V69.726H136.27ZM136.27 73.4223L136.226 73.1495L136.126 73.1656L136.17 73.4385L136.214 73.7113L136.314 73.6951L136.27 73.4223ZM136.17 73.4385L136.126 73.1656C129.079 74.3001 124.614 78.6271 124.614 84.5165H124.89H125.167C125.167 78.9798 129.346 74.817 136.214 73.7113L136.17 73.4385ZM124.89 84.5165H124.614C124.614 87.5486 125.771 89.9898 128.135 91.956L128.312 91.7435L128.489 91.5311C126.248 89.668 125.167 87.3814 125.167 84.5165H124.89ZM128.312 91.7435L128.135 91.956C130.148 93.63 133.066 94.964 137.027 96.0475L137.1 95.7809L137.173 95.5144C133.247 94.4408 130.416 93.1334 128.489 91.5311L128.312 91.7435ZM137.1 95.7809L137.028 96.0478C139.642 96.749 141.397 97.4338 142.496 98.2093C143.042 98.5943 143.417 98.9958 143.656 99.4244C143.895 99.8512 144.007 100.319 144.007 100.85H144.284H144.56C144.56 100.236 144.429 99.6736 144.139 99.1547C143.85 98.6375 143.41 98.1781 142.815 97.7577C141.631 96.9223 139.794 96.2177 137.171 95.514L137.1 95.7809ZM144.284 100.85H144.007C144.007 101.947 143.47 102.825 142.439 103.443C141.396 104.069 139.847 104.425 137.864 104.425V104.701V104.978C139.901 104.978 141.562 104.614 142.723 103.917C143.898 103.213 144.56 102.166 144.56 100.85H144.284ZM137.864 104.701V104.425C134.856 104.425 131.655 103.752 128.611 102.476L128.505 102.731L128.398 102.986C131.503 104.288 134.776 104.978 137.864 104.978V104.701ZM128.505 102.731L128.611 102.476C128.328 102.358 128.03 102.297 127.726 102.297V102.573V102.85C127.956 102.85 128.181 102.895 128.398 102.986L128.505 102.731Z" fill="white" mask="url(#path-8-inside-1_2_693)"/>
<path d="M136.036 115.379V111.815C132.321 111.666 128.646 110.789 126.036 109.647C125.104 109.239 124.629 108.193 124.896 107.211L125.802 103.891C126.134 102.674 127.458 102.043 128.622 102.532C131.212 103.617 134.409 104.476 137.856 104.476C141.434 104.476 144.103 103.262 144.103 100.775C144.103 98.5315 142.041 97.1973 137.067 95.863C129.971 93.9222 124.876 90.8287 124.876 84.5815C124.876 78.9405 129.001 74.6343 136.157 73.4821V69.9179C136.157 68.771 137.087 67.8413 138.234 67.8413H140.328C141.475 67.8413 142.405 68.771 142.405 69.9179V73.118C145.843 73.2557 148.345 73.8436 150.331 74.5414C151.348 74.8989 151.905 75.995 151.622 77.0359L150.79 80.1061C150.469 81.2901 149.203 81.9385 148.056 81.5047C146.227 80.8132 143.642 80.0933 140.282 80.0933C136.036 80.0933 134.823 81.8521 134.823 83.4292C134.823 85.37 137.371 86.7042 142.89 88.4028C150.775 90.7682 154.05 94.0434 154.05 99.9267C154.05 105.325 150.047 110.177 142.283 111.39V115.379C142.283 116.526 141.354 117.455 140.207 117.455H138.113C136.966 117.455 136.036 116.526 136.036 115.379Z" fill="white"/>
<path d="M117.647 130.512C117.633 130.512 117.62 130.511 117.606 130.508C109.388 128.602 103.615 124.489 100.448 118.284C96.8091 111.154 97.3181 102.501 98.3857 96.497C99.5409 90.0018 101.581 85.1207 101.602 85.0723C101.64 84.9815 101.745 84.9393 101.835 84.9774C101.926 85.0155 101.969 85.1201 101.93 85.2109C101.91 85.2592 99.8827 90.1099 98.7352 96.5678C97.6783 102.516 97.1727 111.083 100.766 118.123C103.883 124.23 109.576 128.28 117.687 130.16C117.782 130.183 117.842 130.278 117.82 130.374C117.801 130.457 117.728 130.512 117.647 130.512Z" fill="white"/>
<path d="M130.469 35.8767C127.776 35.8767 125.888 33.8 125.809 33.7135C125.742 33.6409 125.747 33.5036 125.819 33.4371C125.892 33.3705 126.005 33.3318 126.071 33.4043C126.09 33.4243 127.936 35.3588 130.47 35.3588C130.477 35.3588 130.485 35.3588 130.493 35.3588C132.14 35.3588 133.722 34.5498 135.194 32.9161C135.26 32.8431 135.373 32.8529 135.446 32.9186C135.519 32.9845 135.525 33.1545 135.459 33.2276C133.916 34.9403 132.244 35.8768 130.491 35.8768C130.484 35.8767 130.476 35.8767 130.469 35.8767Z" fill="white"/>
<path d="M148.752 37.755C147.768 37.7551 147.07 37.5006 146.673 36.9963C146.093 36.259 146.392 35.282 146.405 35.2408C146.435 35.1469 146.535 35.0949 146.629 35.1245C146.723 35.1542 146.775 35.2542 146.745 35.348C146.741 35.3617 146.492 36.1923 146.955 36.7778C147.333 37.2561 148.081 37.4599 149.177 37.3832C149.275 37.3768 149.36 37.4503 149.367 37.5486C149.374 37.6468 149.3 37.7319 149.201 37.7388C149.046 37.7496 148.896 37.755 148.752 37.755Z" fill="white"/>
<path d="M198.77 37.9136C196.373 37.9136 194.43 39.8565 194.43 42.2532C194.43 44.6499 196.373 46.5928 198.77 46.5928C201.166 46.5928 203.109 44.6499 203.109 42.2532C203.109 39.8565 201.166 37.9136 198.77 37.9136Z" fill="#003090"/>
<path d="M65.5722 7.9999C63.5993 7.9999 61.9999 9.59928 61.9999 11.5722C61.9999 13.5451 63.5993 15.1445 65.5722 15.1445C67.5452 15.1445 69.1445 13.5451 69.1445 11.5722C69.1445 9.59928 67.5452 7.9999 65.5722 7.9999Z" fill="#003090"/>
<path d="M59.0682 73.1371C56.8212 73.1371 54.9997 71.3155 54.9997 69.0685C54.9997 66.8215 56.8212 65 59.0682 65C61.3152 65 63.1367 66.8215 63.1367 69.0685C63.1367 71.3155 61.3152 73.1371 59.0682 73.1371Z" fill="#003090"/>
<path d="M211.621 67.1979C210.572 67.1979 209.722 66.3478 209.722 65.2991C209.722 64.2505 210.572 63.4004 211.621 63.4004C212.669 63.4004 213.52 64.2505 213.52 65.2991C213.52 66.3478 212.669 67.1979 211.621 67.1979Z" fill="#003090"/>
<path d="M200.442 139.882C199.093 139.882 198 138.789 198 137.441C198 136.093 199.093 135 200.442 135C201.79 135 202.883 136.093 202.883 137.441C202.883 138.789 201.79 139.882 200.442 139.882Z" fill="#F8F8F8"/>
<path d="M43.1184 103.268C41.171 103.268 39.5924 101.689 39.5924 99.7419C39.5924 97.7945 41.171 96.2158 43.1184 96.2158C45.0658 96.2158 46.6445 97.7945 46.6445 99.7419C46.6445 101.689 45.0658 103.268 43.1184 103.268Z" fill="#F8F8F8"/>
<path d="M221.645 100.309C220.163 100.309 218.961 99.1078 218.961 97.6258C218.961 96.1438 220.163 94.9424 221.645 94.9424C223.127 94.9424 224.328 96.1438 224.328 97.6258C224.328 99.1078 223.127 100.309 221.645 100.309Z" fill="#F8F8F8"/>
<path d="M200.542 15.9253C198.894 15.9253 197.558 14.5895 197.558 12.9416C197.558 11.2938 198.894 9.95801 200.542 9.95801C202.19 9.95801 203.525 11.2938 203.525 12.9416C203.525 14.5895 202.19 15.9253 200.542 15.9253Z" fill="#F8F8F8"/>
<path d="M43.8695 53.5634C44.2525 54.9927 43.4043 56.4619 41.9749 56.8449C40.5456 57.2279 39.0764 56.3797 38.6935 54.9503C38.3105 53.521 39.1587 52.0518 40.588 51.6688C42.0173 51.2859 43.4865 52.1341 43.8695 53.5634Z" fill="#F8F8F8"/>
<path d="M97.0999 2.22997C96.4841 2.22997 95.9849 1.73077 95.9849 1.11498C95.9849 0.499195 96.4841 0 97.0999 0C97.7156 0 98.2148 0.499195 98.2148 1.11498C98.2148 1.73077 97.7156 2.22997 97.0999 2.22997Z" fill="#F8F8F8"/>
<path d="M199.743 108.386C198.228 108.386 197.001 107.405 197.001 106.193C197.001 104.982 198.228 104 199.743 104C201.257 104 202.484 104.982 202.484 106.193C202.484 107.405 201.257 108.386 199.743 108.386Z" fill="#F8F8F8"/>
</svg>
