<svg width="278" height="178" viewBox="0 0 278 178" fill="none" xmlns="http://www.w3.org/2000/svg">
<path d="M0 139C0 62.2324 62.2324 0 139 0C215.768 0 278 62.2324 278 139V170C278 174.418 274.418 178 270 178H8.00001C3.58173 178 0 174.418 0 170V139Z" fill="white"/>
<path opacity="0.71" d="M159.365 34.7752C164.289 41.8241 158.515 53.2521 165.822 58.5534C172.934 63.7139 181.671 55.2552 188.373 59.6973C198.317 66.2869 196.501 96.4397 181.963 115.174C177.592 120.808 173.939 123.001 172.321 129.372C168.847 143.055 181.056 151.194 178.733 157.96C173.501 173.197 93.0429 185.983 60.7595 140.191C45.6818 118.805 43.4259 87.9226 56.8973 64.4674C81.24 22.0842 148.316 18.9588 159.365 34.7752Z" fill="#F8F8F8"/>
<g clip-path="url(#clip0_2_676)">
<path d="M147.196 26.0493C147.494 27.1626 146.833 28.3069 145.72 28.6052C144.607 28.9035 143.462 28.2428 143.164 27.1296C142.866 26.0163 143.527 24.8719 144.64 24.5736C145.753 24.2753 146.897 24.936 147.196 26.0493Z" fill="#E1E4E5"/>
<path d="M197.23 85.6038C191.329 92.9633 181.181 92.4188 165.48 88.2167C153.671 85.0545 142.876 82.3312 131.963 73.7867C124.324 67.8095 118.706 60.5086 114.855 53.6847C110.68 46.2921 104.578 37.6325 109.408 30.844C116.045 21.5193 146.072 17.7377 171.516 36.3439C199.466 56.7873 203.002 78.4116 197.23 85.6038Z" fill="#EEEEEE"/>
<path d="M132.303 45.2676V108.982H125.586C125.586 106.141 122.951 102.012 121.634 100.302C104.84 86.2971 98.9131 78.1679 98.9131 65.5852C98.9131 53.7497 105.828 47.4373 110.175 45.2676H132.303ZM132.303 45.2676V108.982H138.952C138.952 106.141 141.56 102.012 142.864 100.302C159.486 86.2971 165.353 78.1679 165.353 65.5852C165.353 53.7497 158.508 47.4373 154.206 45.2676H132.303Z" fill="#003090"/>
<path d="M132.303 156.683V93.3091H125.586C125.586 96.1343 122.951 100.242 121.634 101.942C104.84 115.872 98.9131 123.958 98.9131 136.474C98.9131 148.246 105.828 154.524 110.175 156.683H132.303ZM132.303 156.683V93.3091H138.952C138.952 96.1343 141.56 100.242 142.864 101.942C159.486 115.872 165.353 123.958 165.353 136.474C165.353 148.246 158.508 154.524 154.206 156.683H132.303Z" fill="#003090"/>
<path d="M165.876 162.387H99.0391V159.514C99.0391 157.785 100.442 156.382 102.174 156.382H162.87C164.53 156.382 165.876 157.726 165.876 159.384V162.387Z" fill="#E1E4E5"/>
<path d="M110.816 62.6024C113.828 63.0453 118.172 63.5867 122.581 63.8048C127.01 64.0239 131.427 63.9114 134.62 63.0852C144.353 60.5666 150.409 59.9087 153.974 59.8531L110.816 62.6024ZM110.816 62.6024C108.184 62.2153 105.871 64.3077 105.871 66.9755V69.6392C105.871 70.722 106.223 71.8958 106.785 73.0955C107.35 74.303 108.153 75.5875 109.114 76.906C111.035 79.5429 113.635 82.3807 116.373 85.0952C121.853 90.5279 127.965 95.5429 130.519 97.5869M110.816 62.6024L130.519 97.5869L110.816 62.6024ZM130.519 97.5869C131.095 98.0486 131.439 98.7627 131.439 99.5266V140.348C131.439 141.483 130.893 142.537 129.991 143.184C127.906 144.681 125.164 147.569 122.982 150.026C121.754 151.41 120.555 152.818 119.384 154.25L119.16 154.525L119.102 154.597L119.087 154.616L119.083 154.621L119.082 154.622L118.031 155.933M130.519 97.5869L118.031 155.933L130.519 97.5869ZM118.031 155.933H119.71H118.031ZM118.031 155.933H119.71H118.031ZM145.228 155.127L145.844 154.607L145.843 154.606L145.839 154.601L145.824 154.583L145.765 154.514L145.539 154.249C144.355 152.863 143.149 151.496 141.922 150.148C139.735 147.746 137.023 144.914 135.042 143.36C134.362 142.827 133.956 141.997 133.956 141.11V99.5154C133.956 98.7539 134.293 98.0401 134.864 97.5716C137.367 95.515 143.349 90.4785 148.711 85.0287C151.39 82.3054 153.934 79.4597 155.813 76.8181C156.752 75.4968 157.537 74.2106 158.09 73.0028C158.64 71.8024 158.982 70.6307 158.982 69.5523V64.892C158.982 62.0978 156.748 59.8099 153.974 59.8531L135.042 97.4252L145.228 155.127ZM145.228 155.127L145.844 154.607L145.228 155.127ZM145.228 155.127L145.844 154.607L145.228 155.127ZM119.71 155.933H146.961H119.71ZM119.71 155.933H146.961H119.71ZM146.961 155.933L145.844 154.607L146.961 155.933ZM146.961 155.933L145.844 154.607L146.961 155.933Z" fill="white"/>
<path d="M110.816 62.6024C113.828 63.0453 118.172 63.5867 122.581 63.8048C127.01 64.0239 131.427 63.9114 134.62 63.0852C144.353 60.5666 150.409 59.9087 153.974 59.8531M110.816 62.6024L153.974 59.8531M110.816 62.6024C108.184 62.2153 105.871 64.3077 105.871 66.9755V69.6392C105.871 70.722 106.223 71.8958 106.785 73.0955C107.35 74.303 108.153 75.5875 109.114 76.906C111.035 79.5429 113.635 82.3807 116.373 85.0952C121.853 90.5279 127.965 95.5429 130.519 97.5869M110.816 62.6024L130.519 97.5869M153.974 59.8531C156.748 59.8099 158.982 62.0978 158.982 64.892V69.5523C158.982 70.6307 158.64 71.8024 158.09 73.0028C157.537 74.2106 156.752 75.4968 155.813 76.8181C153.934 79.4597 151.39 82.3054 148.711 85.0287C143.349 90.4785 137.367 95.515 134.864 97.5716C134.293 98.0401 133.956 98.7539 133.956 99.5154V141.11C133.956 141.997 134.362 142.827 135.042 143.36C137.023 144.914 139.735 147.746 141.922 150.148C143.149 151.496 144.355 152.863 145.539 154.249L145.765 154.514L145.824 154.583L145.839 154.601L145.843 154.606L145.844 154.607M153.974 59.8531L135.042 97.4252L145.228 155.127L145.844 154.607M130.519 97.5869C131.095 98.0486 131.439 98.7627 131.439 99.5266V140.348C131.439 141.483 130.893 142.537 129.991 143.184C127.906 144.681 125.164 147.569 122.982 150.026C121.754 151.41 120.555 152.818 119.384 154.25L119.16 154.525L119.102 154.597L119.087 154.616L119.083 154.621L119.082 154.622M130.519 97.5869L118.031 155.933M119.082 154.622L119.71 155.127M119.082 154.622L118.031 155.933M118.031 155.933H119.71H146.961L145.844 154.607" stroke="white" stroke-width="1.61159"/>
<path d="M162.758 47.9136H102.045C100.385 47.9136 99.0391 46.5692 99.0391 44.9112V41.9092H165.876V44.7995C165.876 46.5201 164.481 47.9136 162.758 47.9136Z" fill="#E1E4E5"/>
<path fill-rule="evenodd" clip-rule="evenodd" d="M131 86.3025V74.1565C131 72.1487 131.527 70.1762 132.528 68.4356C133.529 66.6951 134.968 65.2474 136.703 64.2371L148.181 57.5571C149.934 56.5373 151.926 56 153.954 56C155.983 56 157.975 56.5373 159.728 57.5571L171.206 64.2371C172.941 65.2469 174.382 66.6944 175.383 68.435C176.384 70.1756 176.911 72.1485 176.911 74.1565V86.3025C176.911 88.3102 176.384 90.2828 175.384 92.0234C174.383 93.764 172.943 95.2117 171.208 96.2221L159.73 102.902C157.977 103.922 155.985 104.459 153.957 104.459C151.929 104.459 149.937 103.922 148.184 102.902L136.706 96.2221C134.97 95.2123 133.53 93.7648 132.528 92.0241C131.527 90.2835 131 88.3106 131 86.3025Z" fill="#D6D6D6"/>
<path d="M153.956 80.2293V68.7515M153.953 89.1565C153.87 89.1564 153.787 89.1729 153.71 89.2049C153.632 89.2369 153.562 89.2839 153.503 89.3432C153.444 89.4025 153.398 89.4728 153.366 89.5502C153.334 89.6276 153.318 89.7105 153.318 89.7942C153.322 89.961 153.391 90.1198 153.51 90.2366C153.629 90.3534 153.789 90.4187 153.956 90.4187C154.123 90.4187 154.283 90.3534 154.402 90.2366C154.522 90.1198 154.59 89.961 154.594 89.7942C154.594 89.7102 154.577 89.6271 154.545 89.5496C154.513 89.4721 154.465 89.4018 154.406 89.3426C154.346 89.2833 154.276 89.2364 154.198 89.2045C154.121 89.1726 154.037 89.1563 153.953 89.1565Z" stroke="#003090" stroke-width="4.33651" stroke-linecap="round" stroke-linejoin="round"/>
<path d="M78.2911 81.2407L91.3628 93.0525L86.3489 96.2803L98.8482 103.905L79.7565 99.0972L83.2588 93.4657L73.9873 86.8034L78.2911 81.2407Z" fill="#D6D6D6"/>
<path d="M205.13 87.6963L198.592 104.056L204.514 104.748L196.646 117.094L211.673 104.375L206.049 100.859L211.443 90.7972L205.13 87.6963Z" fill="#D6D6D6"/>
</g>
<defs>
<clipPath id="clip0_2_676">
<rect width="170" height="164.62" fill="white" transform="translate(60 7)"/>
</clipPath>
</defs>
</svg>
