<svg width="278" height="178" viewBox="0 0 278 178" fill="none" xmlns="http://www.w3.org/2000/svg">
<path d="M0 8C0 3.58172 3.58172 0 8 0H270C274.418 0 278 3.58172 278 8V39C278 115.768 215.768 178 139 178C62.2324 178 0 115.768 0 39V8Z" fill="white"/>
<path opacity="0.71" d="M150.365 16.7752C155.289 23.8241 149.515 35.2521 156.822 40.5534C163.934 45.7139 172.671 37.2552 179.373 41.6973C189.317 48.2869 187.501 78.4397 172.963 97.1742C168.592 102.808 164.939 105.001 163.321 111.372C159.847 125.055 172.056 133.194 169.733 139.96C164.501 155.197 84.0429 167.983 51.7595 122.191C36.6818 100.805 34.4259 69.9226 47.8973 46.4674C72.24 4.08419 139.316 0.958801 150.365 16.7752Z" fill="#F8F8F8"/>
<g clip-path="url(#clip0_2_730)">
<path d="M234.35 77.026C228.387 79.9839 220.473 76.1804 220.473 76.1804C220.473 76.1804 222.231 67.5833 228.198 64.6295C234.16 61.6717 242.071 65.4708 242.071 65.4708C242.071 65.4708 240.312 74.0681 234.35 77.026Z" fill="url(#paint0_linear_2_730)"/>
<path d="M64.6135 98.2395C70.9709 102.05 80.0917 98.5274 80.0917 98.5274C80.0917 98.5274 78.899 88.8289 72.5378 85.0231C66.1804 81.213 57.0635 84.7309 57.0635 84.7309C57.0635 84.7309 58.2561 94.4294 64.6135 98.2395Z" fill="url(#paint1_linear_2_730)"/>
<path d="M222.616 53.9505C220.818 53.9505 219.361 55.4081 219.361 57.2062C219.361 59.0043 220.818 60.4619 222.616 60.4619C224.414 60.4619 225.872 59.0043 225.872 57.2062C225.872 55.4081 224.414 53.9505 222.616 53.9505Z" fill="#003090"/>
<path d="M123.075 64.241C121.594 64.241 120.394 65.441 120.394 66.9213C120.394 68.4016 121.594 69.6016 123.075 69.6016C124.555 69.6016 125.755 68.4016 125.755 66.9213C125.755 65.441 124.555 64.241 123.075 64.241Z" fill="#003090"/>
<path d="M88.2083 93.1367C86.5224 93.1367 85.1558 91.77 85.1558 90.0842C85.1558 88.3984 86.5224 87.0317 88.2083 87.0317C89.8941 87.0317 91.2607 88.3984 91.2607 90.0842C91.2607 91.77 89.8941 93.1367 88.2083 93.1367Z" fill="#003090"/>
<path d="M216.105 75.5279C215.318 75.5279 214.681 74.8902 214.681 74.1035C214.681 73.3169 215.318 72.6792 216.105 72.6792C216.892 72.6792 217.529 73.3169 217.529 74.1035C217.529 74.8902 216.892 75.5279 216.105 75.5279Z" fill="#003090"/>
<path d="M215.283 129.494C214.271 129.494 213.451 128.674 213.451 127.662C213.451 126.651 214.271 125.831 215.283 125.831C216.294 125.831 217.114 126.651 217.114 127.662C217.114 128.674 216.294 129.494 215.283 129.494Z" fill="#E1E4E5"/>
<path d="M73.6196 119.282C72.8675 119.282 72.2578 118.673 72.2578 117.92C72.2578 117.168 72.8675 116.559 73.6196 116.559C74.3717 116.559 74.9814 117.168 74.9814 117.92C74.9814 118.673 74.3717 119.282 73.6196 119.282Z" fill="#E1E4E5"/>
<path d="M224.61 111.569C223.498 111.569 222.596 110.668 222.596 109.556C222.596 108.444 223.498 107.542 224.61 107.542C225.722 107.542 226.623 108.444 226.623 109.556C226.623 110.668 225.722 111.569 224.61 111.569Z" fill="#E1E4E5"/>
<path d="M203.244 49.554C202.008 49.554 201.006 48.5518 201.006 47.3156C201.006 46.0793 202.008 45.0771 203.244 45.0771C204.48 45.0771 205.482 46.0793 205.482 47.3156C205.482 48.5518 204.48 49.554 203.244 49.554Z" fill="#E1E4E5"/>
<path d="M82.9062 72.1975C83.1936 73.2697 82.5572 74.3719 81.4849 74.6592C80.4127 74.9466 79.3105 74.3102 79.0232 73.2379C78.7358 72.1656 79.3722 71.0635 80.4445 70.7762C81.5168 70.4888 82.6189 71.1252 82.9062 72.1975Z" fill="#E1E4E5"/>
<path d="M133.989 32.852C132.968 32.852 132.14 32.0239 132.14 31.0024C132.14 29.9809 132.968 29.1528 133.989 29.1528C135.011 29.1528 135.839 29.9809 135.839 31.0024C135.839 32.0239 135.011 32.852 133.989 32.852Z" fill="#E1E4E5"/>
<path d="M217.282 100.049C216.146 100.049 215.225 99.3127 215.225 98.4039C215.225 97.495 216.146 96.7583 217.282 96.7583C218.418 96.7583 219.339 97.495 219.339 98.4039C219.339 99.3127 218.418 100.049 217.282 100.049Z" fill="#E1E4E5"/>
<path fill-rule="evenodd" clip-rule="evenodd" d="M102.704 62.0324L92.967 52.3388C91.6733 51.0522 89.923 50.33 88.0985 50.3301H63.4047C59.6002 50.3301 56.5186 53.3979 56.5186 57.1858V105.175C56.5186 108.962 59.6002 112.03 63.4047 112.03H97.8357C101.64 112.03 104.722 108.962 104.722 105.175V66.8794C104.721 65.9784 104.542 65.0865 104.196 64.2547C103.85 63.423 103.343 62.6678 102.704 62.0324Z" fill="white" stroke="#E1E4E5" stroke-width="1.18931"/>
<path d="M68.4414 100.392H92.4057M68.4414 93.6523H92.4057" stroke="#E1E4E5" stroke-width="2.56316" stroke-linecap="round" stroke-linejoin="round"/>
<path fill-rule="evenodd" clip-rule="evenodd" d="M91.2524 84.2514V85.7998C91.2524 86.6547 90.564 87.3485 89.7156 87.3485H71.2752C70.4267 87.3485 69.7383 86.6547 69.7383 85.7998V84.2266C69.7383 79.5406 75.0522 76.4963 80.4954 76.4963C85.9385 76.4963 91.2524 79.5421 91.2524 84.2266M84.1697 65.1669C86.2514 67.323 86.2514 70.8189 84.1697 72.9753C82.0879 75.1314 78.7124 75.1314 76.6306 72.9753C74.5488 70.8189 74.5488 67.323 76.6306 65.1669C78.7124 63.0108 82.0879 63.0108 84.1697 65.1669Z" fill="#003090"/>
<path fill-rule="evenodd" clip-rule="evenodd" d="M180.664 53.9943L166.84 40.2309C165.003 38.4043 162.518 37.3789 159.927 37.3789H124.867C119.465 37.3789 115.09 41.7347 115.09 47.1125V115.247C115.09 120.625 119.465 124.981 124.867 124.981H173.752C179.154 124.981 183.529 120.625 183.529 115.247V60.8759C183.528 59.5968 183.275 58.3304 182.783 57.1494C182.291 55.9685 181.572 54.8963 180.664 53.9943Z" fill="white" stroke="#E1E4E5" stroke-width="1.18931"/>
<path d="M132.019 98.8877H166.043" stroke="#E1E4E5" stroke-width="2.56316" stroke-linecap="round" stroke-linejoin="round"/>
<path fill-rule="evenodd" clip-rule="evenodd" d="M164.405 85.5407V87.7394C164.405 88.9531 163.427 89.9378 162.223 89.9378H136.041C134.837 89.9378 133.859 88.9531 133.859 87.7394V85.5056C133.859 78.8524 141.404 74.5299 149.132 74.5299C156.86 74.5299 164.405 78.8547 164.405 85.5056M154.349 58.4445C157.305 61.5057 157.305 66.4693 154.349 69.5307C151.393 72.5921 146.601 72.5921 143.645 69.5307C140.689 66.4693 140.689 61.5057 143.645 58.4445C146.601 55.3831 151.393 55.3831 154.349 58.4445Z" fill="#003090"/>
<path fill-rule="evenodd" clip-rule="evenodd" d="M240.081 62.0324L230.344 52.3388C229.05 51.0523 227.3 50.3301 225.475 50.3301H200.782C196.977 50.3301 193.896 53.3979 193.896 57.1858V105.175C193.896 108.962 196.977 112.03 200.782 112.03H235.212C239.017 112.03 242.099 108.962 242.099 105.175V66.8794C242.098 65.9784 241.919 65.0865 241.573 64.2547C241.227 63.4229 240.72 62.6677 240.081 62.0324Z" fill="white" stroke="#E1E4E5" stroke-width="1.18931"/>
<path d="M205.82 100.392H229.785M205.82 93.6523H229.785" stroke="#E1E4E5" stroke-width="2.56316" stroke-linecap="round" stroke-linejoin="round"/>
<path fill-rule="evenodd" clip-rule="evenodd" d="M228.63 84.2514V85.7998C228.63 86.6547 227.942 87.3485 227.093 87.3485H208.653C207.805 87.3485 207.116 86.6547 207.116 85.7998V84.2266C207.116 79.5406 212.43 76.4963 217.873 76.4963C223.316 76.4963 228.63 79.5421 228.63 84.2266M221.548 65.1669C223.629 67.323 223.629 70.8189 221.548 72.9753C219.466 75.1314 216.09 75.1314 214.009 72.9753C211.926 70.8189 211.926 67.323 214.009 65.1669C216.09 63.0108 219.466 63.0108 221.548 65.1669Z" fill="#003090"/>
<path d="M186.172 116.594L173.351 103.773" stroke="#003090" stroke-width="7.22453" stroke-linecap="round" stroke-linejoin="round"/>
<path d="M149.12 111.299C169.539 111.299 186.092 94.7461 186.092 74.327C186.092 53.9079 169.539 37.355 149.12 37.355C128.7 37.355 112.147 53.9079 112.147 74.327C112.147 94.7461 128.7 111.299 149.12 111.299Z" stroke="#003090" stroke-width="6.6268" stroke-linecap="round" stroke-linejoin="round"/>
</g>
<defs>
<linearGradient id="paint0_linear_2_730" x1="211.452" y1="86.2524" x2="260.633" y2="47.3495" gradientUnits="userSpaceOnUse">
<stop stop-color="white"/>
<stop offset="1" stop-color="#EEEEEE"/>
</linearGradient>
<linearGradient id="paint1_linear_2_730" x1="89.2147" y1="110.505" x2="38.0612" y2="62.9758" gradientUnits="userSpaceOnUse">
<stop stop-color="white"/>
<stop offset="1" stop-color="#EEEEEE"/>
</linearGradient>
<clipPath id="clip0_2_730">
<rect width="189.613" height="115" fill="white" transform="translate(53 23)"/>
</clipPath>
</defs>
</svg>
