<svg width="72" height="72" viewBox="0 0 72 72" fill="none" xmlns="http://www.w3.org/2000/svg">
<path opacity="0.1" d="M0 16C0 8.45753 0 4.68629 2.34315 2.34315C4.68629 0 8.45753 0 16 0H56C63.5425 0 67.3137 0 69.6569 2.34315C72 4.68629 72 8.45753 72 16V56C72 63.5425 72 67.3137 69.6569 69.6569C67.3137 72 63.5425 72 56 72H16C8.45753 72 4.68629 72 2.34315 69.6569C0 67.3137 0 63.5425 0 56V16Z" fill="#003090"/>
<path d="M37.6662 53.9162H24.3329C23.4883 54.0147 22.6324 53.9209 21.8293 53.6416C21.0261 53.3624 20.2966 52.905 19.6954 52.3037C19.0941 51.7025 18.6367 50.973 18.3575 50.1698C18.0782 49.3667 17.9844 48.5108 18.0829 47.6662V34.3329C17.9844 33.4883 18.0782 32.6324 18.3575 31.8293C18.6367 31.0261 19.0941 30.2966 19.6954 29.6954C20.2966 29.0941 21.0261 28.6367 21.8293 28.3575C22.6324 28.0782 23.4883 27.9844 24.3329 28.0829H32.6662C32.9971 28.0851 33.3137 28.2175 33.5477 28.4514C33.7816 28.6854 33.914 29.002 33.9162 29.3329V47.6662C33.9162 50.2995 35.0329 51.4162 37.6662 51.4162C37.9977 51.4162 38.3157 51.5479 38.5501 51.7823C38.7845 52.0168 38.9162 52.3347 38.9162 52.6662C38.9162 52.9977 38.7845 53.3157 38.5501 53.5501C38.3157 53.7845 37.9977 53.9162 37.6662 53.9162ZM24.3329 30.5829C21.6995 30.5829 20.5829 31.6995 20.5829 34.3329V47.6662C20.5829 50.2995 21.6995 51.4162 24.3329 51.4162H32.3329C31.6868 50.2749 31.3695 48.9769 31.4162 47.6662V30.5829H24.3329Z" fill="#003090"/>
<path d="M32.6673 30.5832H24.334C24.0031 30.581 23.6865 30.4486 23.4525 30.2146C23.2186 29.9807 23.0862 29.664 23.084 29.3332V25.9998C23.0835 25.3978 23.2018 24.8016 23.432 24.2454C23.6622 23.6891 23.9997 23.1836 24.4254 22.758C24.8511 22.3323 25.3566 21.9947 25.9128 21.7645C26.4691 21.5343 27.0653 21.4161 27.6673 21.4165H32.8507C33.0404 21.4176 33.2275 21.4616 33.3978 21.5454C33.5681 21.6291 33.7172 21.7503 33.834 21.8998C33.9493 22.0525 34.0286 22.2292 34.0661 22.4167C34.1036 22.6043 34.0983 22.7979 34.0507 22.9832C33.9464 23.4253 33.9016 23.8792 33.9173 24.3332V29.3332C33.9151 29.664 33.7827 29.9807 33.5488 30.2146C33.3148 30.4486 32.9982 30.581 32.6673 30.5832ZM25.584 28.0832H31.4173V23.9165H27.6673C27.1148 23.9165 26.5849 24.136 26.1942 24.5267C25.8035 24.9174 25.584 25.4473 25.584 25.9998V28.0832Z" fill="#003090"/>
<path d="M39.334 38.9168C39.0031 38.9146 38.6865 38.7822 38.4525 38.5483C38.2186 38.3144 38.0862 37.9977 38.084 37.6668V29.3335C38.0862 29.0026 38.2186 28.686 38.4525 28.452C38.6865 28.2181 39.0031 28.0857 39.334 28.0835C39.6648 28.0857 39.9815 28.2181 40.2155 28.452C40.4494 28.686 40.5818 29.0026 40.584 29.3335V37.6668C40.5818 37.9977 40.4494 38.3144 40.2155 38.5483C39.9815 38.7822 39.6648 38.9146 39.334 38.9168Z" fill="#003090"/>
<path d="M46 38.9168C45.6692 38.9146 45.3525 38.7822 45.1185 38.5483C44.8846 38.3144 44.7522 37.9977 44.75 37.6668V29.3335C44.7522 29.0026 44.8846 28.686 45.1185 28.452C45.3525 28.2181 45.6692 28.0857 46 28.0835C46.3308 28.0857 46.6475 28.2181 46.8815 28.452C47.1154 28.686 47.2478 29.0026 47.25 29.3335V37.6668C47.2478 37.9977 47.1154 38.3144 46.8815 38.5483C46.6475 38.7822 46.3308 38.9146 46 38.9168Z" fill="#003090"/>
<path d="M46.0007 53.9168H39.334C39.0031 53.9146 38.6865 53.7822 38.4525 53.5483C38.2186 53.3144 38.0862 52.9977 38.084 52.6668V46.0002C38.0875 45.2277 38.3959 44.4879 38.9421 43.9416C39.4884 43.3954 40.2282 43.087 41.0007 43.0835H44.334C45.1065 43.087 45.8463 43.3954 46.3925 43.9416C46.9387 44.4879 47.2471 45.2277 47.2507 46.0002V52.6668C47.2485 52.9977 47.1161 53.3144 46.8821 53.5483C46.6482 53.7822 46.3315 53.9146 46.0007 53.9168ZM40.584 51.4168H44.7507V46.0002C44.7511 45.9453 44.7406 45.8909 44.7198 45.8402C44.6991 45.7894 44.6684 45.7433 44.6296 45.7045C44.5908 45.6658 44.5447 45.6351 44.494 45.6143C44.4432 45.5935 44.3888 45.5831 44.334 45.5835H41.0007C40.9458 45.5831 40.8914 45.5935 40.8407 45.6143C40.7899 45.6351 40.7438 45.6658 40.705 45.7045C40.6663 45.7433 40.6356 45.7894 40.6148 45.8402C40.594 45.8909 40.5835 45.9453 40.584 46.0002V51.4168Z" fill="#003090"/>
<path d="M26 45.5832C25.6692 45.581 25.3525 45.4486 25.1185 45.2146C24.8846 44.9807 24.7522 44.664 24.75 44.3332V37.6665C24.7522 37.3357 24.8846 37.019 25.1185 36.785C25.3525 36.5511 25.6692 36.4187 26 36.4165C26.3308 36.4187 26.6475 36.5511 26.8815 36.785C27.1154 37.019 27.2478 37.3357 27.25 37.6665V44.3332C27.2478 44.664 27.1154 44.9807 26.8815 45.2146C26.6475 45.4486 26.3308 45.581 26 45.5832Z" fill="#003090"/>
<path d="M47.6669 53.9162H37.6669C36.8223 54.0147 35.9664 53.9209 35.1633 53.6416C34.3601 53.3624 33.6306 52.905 33.0294 52.3037C32.4281 51.7025 31.9707 50.9729 31.6915 50.1698C31.4122 49.3667 31.3183 48.5108 31.4169 47.6662V24.3329C31.3183 23.4883 31.4122 22.6324 31.6915 21.8293C31.9707 21.0261 32.4281 20.2966 33.0294 19.6954C33.6306 19.0941 34.3601 18.6367 35.1633 18.3575C35.9664 18.0782 36.8223 17.9844 37.6669 18.0829H47.6669C48.5114 17.9844 49.3673 18.0782 50.1705 18.3575C50.9736 18.6367 51.7031 19.0941 52.3044 19.6954C52.9056 20.2966 53.363 21.0261 53.6423 21.8293C53.9215 22.6324 54.0154 23.4883 53.9169 24.3329V47.6662C54.0154 48.5108 53.9215 49.3667 53.6423 50.1698C53.363 50.9729 52.9056 51.7025 52.3044 52.3037C51.7031 52.905 50.9736 53.3624 50.1705 53.6416C49.3673 53.9209 48.5114 54.0147 47.6669 53.9162ZM37.6669 20.5829C35.0335 20.5829 33.9169 21.6995 33.9169 24.3329V47.6662C33.9169 50.2995 35.0335 51.4162 37.6669 51.4162H47.6669C50.3002 51.4162 51.4169 50.2995 51.4169 47.6662V24.3329C51.4169 21.6995 50.3002 20.5829 47.6669 20.5829H37.6669Z" fill="#003090"/>
</svg>
