<svg width="72" height="72" viewBox="0 0 72 72" fill="none" xmlns="http://www.w3.org/2000/svg">
<path opacity="0.1" d="M0 16C0 8.45753 0 4.68629 2.34315 2.34315C4.68629 0 8.45753 0 16 0H56C63.5425 0 67.3137 0 69.6569 2.34315C72 4.68629 72 8.45753 72 16V56C72 63.5425 72 67.3137 69.6569 69.6569C67.3137 72 63.5425 72 56 72H16C8.45753 72 4.68629 72 2.34315 69.6569C0 67.3137 0 63.5425 0 56V16Z" fill="#003090"/>
<path d="M35.1673 52.2502C30.6365 52.2502 26.2913 50.4503 23.0876 47.2466C19.8838 44.0428 18.084 39.6976 18.084 35.1668C18.084 30.636 19.8838 26.2908 23.0876 23.0871C26.2913 19.8833 30.6365 18.0835 35.1673 18.0835C35.4982 18.0857 35.8148 18.2181 36.0488 18.452C36.2827 18.686 36.4151 19.0026 36.4173 19.3335C36.4151 19.6643 36.2827 19.981 36.0488 20.215C35.8148 20.4489 35.4982 20.5813 35.1673 20.5835C32.283 20.5835 29.4635 21.4388 27.0653 23.0412C24.667 24.6437 22.7979 26.9213 21.6941 29.586C20.5903 32.2508 20.3015 35.183 20.8642 38.0119C21.4269 40.8408 22.8158 43.4393 24.8553 45.4788C26.8949 47.5183 29.4934 48.9072 32.3223 49.4699C35.1511 50.0326 38.0834 49.7439 40.7481 48.6401C43.4129 47.5363 45.6905 45.6671 47.2929 43.2689C48.8954 40.8707 49.7507 38.0511 49.7507 35.1668C49.7507 34.8353 49.8823 34.5174 50.1168 34.2829C50.3512 34.0485 50.6691 33.9168 51.0007 33.9168C51.3322 33.9168 51.6501 34.0485 51.8845 34.2829C52.119 34.5174 52.2507 34.8353 52.2507 35.1668C52.2445 39.6957 50.4426 44.0373 47.2402 47.2398C44.0378 50.4422 39.6962 52.244 35.1673 52.2502Z" fill="#003090"/>
<path d="M52.6697 53.9218C52.5055 53.9224 52.3428 53.8903 52.1911 53.8273C52.0395 53.7644 51.9019 53.6719 51.7863 53.5552L48.453 50.2218C48.2183 49.9876 48.0863 49.6696 48.0859 49.338C48.0856 49.0064 48.2171 48.6882 48.4513 48.4535C48.6856 48.2188 49.0035 48.0867 49.3352 48.0864C49.6668 48.0861 49.985 48.2176 50.2197 48.4518L53.553 51.7852C53.7855 52.0204 53.9158 52.3378 53.9158 52.6685C53.9158 52.9992 53.7855 53.3166 53.553 53.5518C53.4378 53.6691 53.3003 53.7623 53.1486 53.8258C52.9969 53.8893 52.8341 53.922 52.6697 53.9218Z" fill="#003090"/>
<path d="M45.1669 31.8999C43.7535 31.6528 42.4324 31.0305 41.3418 30.0982C40.2511 29.1658 39.4309 27.9577 38.9669 26.5999C38.5199 25.3856 38.5661 24.0445 39.0956 22.8639C39.6252 21.6832 40.5961 20.7569 41.8003 20.2832C42.3545 20.0991 42.9428 20.0409 43.5223 20.113C44.1019 20.1851 44.658 20.3856 45.1503 20.6999C45.647 20.3889 46.2058 20.1904 46.7874 20.1184C47.369 20.0464 47.9594 20.1027 48.5169 20.2832C49.7233 20.7541 50.6964 21.6801 51.2264 22.8617C51.7564 24.0433 51.8009 25.3858 51.3503 26.5999C50.8801 27.9511 50.0602 29.1535 48.974 30.0845C47.8877 31.0155 46.5741 31.642 45.1669 31.8999ZM41.3503 25.8499C41.6713 26.6995 42.1843 27.4635 42.8492 28.0822C43.5141 28.7009 44.3131 29.1576 45.1836 29.4166C46.0413 29.1489 46.8273 28.6905 47.4826 28.0756C48.1378 27.4608 48.6453 26.7056 48.9669 25.8666C49.2043 25.2805 49.2108 24.6262 48.985 24.0355C48.7593 23.4448 48.3181 22.9616 47.7503 22.6832C47.4804 22.5851 47.1868 22.5725 46.9095 22.647C46.6322 22.7216 46.3846 22.8797 46.2003 23.0999C46.0904 23.2695 45.9408 23.4097 45.7645 23.5083C45.5882 23.607 45.3904 23.6611 45.1885 23.6661C44.9865 23.671 44.7863 23.6266 44.6054 23.5366C44.4245 23.4467 44.2683 23.3139 44.1503 23.1499C43.9692 22.9149 43.7195 22.7421 43.4358 22.6555C43.152 22.5689 42.8484 22.5727 42.5669 22.6666C42.0016 22.9476 41.5626 23.431 41.3372 24.0208C41.1118 24.6105 41.1165 25.2634 41.3503 25.8499Z" fill="#003090"/>
</svg>
