<svg width="72" height="72" viewBox="0 0 72 72" fill="none" xmlns="http://www.w3.org/2000/svg">
<path opacity="0.1" d="M0 16C0 8.45753 0 4.68629 2.34315 2.34315C4.68629 0 8.45753 0 16 0H56C63.5425 0 67.3137 0 69.6569 2.34315C72 4.68629 72 8.45753 72 16V56C72 63.5425 72 67.3137 69.6569 69.6569C67.3137 72 63.5425 72 56 72H16C8.45753 72 4.68629 72 2.34315 69.6569C0 67.3137 0 63.5425 0 56V16Z" fill="#003090"/>
<path d="M45.0841 53.9168C43.0436 53.8783 41.0316 53.4306 39.1674 52.6002C37.0525 51.6797 35.0459 50.5283 33.1841 49.1668C31.201 47.7073 29.3241 46.1088 27.5674 44.3835C25.8369 42.6375 24.2381 40.7657 22.7841 38.7835C21.4361 36.9367 20.2959 34.9469 19.3841 32.8502C18.5598 30.9729 18.1178 28.9502 18.0841 26.9002C18.0788 25.6404 18.3106 24.3909 18.7674 23.2168C19.2617 21.9861 20.0247 20.8814 21.0007 19.9835C21.5565 19.3941 22.2249 18.9222 22.9664 18.5958C23.7079 18.2694 24.5074 18.0952 25.3174 18.0835C25.9679 18.0846 26.6105 18.2268 27.2007 18.5002C27.8496 18.7921 28.4038 19.2597 28.8007 19.8502L32.6674 25.3002C32.9927 25.7368 33.2615 26.2128 33.4674 26.7168C33.6788 27.1833 33.7923 27.6881 33.8007 28.2002C33.7944 28.8486 33.6099 29.4828 33.2674 30.0335C32.9611 30.5541 32.5854 31.0307 32.1507 31.4502L31.0174 32.6335C31.031 32.6736 31.0477 32.7126 31.0674 32.7502C31.4666 33.4065 31.924 34.0257 32.4341 34.6002C33.2507 35.5335 34.0174 36.3835 34.7841 37.1668C35.7674 38.1335 36.5841 38.9002 37.3507 39.5335C37.9426 40.064 38.5909 40.5279 39.2841 40.9168L39.2507 41.0002L40.4674 39.8002C40.906 39.3427 41.4118 38.9549 41.9674 38.6502C42.4543 38.3601 43.0041 38.192 43.5699 38.16C44.1358 38.1281 44.701 38.2334 45.2174 38.4668C45.7104 38.6777 46.1797 38.9403 46.6174 39.2502L52.1507 43.1835C52.7413 43.5685 53.2051 44.1193 53.4841 44.7668C53.7205 45.3378 53.845 45.9489 53.8507 46.5668C53.8469 47.3797 53.6649 48.1819 53.3174 48.9168C52.9795 49.6487 52.5297 50.3234 51.9841 50.9168C51.114 51.9141 50.0243 52.6957 48.8007 53.2002C47.6199 53.6775 46.3577 53.9209 45.0841 53.9168ZM25.3174 20.5835C24.8284 20.6003 24.3477 20.7152 23.904 20.9214C23.4602 21.1275 23.0624 21.4207 22.7341 21.7835C22.019 22.4333 21.4606 23.2368 21.1007 24.1335C20.7505 25.0134 20.575 25.9531 20.5841 26.9002C20.6161 28.6125 20.9901 30.3011 21.6841 31.8668C22.5204 33.7903 23.5715 35.6129 24.8174 37.3002C26.1872 39.1782 27.6971 40.9499 29.3341 42.6002C30.9912 44.2413 32.7683 45.7566 34.6507 47.1335C36.3492 48.394 38.1895 49.4512 40.1341 50.2835C41.316 50.8917 42.6079 51.2568 43.9333 51.357C45.2588 51.4572 46.5908 51.2905 47.8507 50.8668C48.7292 50.5008 49.5108 49.936 50.1341 49.2168C50.5164 48.8017 50.8313 48.3294 51.0674 47.8168C51.2628 47.4171 51.3653 46.9784 51.3674 46.5335C51.3673 46.2457 51.3047 45.9614 51.1841 45.7002C51.0775 45.4937 50.916 45.3207 50.7174 45.2002L45.1841 41.2668C44.8985 41.0614 44.591 40.8881 44.2674 40.7502C44.1074 40.6358 43.9136 40.5785 43.7171 40.5875C43.5206 40.5966 43.3329 40.6715 43.1841 40.8002C42.8235 40.9963 42.497 41.2496 42.2174 41.5502L40.9507 42.8002C40.6324 43.0969 40.2386 43.3005 39.8124 43.3887C39.3863 43.4769 38.944 43.4462 38.5341 43.3002L38.0841 43.1002C37.2398 42.6214 36.4467 42.0573 35.7174 41.4168C34.9174 40.7335 34.0507 39.9335 33.0007 38.9002C32.1841 38.0668 31.3674 37.1835 30.5174 36.2002C29.8721 35.4768 29.3025 34.6894 28.8174 33.8502L28.6174 33.3502C28.5353 33.0797 28.4905 32.7994 28.4841 32.5168C28.4799 32.2292 28.5339 31.9436 28.6427 31.6773C28.7515 31.4109 28.913 31.1693 29.1174 30.9668L30.3674 29.6668C30.6551 29.388 30.9071 29.0745 31.1174 28.7335C31.231 28.5658 31.2946 28.3693 31.3007 28.1668C31.2884 27.9825 31.2433 27.8019 31.1674 27.6335C31.022 27.3207 30.8432 27.0245 30.6341 26.7502L26.7674 21.2835C26.6114 21.0596 26.3985 20.8812 26.1507 20.7668C25.8886 20.649 25.6048 20.5866 25.3174 20.5835ZM39.2507 41.0168L38.9841 42.1502L39.4341 40.9835C39.4031 40.9742 39.3703 40.9723 39.3384 40.9781C39.3065 40.9839 39.2765 40.9972 39.2507 41.0168Z" fill="#003090"/>
</svg>
