<svg width="302" height="302" viewBox="0 0 302 302" fill="none" xmlns="http://www.w3.org/2000/svg">
    <path
        d="M0 151C0 67.605 67.605 0 151 0C234.395 0 302 67.605 302 151C302 234.395 234.395 302 151 302H8.00001C3.58173 302 0 298.418 0 294V151Z"
        fill="#F8F8F8" />
    <g clip-path="url(#clip0_2_1541)">
        <path
            d="M203.787 135.294C199.882 137.796 195.24 135.95 188.584 131.526C183.579 128.199 178.977 125.235 175.234 119.541C172.614 115.557 171.143 111.273 170.42 107.489C169.636 103.39 168.152 98.3968 171.469 95.9923C176.025 92.69 190.608 95.6426 199.541 108.307C209.353 122.22 207.605 132.849 203.787 135.294Z"
            fill="#F8F8F8" />
        <path
            d="M228.113 175.987C223.077 178.485 216.395 175.273 216.395 175.273C216.395 175.273 217.88 168.013 222.918 165.519C227.953 163.021 234.633 166.229 234.633 166.229C234.633 166.229 233.148 173.489 228.113 175.987Z"
            fill="white" />
        <path
            d="M64.9134 124.657C73.0636 129.542 84.7565 125.026 84.7565 125.026C84.7565 125.026 83.2276 112.593 75.0727 107.714C66.9226 102.829 55.2344 107.339 55.2344 107.339C55.2344 107.339 56.7636 119.773 64.9134 124.657Z"
            fill="#D6D6D6" />
        <path
            d="M229.784 121.21C226.925 121.21 224.607 123.528 224.607 126.388C224.607 129.247 226.925 131.565 229.784 131.565C232.644 131.565 234.962 129.247 234.962 126.388C234.962 123.528 232.644 121.21 229.784 121.21Z"
            fill="#003090" />
        <path
            d="M75.5568 140.785C73.2027 140.785 71.2943 142.693 71.2943 145.047C71.2943 147.401 73.2027 149.31 75.5568 149.31C77.9109 149.31 79.8193 147.401 79.8193 145.047C79.8193 142.693 77.9109 140.785 75.5568 140.785Z"
            fill="#003090" />
        <path
            d="M97.6702 228.297C94.9893 228.297 92.816 226.124 92.816 223.443C92.816 220.762 94.9893 218.589 97.6702 218.589C100.351 218.589 102.524 220.762 102.524 223.443C102.524 226.124 100.351 228.297 97.6702 228.297Z"
            fill="#003090" />
        <path
            d="M237.122 186.145C235.871 186.145 234.857 185.131 234.857 183.88C234.857 182.628 235.871 181.614 237.122 181.614C238.373 181.614 239.388 182.628 239.388 183.88C239.388 185.131 238.373 186.145 237.122 186.145Z"
            fill="#003090" />
        <path
            d="M188.746 219.072C187.137 219.072 185.833 217.768 185.833 216.16C185.833 214.551 187.137 213.247 188.746 213.247C190.354 213.247 191.658 214.551 191.658 216.16C191.658 217.768 190.354 219.072 188.746 219.072Z"
            fill="#D6D6D6" />
        <path
            d="M58.9502 201.011C56.6268 201.011 54.7433 199.127 54.7433 196.804C54.7433 194.48 56.6268 192.597 58.9502 192.597C61.2737 192.597 63.1572 194.48 63.1572 196.804C63.1572 199.127 61.2737 201.011 58.9502 201.011Z"
            fill="#D6D6D6" />
        <path
            d="M233.644 223.286C231.875 223.286 230.442 221.853 230.442 220.084C230.442 218.316 231.875 216.882 233.644 216.882C235.412 216.882 236.846 218.316 236.846 220.084C236.846 221.853 235.412 223.286 233.644 223.286Z"
            fill="#D6D6D6" />
        <path
            d="M234.757 104.535C232.791 104.535 231.197 102.941 231.197 100.975C231.197 99.0088 232.791 97.415 234.757 97.415C236.723 97.415 238.316 99.0088 238.316 100.975C238.316 102.941 236.723 104.535 234.757 104.535Z"
            fill="#D6D6D6" />
        <path
            d="M51.4958 152.487C51.9527 154.192 50.9408 155.945 49.2355 156.402C47.5302 156.859 45.7774 155.847 45.3205 154.141C44.8636 152.436 45.8756 150.683 47.5808 150.226C49.2861 149.769 51.0389 150.781 51.4958 152.487Z"
            fill="#D6D6D6" />
        <path
            d="M109.872 91.441C109.137 91.441 108.541 90.8454 108.541 90.1107C108.541 89.3759 109.137 88.7803 109.872 88.7803C110.607 88.7803 111.202 89.3759 111.202 90.1107C111.202 90.8454 110.607 91.441 109.872 91.441Z"
            fill="#D6D6D6" />
        <path
            d="M227.878 199.295C226.072 199.295 224.607 198.123 224.607 196.678C224.607 195.233 226.072 194.061 227.878 194.061C229.685 194.061 231.149 195.233 231.149 196.678C231.149 198.123 229.685 199.295 227.878 199.295Z"
            fill="#D6D6D6" />
        <path
            d="M217.652 154.524C217.652 117.139 187.311 86.7983 149.926 86.7983C112.541 86.7983 82.2002 117.139 82.2002 154.524C82.2002 191.909 112.541 222.25 149.926 222.25"
            stroke="#D6D6D6" stroke-width="7.57333" stroke-linecap="round" stroke-linejoin="round" />
        <path
            d="M122.836 93.5708H129.609C116.403 133.133 116.403 175.915 129.609 215.477H122.836M170.244 93.5708C176.813 113.347 180.132 133.935 180.132 154.524"
            stroke="#D6D6D6" stroke-width="7.57333" stroke-linecap="round" stroke-linejoin="round" />
        <path
            d="M88.9727 181.614V174.842C108.749 181.411 129.337 184.73 149.926 184.73M88.9727 134.207C128.535 121.001 171.317 121.001 210.879 134.207"
            stroke="#D6D6D6" stroke-width="7.57333" stroke-linecap="round" stroke-linejoin="round" />
        <path
            d="M132.328 76.4087H69.4752C65.9896 76.4087 63.1641 79.2343 63.1641 82.7198V161.925C63.1641 165.411 65.9896 168.236 69.4752 168.236H132.328C135.813 168.236 138.639 165.411 138.639 161.925V82.7198C138.639 79.2343 135.813 76.4087 132.328 76.4087Z"
            fill="white" stroke="#D6D6D6" stroke-width="1.26222" stroke-linecap="round" stroke-linejoin="round" />
        <mask id="mask0_2_1541" style="mask-type:alpha" maskUnits="userSpaceOnUse" x="61" y="74" width="80"
            height="101">
            <path d="M63.1641 76.4097H138.578V172.324H63.1641V76.4097Z" fill="white" stroke="white"
                stroke-width="3.47111" stroke-linecap="round" stroke-linejoin="round" />
        </mask>
        <g mask="url(#mask0_2_1541)">
            <path
                d="M106.233 92.8828H95.1422C86.9838 92.8828 80.3701 99.4965 80.3701 107.655V118.746C80.3701 126.904 86.9838 133.518 95.1422 133.518H106.233C114.392 133.518 121.005 126.904 121.005 118.746V107.655C121.005 99.4965 114.392 92.8828 106.233 92.8828Z"
                fill="#003090" />
            <path fill-rule="evenodd" clip-rule="evenodd"
                d="M109.922 121.724V123.083C109.922 123.833 109.322 124.441 108.582 124.441H92.4931C91.7532 124.441 91.1523 123.833 91.1523 123.083V121.702C91.1523 117.591 95.7885 114.92 100.537 114.92C105.286 114.92 109.922 117.592 109.922 121.702M103.902 102.985C105.761 104.844 105.761 107.858 103.902 109.717C102.043 111.576 99.0289 111.576 97.17 109.717C95.3107 107.858 95.3107 104.844 97.17 102.985C99.0289 101.126 102.043 101.126 103.902 102.985Z"
                fill="white" />
            <path
                d="M123.019 147.063H79.0886C77.7744 147.063 76.709 148.129 76.709 149.443C76.709 150.757 77.7744 151.823 79.0886 151.823H123.019C124.333 151.823 125.398 150.757 125.398 149.443C125.398 148.129 124.333 147.063 123.019 147.063Z"
                fill="#D6D6D6" />
            <path
                d="M122.653 137.545H79.4546C77.9383 137.545 76.709 138.775 76.709 140.291C76.709 141.807 77.9383 143.037 79.4546 143.037H122.653C124.169 143.037 125.398 141.807 125.398 140.291C125.398 138.775 124.169 137.545 122.653 137.545Z"
                fill="#D6D6D6" />
            <path
                d="M122.653 155.849H79.4546C77.9383 155.849 76.709 157.078 76.709 158.595C76.709 160.111 77.9383 161.34 79.4546 161.34H122.653C124.169 161.34 125.398 160.111 125.398 158.595C125.398 157.078 124.169 155.849 122.653 155.849Z"
                fill="#D6D6D6" />
            <path
                d="M75.9768 84.4635C75.9768 83.0482 74.8295 81.9009 73.4142 81.9009C71.9989 81.9009 70.8516 83.0482 70.8516 84.4635C70.8516 85.8788 71.9989 87.0261 73.4142 87.0261C74.8295 87.0261 75.9768 85.8788 75.9768 84.4635Z"
                fill="#D6D6D6" />
            <path
                d="M83.2981 84.4635C83.2981 83.0482 82.1508 81.9009 80.7355 81.9009C79.3202 81.9009 78.1729 83.0482 78.1729 84.4635C78.1729 85.8788 79.3202 87.0261 80.7355 87.0261C82.1508 87.0261 83.2981 85.8788 83.2981 84.4635Z"
                fill="#D6D6D6" />
            <path
                d="M90.6194 84.4635C90.6194 83.0482 89.4721 81.9009 88.0568 81.9009C86.6415 81.9009 85.4941 83.0482 85.4941 84.4635C85.4941 85.8788 86.6415 87.0261 88.0568 87.0261C89.4721 87.0261 90.6194 85.8788 90.6194 84.4635Z"
                fill="#D6D6D6" />
        </g>
        <path
            d="M209.469 78.3789H198.378C190.219 78.3789 183.605 84.9926 183.605 93.151V104.242C183.605 112.401 190.219 119.014 198.378 119.014H209.469C217.627 119.014 224.241 112.401 224.241 104.242V93.151C224.241 84.9926 217.627 78.3789 209.469 78.3789Z"
            fill="#003090" />
        <path
            d="M185.863 187H174.772C166.614 187 160 193.614 160 201.772V212.863C160 221.022 166.614 227.635 174.772 227.635H185.863C194.022 227.635 200.635 221.022 200.635 212.863V201.772C200.635 193.614 194.022 187 185.863 187Z"
            fill="#003090" />
        <path fill-rule="evenodd" clip-rule="evenodd"
            d="M213.158 107.219V108.578C213.158 109.328 212.557 109.936 211.817 109.936H195.728C194.989 109.936 194.388 109.328 194.388 108.578V107.198C194.388 103.087 199.024 100.415 203.773 100.415C208.521 100.415 213.158 103.088 213.158 107.198M207.138 88.4799C208.997 90.3392 208.997 93.3533 207.138 95.2123C205.278 97.0715 202.264 97.0715 200.405 95.2123C198.546 93.3533 198.546 90.3392 200.405 88.4799C202.264 86.6213 205.278 86.6213 207.138 88.4799Z"
            fill="white" />
        <path fill-rule="evenodd" clip-rule="evenodd"
            d="M189.552 215.84V217.199C189.552 217.949 188.952 218.558 188.212 218.558H172.123C171.383 218.558 170.782 217.949 170.782 217.199V215.819C170.782 211.708 175.418 209.037 180.167 209.037C184.916 209.037 189.552 211.709 189.552 215.819M183.532 197.101C185.391 198.96 185.391 201.974 183.532 203.833C181.673 205.693 178.659 205.693 176.8 203.833C174.941 201.974 174.941 198.96 176.8 197.101C178.659 195.242 181.673 195.242 183.532 197.101Z"
            fill="white" />
        <path
            d="M179.815 127.068H168.724C160.566 127.068 153.952 133.682 153.952 141.84V152.931C153.952 161.09 160.566 167.703 168.724 167.703H179.815C187.974 167.703 194.587 161.09 194.587 152.931V141.84C194.587 133.682 187.974 127.068 179.815 127.068Z"
            fill="#003090" />
        <path fill-rule="evenodd" clip-rule="evenodd"
            d="M183.504 155.909V157.267C183.504 158.017 182.904 158.626 182.164 158.626H166.075C165.335 158.626 164.734 158.017 164.734 157.267V155.887C164.734 151.776 169.371 149.105 174.119 149.105C178.868 149.105 183.504 151.777 183.504 155.887M177.484 137.169C179.343 139.028 179.343 142.042 177.484 143.902C175.625 145.761 172.611 145.761 170.752 143.902C168.893 142.042 168.893 139.028 170.752 137.169C172.611 135.31 175.625 135.31 177.484 137.169Z"
            fill="white" />
    </g>
    <defs>
        <clipPath id="clip0_2_1541">
            <rect width="284" height="189.333" fill="white" transform="translate(0 60)" />
        </clipPath>
    </defs>
</svg>