<svg width="351" height="364" viewBox="0 0 351 364" fill="none" xmlns="http://www.w3.org/2000/svg">
    <path
        d="M1 196C1 112.605 68.605 45 152 45H295C299.418 45 303 48.5817 303 53V196C303 279.395 235.395 347 152 347V347C68.605 347 1 279.395 1 196V196Z"
        stroke="#003090" stroke-width="2" stroke-linecap="round" stroke-dasharray="12 12" />
    <circle cx="38.5" cy="13.5" r="13.5" fill="#F55157" />
    <path
        d="M341.692 42.2482C343.907 40.4022 344.059 37.0524 342.02 35.0134C339.966 32.9596 336.588 33.131 334.752 35.382L321.518 51.6131C320.582 52.761 320.666 54.431 321.714 55.4783C322.769 56.534 324.456 56.6105 325.603 55.6548L341.692 42.2482Z"
        fill="#003090" />
    <path
        d="M325.777 33.7178C326.519 31.6999 325.368 29.4801 323.292 28.9237C321.2 28.3631 319.082 29.7335 318.736 31.8713L316.241 47.2862C316.065 48.3764 316.742 49.4232 317.809 49.709C318.884 49.9971 320.001 49.4178 320.386 48.3731L325.777 33.7178Z"
        fill="#003090" />
    <path
        d="M344.152 59.0984C346.282 58.8017 347.697 56.7405 347.209 54.6465C346.717 52.5375 344.51 51.3157 342.462 52.0185L327.691 57.0855C326.646 57.4438 326.042 58.5346 326.293 59.6102C326.546 60.6942 327.584 61.4066 328.686 61.253L344.152 59.0984Z"
        fill="#003090" />
    <path
        d="M163 62.5H306C310.142 62.5 313.5 65.8579 313.5 70V213C313.5 296.119 246.119 363.5 163 363.5C79.8811 363.5 12.5 296.119 12.5 213C12.5 129.881 79.8811 62.5 163 62.5Z"
        fill="#F8F8F8" stroke="#D6D6D6" />
    <g clip-path="url(#clip0_0_1)">
        <mask id="mask0_0_1" style="mask-type:luminance" maskUnits="userSpaceOnUse" x="-32" y="71" width="380"
            height="254">
            <path d="M347.804 71.4316H-31.9305V324.588H347.804V71.4316Z" fill="white" />
        </mask>
        <g mask="url(#mask0_0_1)">
            <path
                d="M89.7716 126.689H258.733C266.663 126.689 273.091 133.118 273.091 141.047V244.935C273.091 252.864 266.663 259.293 258.733 259.293H89.7716C81.842 259.293 75.4138 252.864 75.4138 244.935V141.047C75.4138 133.118 81.842 126.689 89.7716 126.689Z"
                fill="white" stroke="#D6D6D6" stroke-width="1.24848" />
            <path
                d="M257.579 140.349C255.972 140.349 254.669 139.047 254.669 137.44C254.669 135.833 255.972 134.53 257.579 134.53C259.186 134.53 260.488 135.833 260.488 137.44C260.488 139.047 259.186 140.349 257.579 140.349Z"
                fill="#D6D6D6" />
            <path
                d="M247.527 140.349C245.92 140.349 244.617 139.047 244.617 137.44C244.617 135.833 245.92 134.53 247.527 134.53C249.134 134.53 250.437 135.833 250.437 137.44C250.437 139.047 249.134 140.349 247.527 140.349Z"
                fill="#D6D6D6" />
            <path
                d="M237.475 140.349C235.868 140.349 234.566 139.047 234.566 137.44C234.566 135.833 235.868 134.53 237.475 134.53C239.082 134.53 240.385 135.833 240.385 137.44C240.385 139.047 239.082 140.349 237.475 140.349Z"
                fill="#D6D6D6" />
            <path
                d="M36.473 187.93C38.7962 162.805 80.5956 163.258 80.5956 163.258C80.5956 163.258 115.394 200.466 123.567 200.075C131.739 199.684 100.025 162.45 100.025 162.45C115.262 158.257 158.06 170.378 158.06 170.378C158.06 170.378 164.084 219.802 171.909 217.412C179.735 215.021 164.343 173.919 164.343 173.919C180.121 175.81 197.163 190.873 197.163 190.873C219.618 216.321 185.78 243.844 185.78 243.844C185.78 243.844 188.236 260.927 202.128 278.595C202.128 278.595 205.121 281.782 208.595 287.483L204.508 288.195C203.997 287.178 203.442 286.185 202.846 285.216C202.842 285.208 202.84 285.204 202.833 285.198C202.822 285.183 202.817 285.171 202.807 285.157C202.419 284.575 201.856 283.743 201.164 282.738L201.162 282.734L201.161 282.73C199.487 280.5 198.326 278.842 197.569 277.633L197.563 277.621C192.485 270.594 185.354 261.532 181.393 260.061C181.393 260.061 181.735 259.347 181.943 258.035C181.766 258.681 181.588 259.356 181.393 260.061C177.004 276.276 142.445 284.863 122.253 284.255C102.061 283.647 109.601 276.67 118.548 265.919C127.495 255.168 149.899 253.694 155.786 249.064C161.674 244.434 151.57 242.588 138.743 245.848C125.922 249.11 121.68 263.237 101.034 268.89C80.388 274.543 57.5183 237.831 57.5183 237.831C72.7988 239.811 97.4035 227.285 97.5339 222.115C97.663 216.94 59.2567 224.137 52.9995 223.681C46.733 223.225 34.1499 213.055 36.473 187.93Z"
                fill="url(#paint0_linear_0_1)" />
            <path
                d="M250.83 215.599C245.22 206.517 229.468 214.558 229.468 214.558C229.468 214.558 223.288 235.207 220.118 236.597C216.948 237.987 221.955 217.91 221.955 217.91C215.393 219.189 201.459 231.839 201.459 231.839C201.459 231.839 208.481 251.699 205.066 252.266C201.652 252.833 199.745 234.363 199.745 234.363C194.123 238.05 190.502 246.965 190.502 246.965C186.785 260.835 204.787 264.892 204.787 264.892C204.787 264.892 207.072 271.827 205.135 281.136C205.135 281.136 204.601 282.908 204.358 285.721L206.041 285.221C206.043 284.74 206.066 284.259 206.11 283.78C206.11 283.776 206.109 283.775 206.111 283.771C206.112 283.763 206.112 283.758 206.113 283.75C206.151 283.457 206.207 283.036 206.28 282.525L206.28 282.523V282.521C206.494 281.361 206.622 280.514 206.681 279.914L206.681 279.908C207.283 276.29 208.278 271.514 209.502 270.211C209.502 270.211 209.238 270.005 208.912 269.546C209.101 269.758 209.296 269.98 209.502 270.211C214.217 275.528 228.928 272.275 236.464 268.243C244 264.212 239.829 262.988 234.416 260.599C229.002 258.21 220.236 261.869 217.134 261.223C214.031 260.577 217.512 257.976 222.985 256.796C228.457 255.619 232.724 260.173 241.611 258.428C250.497 256.683 252.251 238.468 252.251 238.468C246.834 242.095 235.154 241.981 234.131 240.047C233.108 238.11 249.014 233.607 251.299 232.256C253.587 230.903 256.441 224.682 250.83 215.599Z"
                fill="url(#paint1_linear_0_1)" />
            <path
                d="M166.068 199.714C164.28 202.519 159.609 205.787 156.295 205.743C145.008 205.536 141.292 197.847 140.074 195.048C140.303 194.992 140.689 194.947 140.962 194.913C143.041 194.612 145.164 192.556 145.785 190.237C146.584 187.219 147.567 181.319 147.45 177.569L161.727 185.47C161.704 186.554 161.632 187.739 161.531 188.935C161.458 189.661 161.386 190.377 161.302 191.069C161.224 191.734 161.134 192.365 161.051 192.947C160.788 194.903 161.66 196.841 163.308 197.92L166.068 199.714Z"
                fill="#F8AE9D" />
            <path
                d="M167.298 168.981C166.526 171.004 166.85 173.3 167.633 175.318C168.186 176.743 169.415 175.485 170.947 175.513C173.316 175.552 175.165 173.088 176.596 166.556C177.507 161.762 177.736 159.331 177.551 158.867C176.897 157.207 174.74 156.319 172.964 156.163"
                fill="#444444" />
            <path
                d="M170.902 154.615C174.635 159.113 175.993 171.769 172.841 180.587C170.6 186.856 167.996 190.902 164.957 190.773C160.341 190.578 151.395 186.783 148.484 183.615C143.237 177.91 144.762 166.723 145.846 159.683C146.83 153.285 149.825 144.976 157.866 146.557C163.152 147.591 167.555 150.575 170.902 154.615Z"
                fill="#F8AE9D" />
            <path
                d="M149.784 159.583C150.611 160.647 152.071 160.881 153.273 161.091C154.89 161.374 155.689 161.963 156.529 163.544C157.06 164.553 157.591 165.659 158.542 166.206C159.315 166.652 159.285 165.512 159.409 164.628C159.421 164.551 159.437 164.475 159.457 164.4C159.644 163.695 160.395 163.816 160.617 164.511C160.818 165.136 161.249 165.665 161.797 165.959C161.886 166.007 161.981 166.049 162.076 166.031C162.205 166.014 162.306 165.893 162.39 165.785C162.565 165.558 162.741 165.27 162.921 164.964C163.515 163.962 164.635 164.322 165.298 165.28C165.711 165.875 166.204 166.488 166.881 166.626C167.099 166.674 167.372 166.638 167.473 166.428C167.602 166.17 167.401 165.911 167.434 165.647C167.462 165.4 167.568 165.292 167.686 165.082C168.148 164.264 169.2 164.235 169.849 164.914C170.3 165.385 170.771 165.838 171.26 166.272C171.466 166.452 171.769 166.633 171.975 166.452C172.087 166.356 172.115 166.194 172.138 166.037C172.255 165.274 172.367 164.511 172.484 163.748C172.552 163.321 172.781 162.762 173.172 162.87C173.362 162.925 173.474 163.123 173.58 163.303C173.709 163.531 176.008 166.133 176.052 165.935C176.411 164.457 177.143 163.111 177.501 161.632C179.816 152.119 169.542 144.469 161.696 144.427C159.951 144.415 158.357 144.443 156.663 144.846C154.856 145.278 152.949 145.965 151.311 146.933C149.012 148.285 147.272 150.743 147.72 153.676"
                fill="#444444" />
            <path
                d="M153.478 156.319C154.618 157.61 154.92 159.426 155.026 161.141C155.183 163.729 154.97 166.416 153.775 168.713C153.434 169.366 153.182 172.602 152.657 172.423C152.489 172.367 152.517 169.858 152.076 168.506C151.394 166.41 148.254 165.612 146.84 166.936C144.583 169.042 145.907 171.602 146.656 173.194C147.103 174.155 147.812 175.234 147.936 176.25C148.086 177.553 148.131 182.297 147.282 183.403C146.572 184.33 145.818 179.849 145.175 178.966C140.42 172.389 135.86 155.643 143.979 152.011C145.214 151.458 149.025 151.172 150.182 151.877M183.541 289.442C184.011 289.521 184.485 289.588 184.977 289.605C187.593 289.688 190.118 289.113 192.672 288.677C194.918 288.291 195.527 288.079 195.482 285.369C195.091 263.906 191.934 242.499 186.257 221.797C185.391 218.634 184.447 215.449 182.787 212.621C179.954 207.799 173.45 203.636 168.46 201.301C167.756 200.971 164.839 202.826 164.129 202.507C163.509 202.228 162.961 201.792 162.336 201.518C160.503 200.719 159.274 202.39 157.742 203.089C156.949 203.446 156.066 203.675 155.194 203.636C154.485 203.608 153.842 203.178 153.194 203.513C150.277 205.022 143.035 193.824 143.035 193.824L139.889 197.093L130.709 206.709L107.765 238.32C107.765 238.32 103.602 264.225 100.741 281.206C100.244 284.134 98.2773 290.465 97.8862 292.683C97.9697 292.203 117.471 292.074 118.522 292.074H158.268C160.497 292.074 166.493 293.018 168.057 291.381C169.985 289.37 172.215 280.139 172.332 277.551C172.718 268.851 172.12 260.218 172.002 251.468C172.053 255.027 173.075 258.246 173.511 261.732C174.076 266.22 174.88 270.701 175.606 275.165C176.188 278.753 176.746 282.351 177.194 285.961C177.395 287.587 177.138 288.554 178.512 289.191C179.669 289.722 182.189 289.213 183.541 289.442Z"
                fill="#444444" />
            <path
                d="M173.859 282.01C172.797 281.574 166.242 279.949 163.287 279.334C161.739 279.015 154.72 277.194 153.095 277.194C151.469 277.194 149.256 279.518 149.256 279.518L149.842 287.514C151.407 287.358 153.502 288.168 154.625 288.325C155.749 288.481 159.565 288.503 161.912 287.324C162.046 287.257 162.169 287.185 162.292 287.112C163.236 287.95 164.421 288.766 165.734 288.833C165.734 288.833 166.762 288.727 166.662 288.313C166.617 288.112 165.935 287.073 165.253 286.056C166.259 287.078 167.902 288.738 169.796 288.833C169.796 288.833 170.824 288.727 170.724 288.313C170.668 288.067 169.684 286.598 168.891 285.43C168.902 285.441 168.919 285.447 168.925 285.458C169.757 286.19 171.735 288.716 174.077 288.833C174.077 288.833 175.105 288.727 175.004 288.313C174.971 288.163 174.58 287.542 174.105 286.821C174.798 287.354 175.541 287.818 176.323 288.207C178.854 289.459 180.296 288.509 180.296 288.207C180.301 287.9 174.921 282.446 173.859 282.01Z"
                fill="#F8AE9D" />
            <path
                d="M151.066 272.724C151.066 272.724 155.145 275.037 154.782 279.954C154.419 284.871 152.943 290.571 146.786 289.973C140.628 289.381 151.066 272.724 151.066 272.724Z"
                fill="#444444" />
            <path
                d="M147.78 289.486C133.016 294.611 113.264 289.716 100.741 281.205C92.8962 275.886 87.8896 269.13 88.7335 262.531C90.9182 245.388 104.39 206.095 116.046 200.362C123.97 196.461 133.581 194.846 138.939 194.198C141.454 193.891 143.024 193.818 143.024 193.818L141.08 199.306L131.346 226.753C130.983 243.041 119.327 252.713 121.645 256.507C123.964 260.29 142.276 264.375 151.892 270.851C154.552 272.651 157.927 285.665 147.78 289.486Z"
                fill="#444444" />
            <path
                d="M131.346 226.753C131.357 229.843 130.927 232.939 130.122 235.934C129.312 238.929 128.127 241.817 126.753 244.6C126.065 245.992 125.333 247.355 124.579 248.702C123.836 250.054 123.071 251.395 122.445 252.77C122.137 253.457 121.869 254.167 121.763 254.865C121.735 255.206 121.707 255.558 121.802 255.854C121.824 256.016 121.92 256.139 121.975 256.284C122.082 256.413 122.154 256.553 122.288 256.676C123.288 257.676 124.719 258.352 126.077 259.005C131.653 261.548 137.576 263.431 143.22 265.968C146.042 267.236 148.836 268.606 151.434 270.315L151.915 270.639C152.077 270.751 152.227 270.897 152.384 271.025C152.672 271.304 152.922 271.62 153.127 271.964C153.541 272.64 153.82 273.378 154.038 274.126C154.451 275.629 154.625 277.177 154.636 278.725C154.535 277.188 154.278 275.652 153.826 274.193C153.345 272.746 152.602 271.338 151.211 270.662C148.601 269.041 145.801 267.75 142.963 266.56C140.119 265.387 137.241 264.275 134.352 263.196C131.463 262.101 128.558 261.056 125.719 259.76C124.322 259.067 122.886 258.413 121.696 257.212C121.545 257.067 121.422 256.865 121.293 256.692C121.198 256.48 121.07 256.279 121.036 256.055C120.902 255.608 120.947 255.167 120.986 254.748C121.12 253.921 121.422 253.172 121.746 252.457C122.411 251.026 123.188 249.691 123.942 248.344C124.697 246.997 125.457 245.662 126.177 244.304C129.055 238.895 131.056 232.944 131.346 226.753Z"
                fill="white" />
            <path
                d="M169.605 201.832C168.197 203.229 161.928 207.693 155.949 207.693C154.89 207.692 153.833 207.593 152.792 207.397C147.774 206.481 143.55 203.134 141.08 199.301C140.629 198.595 140.231 197.857 139.89 197.093C139.443 196.132 139.124 195.149 138.94 194.199C141.455 193.891 143.857 193.26 144.248 192.813C144.673 195.741 148.288 201.027 153.764 202.022C154.409 202.141 155.064 202.207 155.72 202.217H155.731C158.302 202.262 160.274 201.441 161.62 200.614C161.632 200.614 164.242 198.557 164.252 198.546L169.605 201.832Z"
                fill="#444444" />
            <path
                d="M173.54 265.665C173.525 265.392 173.56 265.122 173.55 264.848C173.539 264.552 173.506 264.262 173.484 263.967L173.322 262.275C173.217 261.123 173.113 259.97 173.026 258.816C172.853 256.53 172.735 254.239 172.673 251.946C172.555 247.364 172.621 242.771 172.929 238.198C173.016 236.918 173.119 235.64 173.24 234.363C173.305 233.708 173.372 233.054 173.442 232.399C173.513 231.757 173.617 231.119 173.625 230.469C173.63 230.066 173.024 230.038 172.933 230.413C172.666 231.525 172.627 232.719 172.512 233.856C172.402 234.998 172.304 236.14 172.217 237.287C172.051 239.596 171.94 241.908 171.886 244.223C171.787 248.829 171.951 253.437 172.344 258.032C172.454 259.321 172.586 260.609 172.74 261.893C172.819 262.548 172.906 263.202 173.002 263.854C173.046 264.143 173.084 264.432 173.14 264.714C173.209 265.046 173.332 265.352 173.401 265.684C173.439 265.761 173.549 265.732 173.54 265.665Z"
                fill="white" />
            <path
                d="M172.254 176.485C172.293 176.485 172.399 176.424 172.31 176.424C172.265 176.424 172.164 176.485 172.254 176.485Z"
                fill="#CC6144" />
            <path
                d="M259.971 222.393C257.844 226.15 258.853 231.844 258.853 231.844C258.853 231.844 264.939 230.169 267.066 226.412C269.193 222.655 269.329 218.711 267.371 217.6C265.411 216.489 262.098 218.636 259.971 222.393Z"
                fill="url(#paint2_linear_0_1)" />
            <path
                d="M253.618 191.779C253.1 198.317 258.144 205.509 258.144 205.509C258.144 205.509 265.45 199.298 265.968 192.759C266.485 186.22 264.141 180.702 260.732 180.429C257.319 180.157 254.135 185.24 253.618 191.779Z"
                fill="url(#paint3_linear_0_1)" />
            <path
                d="M218.875 203.803C215.449 206.517 214.226 212.242 214.226 212.242C214.226 212.242 220.572 212.991 223.999 210.277C227.426 207.563 229.057 203.916 227.644 202.128C226.228 200.338 222.302 201.09 218.875 203.803Z"
                fill="url(#paint4_linear_0_1)" />
            <path
                d="M258.102 254.364V260.788L252.303 267.7H276.664C284.027 267.7 290 261.727 290 254.364C290 247 284.027 241.027 276.664 241.027H271.439C264.07 241.027 258.102 247 258.102 254.364Z"
                fill="#D6D6D6" />
            <path
                d="M268.379 254.341C268.379 254.969 268.129 255.572 267.684 256.017C267.24 256.461 266.637 256.711 266.008 256.712C265.379 256.711 264.776 256.461 264.332 256.017C263.887 255.572 263.637 254.969 263.637 254.341C263.638 253.712 263.887 253.109 264.332 252.664C264.776 252.22 265.379 251.97 266.008 251.97C266.637 251.97 267.24 252.22 267.684 252.664C268.129 253.109 268.379 253.712 268.379 254.341ZM276.436 254.341C276.436 254.969 276.186 255.572 275.741 256.017C275.296 256.461 274.693 256.711 274.065 256.711C273.436 256.711 272.833 256.461 272.389 256.017C271.944 255.572 271.694 254.969 271.694 254.341C271.694 253.712 271.944 253.109 272.389 252.664C272.833 252.22 273.436 251.97 274.065 251.97C274.693 251.97 275.296 252.22 275.741 252.664C276.186 253.109 276.436 253.712 276.436 254.341ZM284.492 254.341C284.492 254.969 284.242 255.572 283.797 256.017C283.353 256.461 282.75 256.711 282.121 256.711C281.493 256.711 280.89 256.461 280.445 256.017C280 255.572 279.75 254.969 279.75 254.341C279.75 253.712 280 253.109 280.445 252.664C280.89 252.22 281.493 251.97 282.121 251.97C282.75 251.97 283.353 252.22 283.797 252.664C284.242 253.109 284.492 253.712 284.492 254.341Z"
                fill="white" />
            <path
                d="M200.61 155.375L192.997 173.935C192.873 174.237 192.81 174.56 192.811 174.886C192.812 175.212 192.877 175.534 193.003 175.835C193.128 176.136 193.312 176.409 193.543 176.639C193.775 176.869 194.049 177.051 194.35 177.175L226.584 190.395C227.058 190.589 227.581 190.632 228.081 190.516C228.581 190.401 229.033 190.134 229.374 189.751C229.563 189.541 229.714 189.3 229.821 189.039L237.43 170.487C237.555 170.185 237.618 169.863 237.617 169.537C237.616 169.211 237.551 168.889 237.426 168.588C237.3 168.287 237.117 168.014 236.886 167.785C236.655 167.555 236.381 167.373 236.079 167.249L203.847 154.027C202.581 153.508 201.137 154.11 200.61 155.375Z"
                fill="#D6D6D6" />
            <path
                d="M213.887 173.061L193.471 175.309C193.54 175.598 193.677 175.868 193.87 176.094C194.064 176.321 194.308 176.498 194.584 176.611L226.813 189.833C227.087 189.945 227.384 189.991 227.679 189.966C227.974 189.941 228.259 189.847 228.511 189.691L213.887 173.061Z"
                fill="#D6D6D6" stroke="white" stroke-width="1.21599" />
            <path
                d="M236.868 170.256C236.961 170.028 237.009 169.785 237.009 169.539C237.008 169.293 236.959 169.049 236.865 168.823C236.77 168.596 236.632 168.39 236.457 168.216C236.283 168.043 236.076 167.905 235.849 167.812H235.848L203.616 154.59C203.204 154.421 202.747 154.404 202.324 154.542C201.902 154.679 201.542 154.962 201.308 155.341L213.754 174.867L236.605 170.895L236.868 170.256Z"
                fill="#D6D6D6" stroke="white" stroke-width="1.21599" />
            <path
                d="M65.6571 278.821C70.0591 283.301 78.2909 282.357 78.2909 282.357C78.2909 282.357 79.3803 274.148 74.9741 269.67C70.5722 265.19 62.3446 266.131 62.3446 266.131C62.3446 266.131 61.2552 274.34 65.6571 278.821Z"
                fill="url(#paint5_linear_0_1)" />
            <path
                d="M286.014 154.975C284.63 157.512 280.867 158.13 280.867 158.13C280.867 158.13 279.352 154.633 280.739 152.097C282.124 149.56 285.884 148.942 285.884 148.942C285.884 148.942 287.399 152.438 286.014 154.975Z"
                fill="url(#paint6_linear_0_1)" />
            <path
                d="M54.4919 154.285C51.5637 151.755 51.8202 146.657 51.8202 146.657C51.8202 146.657 56.8243 145.664 59.7508 148.196C62.6789 150.726 62.4241 155.821 62.4241 155.821C62.4241 155.821 57.42 156.815 54.4919 154.285Z"
                fill="url(#paint7_linear_0_1)" />
            <path
                d="M63.864 135.234C62.9687 132.66 64.921 129.64 64.921 129.64C64.921 129.64 68.3238 130.796 69.217 133.372C70.1123 135.947 68.1622 138.966 68.1622 138.966C68.1622 138.966 64.7594 137.809 63.864 135.234Z"
                fill="url(#paint8_linear_0_1)" />
            <path fill-rule="evenodd" clip-rule="evenodd"
                d="M43.4847 240.986V219.769C43.4848 219.257 43.688 218.767 44.0495 218.405C44.4109 218.044 44.9012 217.841 45.4125 217.84H76.2612C76.7726 217.841 77.2629 218.044 77.6244 218.405C77.986 218.767 78.1892 219.257 78.1895 219.769V243.92C78.1895 246.114 75.8836 247.542 73.92 246.565L67.4109 243.326C67.0067 243.125 66.5617 243.019 66.1101 243.017L45.4028 242.915C44.8933 242.912 44.4056 242.707 44.0463 242.346C43.6869 241.985 43.485 241.496 43.4847 240.986Z"
                fill="#003090" />
            <path
                d="M61.1077 230.101C61.1433 230.137 61.1716 230.179 61.1908 230.226C61.2101 230.272 61.2201 230.322 61.2201 230.372C61.2201 230.423 61.2102 230.473 61.1909 230.519C61.1717 230.566 61.1435 230.608 61.1079 230.643C61.0724 230.679 61.0301 230.707 60.9836 230.727C60.9372 230.746 60.8873 230.756 60.837 230.756C60.7867 230.756 60.7368 230.746 60.6903 230.727C60.6438 230.707 60.6016 230.679 60.566 230.644C60.4941 230.572 60.4536 230.474 60.4536 230.373C60.4536 230.271 60.4939 230.174 60.5658 230.102C60.6376 230.03 60.7351 229.989 60.8367 229.989C60.9383 229.989 61.0358 230.03 61.1077 230.101ZM54.2075 230.101C54.2432 230.137 54.2714 230.179 54.2907 230.226C54.31 230.272 54.3199 230.322 54.32 230.373C54.32 230.423 54.3101 230.473 54.2908 230.519C54.2716 230.566 54.2433 230.608 54.2077 230.644C54.1721 230.679 54.1299 230.708 54.0833 230.727C54.0368 230.746 53.9869 230.756 53.9366 230.756C53.8862 230.756 53.8364 230.746 53.7898 230.727C53.7433 230.708 53.701 230.68 53.6654 230.644C53.5934 230.572 53.553 230.475 53.5529 230.373C53.5529 230.271 53.5933 230.174 53.6652 230.102C53.737 230.03 53.8346 229.989 53.9363 229.989C54.038 229.989 54.1356 230.03 54.2075 230.101ZM68.0088 230.101C68.0444 230.137 68.0726 230.179 68.0919 230.226C68.1112 230.272 68.1211 230.322 68.1211 230.372C68.1211 230.423 68.1112 230.473 68.092 230.519C68.0728 230.566 68.0445 230.608 68.009 230.643C67.9734 230.679 67.9311 230.707 67.8847 230.727C67.8382 230.746 67.7884 230.756 67.738 230.756C67.6877 230.756 67.6379 230.746 67.5914 230.727C67.5449 230.707 67.5026 230.679 67.467 230.644C67.3951 230.572 67.3547 230.474 67.3547 230.373C67.3546 230.271 67.395 230.174 67.4668 230.102C67.5386 230.03 67.6361 229.989 67.7377 229.989C67.8394 229.989 67.9369 230.03 68.0088 230.101Z"
                stroke="white" stroke-width="3.81464" stroke-linecap="round" stroke-linejoin="round" />
            <path
                d="M80.5937 195.82C77.2005 193.494 76.8685 188.077 76.8685 188.077C76.8685 188.077 82.0379 186.436 85.4298 188.765C88.8225 191.092 89.1562 196.506 89.1562 196.506C89.1562 196.506 83.9864 198.147 80.5937 195.82Z"
                fill="#D6D6D6" />
            <path
                d="M75.4005 158.211C71.9963 158.211 69.2366 160.971 69.2366 164.375C69.2366 167.779 71.9963 170.539 75.4005 170.539C78.8048 170.539 81.5645 167.779 81.5645 164.375C81.5645 160.971 78.8048 158.211 75.4005 158.211Z"
                fill="#D6D6D6" />
            <path
                d="M55.1218 196.859C53.0548 196.859 51.3793 198.534 51.3793 200.601C51.3793 202.668 53.0548 204.344 55.1218 204.344C57.1887 204.344 58.8643 202.668 58.8643 200.601C58.8643 198.534 57.1887 196.859 55.1218 196.859Z"
                fill="#D6D6D6" />
            <path d="M48.9573 265.242L54.4609 259.959L48.9573 254.676L43.4541 259.959L48.9573 265.242Z" stroke="#D6D6D6"
                stroke-width="2.23959" stroke-linecap="round" stroke-linejoin="round" />
            <path
                d="M168.325 283.873C166.644 288.033 169.706 292.573 174.193 292.573H229.314C231.898 292.573 234.222 291.002 235.186 288.605L250.788 249.811C252.461 245.652 249.399 241.12 244.916 241.12H189.872C187.292 241.12 184.97 242.686 184.004 245.078L168.325 283.873Z"
                fill="#003090" />
            <path d="M234.396 290.57H143.566V292.573H233.589L234.396 290.57Z" fill="#003090" />
            <path
                d="M218.429 266.716C219.311 263.618 217.533 261.106 214.462 261.106C211.392 261.106 208.192 263.618 207.31 266.716C206.428 269.815 208.207 272.327 211.277 272.327C214.347 272.327 217.547 269.815 218.429 266.716Z"
                fill="white" />
        </g>
    </g>
    <defs>
        <linearGradient id="paint0_linear_0_1" x1="202.543" y1="392.966" x2="25.0604" y2="-19.7912"
            gradientUnits="userSpaceOnUse">
            <stop stop-color="white" />
            <stop offset="1" stop-color="#EEEEEE" />
        </linearGradient>
        <linearGradient id="paint1_linear_0_1" x1="226.509" y1="324.548" x2="216.049" y2="134.749"
            gradientUnits="userSpaceOnUse">
            <stop stop-color="white" />
            <stop offset="1" stop-color="#EEEEEE" />
        </linearGradient>
        <linearGradient id="paint2_linear_0_1" x1="254.756" y1="222.093" x2="276.8" y2="228.148"
            gradientUnits="userSpaceOnUse">
            <stop stop-color="white" />
            <stop offset="1" stop-color="#EEEEEE" />
        </linearGradient>
        <linearGradient id="paint3_linear_0_1" x1="246.245" y1="194.712" x2="280.485" y2="188.902"
            gradientUnits="userSpaceOnUse">
            <stop stop-color="white" />
            <stop offset="1" stop-color="#EEEEEE" />
        </linearGradient>
        <linearGradient id="paint4_linear_0_1" x1="214.098" y1="201.534" x2="232.468" y2="215.614"
            gradientUnits="userSpaceOnUse">
            <stop stop-color="white" />
            <stop offset="1" stop-color="#EEEEEE" />
        </linearGradient>
        <linearGradient id="paint5_linear_0_1" x1="83.2203" y1="294.124" x2="51.3964" y2="244.238"
            gradientUnits="userSpaceOnUse">
            <stop stop-color="white" />
            <stop offset="1" stop-color="#EEEEEE" />
        </linearGradient>
        <linearGradient id="paint6_linear_0_1" x1="280.166" y1="163.959" x2="287.975" y2="137.873"
            gradientUnits="userSpaceOnUse">
            <stop stop-color="white" />
            <stop offset="1" stop-color="#EEEEEE" />
        </linearGradient>
        <linearGradient id="paint7_linear_0_1" x1="44.3905" y1="144.089" x2="76.3165" y2="161.69"
            gradientUnits="userSpaceOnUse">
            <stop stop-color="white" />
            <stop offset="1" stop-color="#EEEEEE" />
        </linearGradient>
        <linearGradient id="paint8_linear_0_1" x1="61.2928" y1="125.457" x2="74.5704" y2="147.439"
            gradientUnits="userSpaceOnUse">
            <stop stop-color="white" />
            <stop offset="1" stop-color="#EEEEEE" />
        </linearGradient>
        <clipPath id="clip0_0_1">
            <rect width="254" height="191.133" fill="white" transform="matrix(-1 0 0 1 290 117)" />
        </clipPath>
    </defs>
</svg>