<svg width="26" height="35" viewBox="0 0 26 35" fill="none" xmlns="http://www.w3.org/2000/svg">
<g clip-path="url(#clip0_2_870)">
<path d="M7.25538 12.4312L1.02565 12.9762L0.490029 6.85403C0.258225 4.20449 2.25575 1.86544 4.95181 1.62957L11.1815 1.08453L11.7172 7.20675C11.949 9.85629 9.95129 12.1952 7.25537 12.4311L7.25538 12.4312Z" fill="#0083FF"/>
<path d="M7.25538 12.4312L1.02565 12.9762L0.490029 6.85403C0.258225 4.20449 2.25575 1.86544 4.95181 1.62957L11.1815 1.08453L11.7172 7.20675C11.949 9.85629 9.95129 12.1952 7.25537 12.4311L7.25538 12.4312Z" fill="#0083FF"/>
<path d="M11.7412 1.03564C17.8778 0.498767 23.2803 4.95236 23.8079 10.9831C24.3355 17.0139 19.7886 22.338 13.6519 22.8749" fill="#005FDC"/>
<path d="M11.7412 1.03564C17.8778 0.498767 23.2803 4.95236 23.8079 10.9831C24.3355 17.0139 19.7886 22.338 13.6519 22.8749" fill="#005FDC"/>
<path d="M13.092 22.9236L1.98073 23.8957L1.02539 12.9761L7.25512 12.431C9.95118 12.1952 12.3247 14.1518 12.5565 16.8013L13.0921 22.9236L13.092 22.9236Z" fill="#005FDC"/>
<path d="M13.092 22.9236L1.98073 23.8957L1.02539 12.9761L7.25512 12.431C9.95118 12.1952 12.3247 14.1518 12.5565 16.8013L13.0921 22.9236L13.092 22.9236Z" fill="#005FDC"/>
<path d="M1.98047 23.8955L13.0918 22.9234L14.0472 33.843L7.81744 34.388C5.12138 34.6239 2.7479 32.6673 2.51609 30.0177L1.98047 23.8955Z" fill="#003090"/>
<path d="M1.98047 23.8955L13.0918 22.9234L14.0472 33.843L7.81744 34.388C5.12138 34.6239 2.7479 32.6673 2.51609 30.0177L1.98047 23.8955Z" fill="#003090"/>
</g>
<defs>
<clipPath id="clip0_2_870">
<rect width="23" height="33" fill="white" transform="translate(0 2.00439) rotate(-5)"/>
</clipPath>
</defs>
</svg>
