<svg width="48" height="69" viewBox="0 0 48 69" fill="none" xmlns="http://www.w3.org/2000/svg">
<g clip-path="url(#clip0_47_702)">
<path d="M13.1876 23.0402H0.136719V10.1903C0.136719 4.62921 4.71504 0.121094 10.3631 0.121094H23.4139V12.971C23.4139 18.5321 18.8353 23.0399 13.1876 23.0399V23.0402Z" fill="#0083FF"/>
<path d="M13.1876 23.0402H0.136719V10.1903C0.136719 4.62921 4.71504 0.121094 10.3631 0.121094H23.4139V12.971C23.4139 18.5321 18.8353 23.0399 13.1876 23.0399V23.0402Z" fill="#0083FF"/>
<path d="M24.5859 0.121094C37.4415 0.121094 47.8634 10.3822 47.8634 23.0402C47.8634 35.6982 37.4418 45.9593 24.5859 45.9593" fill="#005FDC"/>
<path d="M24.5859 0.121094C37.4415 0.121094 47.8634 10.3822 47.8634 23.0402C47.8634 35.6982 37.4418 45.9593 24.5859 45.9593" fill="#005FDC"/>
<path d="M23.4139 45.9592H0.136719V23.04H13.1876C18.8356 23.04 23.4142 27.5482 23.4142 33.1093V45.9592H23.4139Z" fill="#005FDC"/>
<path d="M23.4139 45.9592H0.136719V23.04H13.1876C18.8356 23.04 23.4142 27.5482 23.4142 33.1093V45.9592H23.4139Z" fill="#005FDC"/>
<path d="M0.136719 45.959H23.4142V68.8781H10.3634C4.71533 68.8781 0.136719 64.37 0.136719 58.8089V45.959Z" fill="#003090"/>
<path d="M0.136719 45.959H23.4142V68.8781H10.3634C4.71533 68.8781 0.136719 64.37 0.136719 58.8089V45.959Z" fill="#003090"/>
</g>
<defs>
<clipPath id="clip0_47_702">
<rect width="48" height="69" fill="white"/>
</clipPath>
</defs>
</svg>
