<svg width="22" height="22" viewBox="0 0 22 22" fill="none" xmlns="http://www.w3.org/2000/svg">
<path d="M13.75 21.75H9.25V14.5H8.3C8.02152 14.5 7.75445 14.3894 7.55754 14.1925C7.36062 13.9955 7.25 13.7285 7.25 13.45V11.55C7.25 11.2715 7.36062 11.0045 7.55754 10.8075C7.75445 10.6106 8.02152 10.5 8.3 10.5H9.25V8C9.25027 7.00552 9.64544 6.05185 10.3486 5.34864C11.0518 4.64544 12.0055 4.25027 13 4.25H15.7C15.8379 4.25 15.9744 4.27716 16.1018 4.32993C16.2292 4.38269 16.345 4.46004 16.4425 4.55754C16.54 4.65504 16.6173 4.77079 16.6701 4.89818C16.7228 5.02557 16.75 5.16211 16.75 5.3V7.7C16.75 7.83789 16.7228 7.97443 16.6701 8.10182C16.6173 8.22921 16.54 8.34496 16.4425 8.44246C16.345 8.53996 16.2292 8.61731 16.1018 8.67007C15.9744 8.72284 15.8379 8.75 15.7 8.75H13.75V10.5H15.63C15.7849 10.4996 15.9381 10.5335 16.0783 10.5995C16.2185 10.6654 16.3424 10.7616 16.4409 10.8812C16.5394 11.0008 16.6102 11.1407 16.6481 11.291C16.686 11.4412 16.69 11.598 16.66 11.75L16.28 13.65C16.2316 13.8873 16.1025 14.1006 15.9148 14.2537C15.7271 14.4068 15.4922 14.4903 15.25 14.49H13.75V21.75ZM10.75 20.25H12.25V13H14.89L15.09 12H12.26V8.3C12.26 8.02152 12.3706 7.75445 12.5675 7.55754C12.7645 7.36062 13.0315 7.25 13.31 7.25H15.26V5.75H13C12.4035 5.75079 11.8317 5.9881 11.4099 6.40989C10.9881 6.83167 10.7508 7.40351 10.75 8V12H8.75V13H10.75V20.25Z" fill="#666666"/>
<path d="M14 21.75H8C2.57 21.75 0.25 19.43 0.25 14V8C0.25 2.57 2.57 0.25 8 0.25H14C19.43 0.25 21.75 2.57 21.75 8V14C21.75 19.43 19.43 21.75 14 21.75ZM8 1.75C3.39 1.75 1.75 3.39 1.75 8V14C1.75 18.61 3.39 20.25 8 20.25H14C18.61 20.25 20.25 18.61 20.25 14V8C20.25 3.39 18.61 1.75 14 1.75H8Z" fill="#666666"/>
</svg>
