<svg width="22" height="22" viewBox="0 0 22 22" fill="none" xmlns="http://www.w3.org/2000/svg">
<path d="M14 21.5H8C2.57 21.5 0.25 19.18 0.25 13.75V7.75C0.25 2.32 2.57 0 8 0H14C19.43 0 21.75 2.32 21.75 7.75V13.75C21.75 19.18 19.43 21.5 14 21.5ZM8 1.5C3.39 1.5 1.75 3.14 1.75 7.75V13.75C1.75 18.36 3.39 20 8 20H14C18.61 20 20.25 18.36 20.25 13.75V7.75C20.25 3.14 18.61 1.5 14 1.5H8Z" fill="#666666"/>
<path d="M8.22576 15.0593H6.14861V8.35312H8.22576V15.0593ZM8.433 6.2165C8.433 5.54501 7.88819 5 7.21709 5C6.54338 5 6 5.54501 6 6.2165C6 6.88822 6.54341 7.43323 7.21709 7.43323C7.88822 7.43323 8.433 6.88822 8.433 6.2165ZM16 11.3699C16 9.56961 15.6197 8.23442 13.5167 8.23442C12.5062 8.23442 11.8278 8.73979 11.5509 9.26534H11.549V8.35312H9.53116V15.0593H11.549V11.7297C11.549 10.8576 11.7709 10.0129 12.8518 10.0129C13.918 10.0129 13.9525 11.0101 13.9525 11.785V15.0593H16V11.3699Z" fill="#666666"/>
</svg>
