<svg width="24" height="24" viewBox="0 0 24 24" fill="none" xmlns="http://www.w3.org/2000/svg">
<path d="M17 21.25H7C3.35 21.25 1.25 19.15 1.25 15.5V8.5C1.25 4.85 3.35 2.75 7 2.75H17C20.65 2.75 22.75 4.85 22.75 8.5V15.5C22.75 19.15 20.65 21.25 17 21.25ZM7 4.25C4.14 4.25 2.75 5.64 2.75 8.5V15.5C2.75 18.36 4.14 19.75 7 19.75H17C19.86 19.75 21.25 18.36 21.25 15.5V8.5C21.25 5.64 19.86 4.25 17 4.25H7Z" fill="#666666"/>
<path d="M12.0003 12.8703C11.1531 12.8814 10.3275 12.6026 9.66034 12.0803L6.53034 9.58028C6.37519 9.45696 6.27539 9.27705 6.25288 9.08014C6.23038 8.88322 6.28702 8.68544 6.41034 8.53028C6.53367 8.37513 6.71358 8.27533 6.91049 8.25282C7.10741 8.23032 7.30519 8.28696 7.46034 8.41028L10.5903 10.9103C10.9985 11.2076 11.4904 11.3678 11.9953 11.3678C12.5003 11.3678 12.9922 11.2076 13.4003 10.9103L16.5303 8.41028C16.6067 8.34803 16.6947 8.30168 16.7892 8.27396C16.8837 8.24625 16.9828 8.23773 17.0806 8.24891C17.1785 8.2601 17.2731 8.29075 17.3589 8.33908C17.4448 8.3874 17.52 8.45241 17.5803 8.53028C17.6426 8.6066 17.689 8.69461 17.7167 8.78912C17.7444 8.88363 17.7529 8.98273 17.7417 9.08058C17.7305 9.17844 17.6999 9.27306 17.6516 9.35888C17.6032 9.4447 17.5382 9.51998 17.4603 9.58028L14.3303 12.0803C13.6677 12.6039 12.8448 12.8829 12.0003 12.8703Z" fill="#666666"/>
</svg>
