<svg width="22" height="22" viewBox="0 0 22 22" fill="none" xmlns="http://www.w3.org/2000/svg">
<path d="M1.00045 21.7497C0.90198 21.7497 0.804486 21.7302 0.713542 21.6925C0.622599 21.6547 0.539992 21.5994 0.470447 21.5297C0.376236 21.4361 0.308196 21.3195 0.273105 21.1914C0.238015 21.0633 0.237098 20.9282 0.270447 20.7997L1.53045 16.0897C0.31159 13.8212 -0.0499075 11.1897 0.51207 8.67655C1.07405 6.16339 2.52194 3.93651 4.59094 2.4032C6.65994 0.869898 9.21176 0.132635 11.7797 0.326256C14.3476 0.519878 16.7601 1.63144 18.5758 3.45766C20.3914 5.28387 21.4891 7.70267 21.6678 10.2717C21.8466 12.8407 21.0946 15.3882 19.5494 17.4483C18.0042 19.5084 15.769 20.9434 13.2526 21.4909C10.7362 22.0383 8.10689 21.6616 5.84545 20.4297L1.20045 21.7197C1.13561 21.7394 1.06822 21.7495 1.00045 21.7497ZM5.94545 18.8797C6.07813 18.8833 6.20818 18.9175 6.32545 18.9797C8.26734 20.1228 10.5589 20.5198 12.7722 20.0966C14.9854 19.6735 16.9689 18.459 18.3522 16.6802C19.7354 14.9014 20.4238 12.6799 20.2887 10.4306C20.1536 8.18135 19.2043 6.05817 17.6181 4.45769C16.032 2.85722 13.9174 1.88892 11.6694 1.73367C9.42143 1.57843 7.19381 2.24685 5.40267 3.61409C3.61154 4.98132 2.37939 6.95385 1.93639 9.16321C1.4934 11.3726 1.86986 13.6676 2.99545 15.6197C3.09602 15.7918 3.12476 15.9966 3.07545 16.1897L2.07545 19.9297L5.75545 18.9097C5.81686 18.89 5.88095 18.8799 5.94545 18.8797Z" fill="#666666"/>
<path d="M13.7402 16.7594C13.0741 16.7507 12.417 16.6043 11.8102 16.3294C11.1475 16.0424 10.52 15.6801 9.94024 15.2494C9.32703 14.8005 8.7487 14.3057 8.21024 13.7694C7.67632 13.2288 7.18172 12.6506 6.73024 12.0394C6.30746 11.4599 5.94871 10.8362 5.66024 10.1794C5.39198 9.57084 5.24914 8.91443 5.24024 8.24942C5.23925 7.82214 5.31723 7.39836 5.47024 6.99942C5.63842 6.58069 5.89809 6.20485 6.23024 5.89942C6.51472 5.5915 6.88636 5.3777 7.29555 5.28657C7.70474 5.19544 8.13199 5.23132 8.52024 5.38942C8.7737 5.50259 8.98902 5.68665 9.14024 5.91942L10.3002 7.54942C10.4144 7.70356 10.5085 7.87157 10.5802 8.04942C10.6603 8.23615 10.7044 8.43632 10.7102 8.63942C10.7104 8.90395 10.6377 9.16341 10.5002 9.38942C10.3909 9.57118 10.2599 9.73906 10.1102 9.88942L9.98024 10.0294C10.0546 10.1338 10.1347 10.2339 10.2202 10.3294C10.4302 10.5694 10.6602 10.8294 10.9102 11.0794C11.1602 11.3294 11.4102 11.5594 11.6602 11.7694C11.7554 11.8522 11.8556 11.929 11.9602 11.9994L12.1002 11.8594C12.2574 11.695 12.4396 11.5566 12.6402 11.4494C12.835 11.3383 13.053 11.2741 13.277 11.262C13.5009 11.2498 13.7246 11.29 13.9302 11.3794C14.1045 11.4481 14.2691 11.5388 14.4202 11.6494L16.0902 12.8254C16.3183 12.9861 16.5009 13.2032 16.6202 13.4554C16.7127 13.6772 16.7603 13.9151 16.7602 14.1554C16.7583 14.4566 16.69 14.7536 16.5602 15.0254C16.4364 15.2769 16.2819 15.512 16.1002 15.7254C15.7973 16.0609 15.4255 16.327 15.0102 16.5054C14.6084 16.6749 14.1764 16.7613 13.7402 16.7594ZM7.79024 6.73942C7.6924 6.7427 7.59636 6.76668 7.50846 6.80977C7.42055 6.85286 7.34277 6.91409 7.28024 6.98942C7.10462 7.15204 6.96496 7.3496 6.87024 7.56942C6.78116 7.7884 6.73696 8.02303 6.74024 8.25942C6.75005 8.72482 6.85201 9.18366 7.04024 9.60942C7.28193 10.1609 7.58376 10.6841 7.94024 11.1694C8.34076 11.7184 8.78201 12.2366 9.26024 12.7194C9.74593 13.1976 10.2638 13.642 10.8102 14.0494C11.3016 14.4103 11.8315 14.7155 12.3902 14.9594C12.6996 15.1234 13.0389 15.2231 13.3878 15.2523C13.7367 15.2815 14.0879 15.2397 14.4202 15.1294C14.6321 15.0354 14.8226 14.8993 14.9802 14.7294C15.0704 14.6316 15.1447 14.5203 15.2002 14.3994C15.231 14.33 15.248 14.2553 15.2502 14.1794C15.2502 14.1407 15.2398 14.1028 15.2202 14.0694L13.5502 12.9094C13.4891 12.8635 13.4218 12.8264 13.3502 12.7994C13.271 12.8394 13.1999 12.8937 13.1402 12.9594L12.7602 13.3394C12.6136 13.4784 12.4315 13.5744 12.2339 13.6167C12.0364 13.659 11.831 13.6461 11.6402 13.5794L11.4602 13.4994C11.1802 13.3462 10.9186 13.1617 10.6802 12.9494C10.4002 12.7094 10.1302 12.4594 9.84024 12.1794C9.55024 11.8994 9.31024 11.6194 9.07024 11.3394C8.86156 11.0995 8.67419 10.8419 8.51024 10.5694L8.40024 10.3094C8.37222 10.2085 8.35875 10.1041 8.36024 9.99942C8.35745 9.72747 8.46159 9.46531 8.65024 9.26942L9.03024 8.87942C9.09767 8.81886 9.15505 8.74797 9.20024 8.66942C9.16773 8.59853 9.12749 8.53146 9.08024 8.46942L7.91024 6.81942L7.79024 6.73942Z" fill="#666666"/>
</svg>
