<svg width="88" height="88" viewBox="0 0 88 88" fill="none" xmlns="http://www.w3.org/2000/svg">
    <rect opacity="0.1" width="88" height="88" rx="10" fill="#F55157" />
    <path
        d="M56.2216 23.6295H31.7771C30.9785 23.6249 30.1867 23.7779 29.4472 24.0795C28.7077 24.3812 28.0349 24.8257 27.4674 25.3876C26.8998 25.9495 26.4485 26.6178 26.1395 27.3542C25.8304 28.0907 25.6695 28.8808 25.666 29.6795V51.9036C25.6695 52.7022 25.8304 53.4924 26.1395 54.2288C26.4485 54.9653 26.8998 55.6335 27.4674 56.1954C28.0349 56.7573 28.7077 57.2018 29.4472 57.5035C30.1867 57.8052 30.9785 57.9581 31.7771 57.9536H33.3253C34.1263 57.9503 34.9201 58.1051 35.6612 58.4092C36.4022 58.7133 37.076 59.1607 37.6438 59.7258L41.1271 63.1684C41.897 63.9226 42.9318 64.345 44.0095 64.345C45.0873 64.345 46.1221 63.9226 46.8919 63.1684L50.3753 59.7258C51.5236 58.5869 53.0765 57.9496 54.6938 57.9536H56.2216C57.0202 57.9581 57.812 57.8052 58.5515 57.5035C59.291 57.2018 59.9638 56.7573 60.5313 56.1954C61.0989 55.6335 61.5502 54.9653 61.8592 54.2288C62.1683 53.4924 62.3292 52.7022 62.3327 51.9036V29.6795C62.3292 28.8808 62.1683 28.0907 61.8592 27.3542C61.5502 26.6178 61.0989 25.9495 60.5313 25.3876C59.9638 24.8257 59.291 24.3812 58.5515 24.0795C57.812 23.7779 57.0202 23.6249 56.2216 23.6295ZM43.9993 31.2684C44.9381 31.2684 45.8557 31.5467 46.6362 32.0683C47.4168 32.5898 48.0251 33.3311 48.3844 34.1984C48.7436 35.0656 48.8376 36.0199 48.6544 36.9406C48.4713 37.8613 48.0193 38.707 47.3555 39.3708C46.6917 40.0346 45.846 40.4866 44.9253 40.6698C44.0046 40.8529 43.0503 40.7589 42.183 40.3997C41.3157 40.0404 40.5745 39.4321 40.0529 38.6516C39.5314 37.8711 39.2531 36.9534 39.2531 36.0147C39.252 35.3911 39.374 34.7734 39.6122 34.1971C39.8503 33.6207 40.1999 33.0971 40.6408 32.6561C41.0818 32.2152 41.6054 31.8656 42.1818 31.6275C42.7581 31.3893 43.3758 31.2673 43.9993 31.2684ZM49.4586 50.2332H38.5401C38.1667 50.2363 37.7997 50.1368 37.4791 49.9455C37.1585 49.7541 36.8967 49.4784 36.7222 49.1483C36.5477 48.8182 36.4672 48.4465 36.4897 48.0738C36.5121 47.7012 36.6365 47.3418 36.8493 47.035C37.6755 45.9276 38.7572 45.0362 40.0021 44.4368C41.247 43.8374 42.6184 43.5477 43.9993 43.5925C45.3803 43.5477 46.7517 43.8374 47.9966 44.4368C49.2415 45.0362 50.3232 45.9276 51.1494 47.035C51.357 47.3429 51.4771 47.7014 51.497 48.0723C51.5168 48.4431 51.4357 48.8123 51.2621 49.1406C51.0885 49.4689 50.8291 49.744 50.5115 49.9364C50.1939 50.1288 49.83 50.2314 49.4586 50.2332Z"
        fill="#F55157" />
</svg>