<svg width="88" height="88" viewBox="0 0 88 88" fill="none" xmlns="http://www.w3.org/2000/svg">
    <rect opacity="0.1" width="88" height="88" rx="12.2222" fill="#FFC62A" />
    <path
        d="M48.7874 23.6299H39.2133C38.1951 23.6278 37.2176 24.0299 36.4957 24.748C35.7738 25.4661 35.3665 26.4413 35.3633 27.4596V29.3744C35.3627 29.8774 35.4614 30.3757 35.6537 30.8405C35.846 31.3054 36.128 31.7278 36.4838 32.0835C36.8395 32.4392 37.2619 32.7213 37.7267 32.9136C38.1916 33.1058 38.6898 33.2045 39.1929 33.204H48.7874C49.2904 33.2045 49.7887 33.1058 50.2535 32.9136C50.7184 32.7213 51.1408 32.4392 51.4965 32.0835C51.8522 31.7278 52.1343 31.3054 52.3266 30.8405C52.5188 30.3757 52.6175 29.8774 52.617 29.3744V27.4596C52.6194 26.956 52.522 26.4569 52.3304 25.9912C52.1388 25.5254 51.8568 25.1023 51.5007 24.7462C51.1446 24.3901 50.7215 24.1081 50.2558 23.9165C49.79 23.7249 49.2909 23.6275 48.7874 23.6299Z"
        fill="#FFC62A" />
    <path
        d="M54.6725 29.3734C54.6672 30.9331 54.0452 32.4274 52.9423 33.5302C51.8395 34.6331 50.3452 35.2551 48.7855 35.2604H39.2114C37.6517 35.2551 36.1575 34.6331 35.0546 33.5302C33.9517 32.4274 33.3297 30.9331 33.3244 29.3734C33.3215 29.1118 33.2512 28.8553 33.1202 28.6288C32.9893 28.4023 32.8022 28.2134 32.5769 28.0803C32.3517 27.9472 32.0959 27.8744 31.8343 27.869C31.5728 27.8636 31.3142 27.9257 31.0836 28.0493C29.6246 28.8263 28.4045 29.9856 27.554 31.403C26.7036 32.8205 26.2548 34.4426 26.2559 36.0956V55.2641C26.2618 57.6773 27.223 59.9899 28.9294 61.6962C30.6357 63.4025 32.9483 64.3638 35.3614 64.3697H52.6355C55.0486 64.3638 57.3612 63.4025 59.0676 61.6962C60.7739 59.9899 61.7351 57.6773 61.741 55.2641V36.0956C61.7421 34.4426 61.2933 32.8205 60.4429 31.403C59.5924 29.9856 58.3723 28.8263 56.9133 28.0493C56.6827 27.9257 56.4241 27.8636 56.1626 27.869C55.901 27.8744 55.6452 27.9472 55.42 28.0803C55.1947 28.2134 55.0076 28.4023 54.8767 28.6288C54.7458 28.8553 54.6754 29.1118 54.6725 29.3734ZM44.7725 54.0827H35.8503C35.4451 54.0827 35.0565 53.9217 34.77 53.6352C34.4835 53.3487 34.3225 52.9601 34.3225 52.5549C34.3225 52.1497 34.4835 51.7611 34.77 51.4746C35.0565 51.1881 35.4451 51.0271 35.8503 51.0271H44.7725C45.1777 51.0271 45.5663 51.1881 45.8528 51.4746C46.1393 51.7611 46.3003 52.1497 46.3003 52.5549C46.3003 52.9601 46.1393 53.3487 45.8528 53.6352C45.5663 53.9217 45.1777 54.0827 44.7725 54.0827ZM50.1096 45.9345H35.8503C35.4451 45.9345 35.0565 45.7735 34.77 45.487C34.4835 45.2005 34.3225 44.8119 34.3225 44.4067C34.3225 44.0015 34.4835 43.6129 34.77 43.3264C35.0565 43.0399 35.4451 42.879 35.8503 42.879H50.1096C50.5148 42.879 50.9034 43.0399 51.1899 43.3264C51.4764 43.6129 51.6373 44.0015 51.6373 44.4067C51.6373 44.8119 51.4764 45.2005 51.1899 45.487C50.9034 45.7735 50.5148 45.9345 50.1096 45.9345Z"
        fill="#FFC62A" />
</svg>