<svg width="88" height="88" viewBox="0 0 88 88" fill="none" xmlns="http://www.w3.org/2000/svg">
    <path opacity="0.1"
        d="M0 19.5556C0 10.337 0 5.72769 2.86384 2.86384C5.72769 0 10.337 0 19.5556 0H68.4444C77.663 0 82.2723 0 85.1362 2.86384C88 5.72769 88 10.337 88 19.5556V68.4444C88 77.663 88 82.2723 85.1362 85.1362C82.2723 88 77.663 88 68.4444 88H19.5556C10.337 88 5.72769 88 2.86384 85.1362C0 82.2723 0 77.663 0 68.4444V19.5556Z"
        fill="#00AF6C" />
    <path
        d="M58.6038 33.0821C57.7278 28.6617 54.4482 26.7266 49.8853 26.7266H32.0001C26.6223 26.7266 23.0371 29.4155 23.0371 35.6895V46.1803C23.0371 50.7025 24.8908 53.3506 27.9464 54.4914C28.4152 54.6658 28.8994 54.7954 29.3927 54.8784C30.2494 55.0623 31.1238 55.1511 32.0001 55.1432H49.9056C55.2834 55.1432 58.8686 52.4543 58.8686 46.1803V35.6895C58.8797 34.8132 58.7908 33.9384 58.6038 33.0821ZM30.8186 44.0006C30.8186 44.4058 30.6576 44.7944 30.3711 45.0809C30.0846 45.3675 29.696 45.5284 29.2908 45.5284C28.8856 45.5284 28.497 45.3675 28.2105 45.0809C27.924 44.7944 27.763 44.4058 27.763 44.0006V37.8895C27.763 37.4843 27.924 37.0957 28.2105 36.8092C28.497 36.5227 28.8856 36.3617 29.2908 36.3617C29.696 36.3617 30.0846 36.5227 30.3711 36.8092C30.6576 37.0957 30.8186 37.4843 30.8186 37.8895V44.0006ZM40.9427 46.3229C39.879 46.3229 38.8393 46.0075 37.9549 45.4165C37.0706 44.8256 36.3813 43.9857 35.9742 43.0031C35.5672 42.0204 35.4607 40.9391 35.6682 39.8959C35.8757 38.8527 36.3879 37.8945 37.14 37.1424C37.8921 36.3903 38.8503 35.8781 39.8935 35.6706C40.9367 35.4631 42.018 35.5696 43.0007 35.9767C43.9833 36.3837 44.8232 37.073 45.4141 37.9573C46.005 38.8417 46.3204 39.8815 46.3204 40.9451C46.3212 41.6515 46.1827 42.3512 45.9127 43.004C45.6427 43.6568 45.2467 44.25 44.7471 44.7495C44.2476 45.2491 43.6544 45.6452 43.0016 45.9151C42.3488 46.1851 41.6491 46.3237 40.9427 46.3229ZM54.1019 44.0006C54.1019 44.4058 53.941 44.7944 53.6544 45.0809C53.3679 45.3675 52.9793 45.5284 52.5741 45.5284C52.169 45.5284 51.7804 45.3675 51.4938 45.0809C51.2073 44.7944 51.0464 44.4058 51.0464 44.0006V37.8895C51.0464 37.4843 51.2073 37.0957 51.4938 36.8092C51.7804 36.5227 52.169 36.3617 52.5741 36.3617C52.9793 36.3617 53.3679 36.5227 53.6544 36.8092C53.941 37.0957 54.1019 37.4843 54.1019 37.8895V44.0006Z"
        fill="#00AF6C" />
    <path
        d="M64.9798 41.7997V52.2905C64.9798 58.5646 61.3946 61.2738 55.9964 61.2738H38.1112C36.7237 61.2981 35.3433 61.0704 34.0372 60.6016C33.118 60.2796 32.2778 59.7657 31.5724 59.0942C31.4946 59.0174 31.4427 58.9184 31.4239 58.8108C31.4051 58.7032 31.4202 58.5924 31.4673 58.4938C31.5143 58.3952 31.5909 58.3137 31.6864 58.2607C31.7819 58.2077 31.8916 58.1857 32.0001 58.1979H49.8853C57.4224 58.1979 61.9038 53.7164 61.9038 46.1997V35.6886C61.8941 35.5809 61.9176 35.4728 61.9711 35.3789C62.0246 35.2849 62.1056 35.2096 62.2032 35.163C62.3008 35.1164 62.4103 35.1008 62.517 35.1183C62.6237 35.1358 62.7225 35.1855 62.8001 35.2609C64.351 37.0732 65.1331 39.4194 64.9798 41.7997Z"
        fill="#00AF6C" />
</svg>