<svg width="38" height="36" viewBox="0 0 38 36" fill="none" xmlns="http://www.w3.org/2000/svg">
<path d="M16.3613 2.05678V8.39777C16.3613 9.25775 15.6641 9.95455 14.8042 9.95455C11.7359 9.95455 10.0669 13.1015 9.83556 19.3127H14.8042C15.6641 19.3127 16.3613 20.0101 16.3613 20.8698V34.2584C16.3613 35.118 15.6641 35.8149 14.8042 35.8149H1.55678C0.696475 35.8149 0 35.1174 0 34.2584V20.8698C0 17.8923 0.299795 15.1599 0.890787 12.7477C1.49691 10.2744 2.42732 8.1118 3.65535 6.31988C4.91897 4.47833 6.4996 3.03324 8.35367 2.02652C10.2203 1.0137 12.3909 0.5 14.8047 0.5C15.6641 0.5 16.3613 1.1968 16.3613 2.05678ZM36.4428 9.95466C37.3023 9.95466 38 9.25721 38 8.39788V2.05689C38 1.19691 37.3024 0.500109 36.4428 0.500109C34.0299 0.500109 31.859 1.01392 29.993 2.02663C28.1386 3.03335 26.5572 4.47844 25.2933 6.31999C24.0657 8.11191 23.1353 10.2746 22.5291 12.7485C21.9384 15.1615 21.6386 17.8938 21.6386 20.8699V34.2586C21.6386 35.1181 22.336 35.815 23.1957 35.815H36.4427C37.3022 35.815 37.9992 35.1176 37.9992 34.2586V20.8698C37.9992 20.0102 37.3023 19.3127 36.4427 19.3127H31.5449C31.7728 13.1016 33.4174 9.95466 36.4428 9.95466Z" fill="#003090"/>
</svg>
